<?xml version="1.0" encoding="utf-8"?>
<!-- Generator: Adobe Illustrator 16.2.0, SVG Export Plug-In . SVG Version: 6.00 Build 0)  -->
<!DOCTYPE svg PUBLIC "-//W3C//DTD SVG 1.1//EN" "http://www.w3.org/Graphics/SVG/1.1/DTD/svg11.dtd">
<svg version="1.1" id="图层_1" xmlns="http://www.w3.org/2000/svg" xmlns:xlink="http://www.w3.org/1999/xlink" x="0px" y="0px"
	 width="800px" height="640px" viewBox="0 0 800 640" enable-background="new 0 0 800 640" xml:space="preserve">
<g>
	<rect x="189.336" y="89.029" fill="none" width="442.335" height="50.365"/>
	<path d="M225.512,92.668l-7.629,27.229h-4.096l-5.484-19.617c-0.246-0.891-0.393-1.828-0.439-2.813h-0.07
		c-0.07,0.973-0.234,1.898-0.492,2.777l-5.537,19.652h-4.061l-7.893-27.229h3.885l5.555,20.566c0.246,0.926,0.393,1.857,0.439,2.795
		h0.105c0.059-0.703,0.252-1.635,0.58-2.795l5.889-20.566h3.463l5.625,20.725c0.188,0.68,0.34,1.547,0.457,2.602h0.07
		c0.059-0.762,0.229-1.652,0.51-2.672l5.344-20.654H225.512z"/>
	<path d="M245.463,119.896h-3.428v-11.18c0-3.914-1.453-5.871-4.359-5.871c-1.488,0-2.725,0.571-3.709,1.714
		s-1.477,2.581-1.477,4.315v11.021h-3.445V91.121h3.445v12.533h0.07c1.488-2.438,3.604-3.656,6.346-3.656
		c4.371,0,6.557,2.643,6.557,7.928V119.896z"/>
	<path d="M267.049,111.055h-13.605c0.059,2.074,0.627,3.677,1.705,4.808s2.584,1.696,4.518,1.696c2.18,0,4.178-0.697,5.994-2.092
		v3.076c-1.711,1.207-3.979,1.811-6.803,1.811c-2.813,0-5.007-0.891-6.583-2.672s-2.364-4.254-2.364-7.418
		c0-2.977,0.864-5.432,2.593-7.365s3.876-2.9,6.442-2.9c2.543,0,4.529,0.817,5.959,2.452s2.145,3.923,2.145,6.864V111.055z
		 M263.604,108.295c-0.012-1.758-0.428-3.117-1.248-4.078s-1.975-1.441-3.463-1.441c-1.371,0-2.558,0.51-3.56,1.529
		s-1.632,2.35-1.89,3.99H263.604z"/>
	<path d="M288.072,119.896h-3.428V108.84c0-3.996-1.459-5.994-4.377-5.994c-1.512,0-2.754,0.563-3.727,1.688
		s-1.459,2.549-1.459,4.271v11.092h-3.445v-19.441h3.445v3.217h0.07c1.465-2.449,3.592-3.674,6.381-3.674
		c2.133,0,3.756,0.683,4.869,2.048s1.67,3.354,1.67,5.968V119.896z"/>
	<path d="M313.807,119.703c-0.75,0.41-1.764,0.615-3.041,0.615c-3.48,0-5.221-1.928-5.221-5.783v-11.232h-3.34v-2.848h3.34v-4.676
		l3.428-1.09v5.766h4.834v2.848h-4.834v10.617c0,1.277,0.217,2.191,0.65,2.742s1.154,0.826,2.162,0.826
		c0.773,0,1.447-0.217,2.021-0.65V119.703z"/>
	<path d="M333.424,111.055h-13.605c0.059,2.074,0.627,3.677,1.705,4.808s2.584,1.696,4.518,1.696c2.18,0,4.178-0.697,5.994-2.092
		v3.076c-1.711,1.207-3.979,1.811-6.803,1.811c-2.813,0-5.007-0.891-6.583-2.672s-2.364-4.254-2.364-7.418
		c0-2.977,0.864-5.432,2.593-7.365s3.876-2.9,6.442-2.9c2.543,0,4.529,0.817,5.959,2.452s2.145,3.923,2.145,6.864V111.055z
		 M329.979,108.295c-0.012-1.758-0.428-3.117-1.248-4.078s-1.975-1.441-3.463-1.441c-1.371,0-2.558,0.51-3.56,1.529
		s-1.632,2.35-1.89,3.99H329.979z"/>
	<path d="M336.922,115.695c1.734,1.254,3.604,1.881,5.607,1.881c2.684,0,4.025-0.879,4.025-2.637c0-0.75-0.293-1.368-0.879-1.854
		s-1.775-1.063-3.568-1.731c-2.156-0.867-3.557-1.726-4.201-2.575s-0.967-1.878-0.967-3.085c0-1.723,0.729-3.103,2.188-4.14
		s3.255-1.556,5.388-1.556c1.652,0,3.188,0.287,4.605,0.861v3.322c-1.453-0.938-3.1-1.406-4.939-1.406
		c-1.102,0-1.998,0.24-2.689,0.721s-1.037,1.113-1.037,1.898c0,0.773,0.249,1.377,0.747,1.811s1.603,0.99,3.313,1.67
		c2.168,0.809,3.633,1.646,4.395,2.514s1.143,1.939,1.143,3.217c0,1.781-0.729,3.185-2.188,4.21s-3.349,1.538-5.669,1.538
		c-2.016,0-3.773-0.381-5.273-1.143V115.695z"/>
	<path d="M364.01,119.703c-0.75,0.41-1.764,0.615-3.041,0.615c-3.48,0-5.221-1.928-5.221-5.783v-11.232h-3.34v-2.848h3.34v-4.676
		l3.428-1.09v5.766h4.834v2.848h-4.834v10.617c0,1.277,0.217,2.191,0.65,2.742s1.154,0.826,2.162,0.826
		c0.773,0,1.447-0.217,2.021-0.65V119.703z"/>
	<path d="M367.666,93.6c0-0.609,0.208-1.122,0.624-1.538s0.929-0.624,1.538-0.624c0.621,0,1.146,0.205,1.573,0.615
		s0.642,0.926,0.642,1.547c0,0.609-0.214,1.116-0.642,1.521s-0.952,0.606-1.573,0.606s-1.137-0.202-1.547-0.606
		S367.666,94.209,367.666,93.6z M368.07,119.896v-19.441h3.445v19.441H368.07z"/>
	<path d="M394.104,119.896h-3.428V108.84c0-3.996-1.459-5.994-4.377-5.994c-1.512,0-2.754,0.563-3.727,1.688
		s-1.459,2.549-1.459,4.271v11.092h-3.445v-19.441h3.445v3.217h0.07c1.465-2.449,3.592-3.674,6.381-3.674
		c2.133,0,3.756,0.683,4.869,2.048s1.67,3.354,1.67,5.968V119.896z"/>
	<path d="M416.727,118.262c0,7.195-3.492,10.793-10.477,10.793c-2.414,0-4.512-0.451-6.293-1.354v-3.322
		c2.168,1.207,4.248,1.811,6.24,1.811c4.723,0,7.084-2.484,7.084-7.453v-2.057h-0.07c-1.477,2.449-3.68,3.674-6.609,3.674
		c-2.438,0-4.389-0.873-5.854-2.619s-2.197-4.061-2.197-6.943c0-3.316,0.809-5.944,2.426-7.884s3.773-2.909,6.469-2.909
		c2.59,0,4.512,1.031,5.766,3.094h0.07v-2.637h3.445V118.262z M413.281,108.33c0.012-1.5-0.492-2.789-1.512-3.867
		s-2.273-1.617-3.762-1.617c-1.875,0-3.334,0.688-4.377,2.065s-1.564,3.267-1.564,5.669c0,2.063,0.504,3.732,1.512,5.01
		s2.344,1.916,4.008,1.916c1.676,0,3.047-0.609,4.113-1.828s1.594-2.766,1.582-4.641V108.33z"/>
	<path d="M433.988,101.809c1.934-1.207,4.166-1.811,6.697-1.811c4.688,0,7.031,2.461,7.031,7.383v12.516h-3.41v-3.006h-0.088
		c-1.348,2.309-3.334,3.463-5.959,3.463c-1.887,0-3.387-0.51-4.5-1.529s-1.67-2.396-1.67-4.131c0-3.633,2.15-5.748,6.451-6.346
		l5.766-0.809c0-3.176-1.313-4.764-3.938-4.764c-2.332,0-4.459,0.785-6.381,2.355V101.809z M439.754,110.756
		c-1.594,0.211-2.692,0.609-3.296,1.195s-0.905,1.406-0.905,2.461c0,0.926,0.328,1.682,0.984,2.268s1.523,0.879,2.602,0.879
		c1.5,0,2.736-0.527,3.709-1.582s1.459-2.379,1.459-3.973v-1.863L439.754,110.756z"/>
	<path d="M469.865,119.896h-3.428V108.84c0-3.996-1.459-5.994-4.377-5.994c-1.512,0-2.754,0.563-3.727,1.688
		s-1.459,2.549-1.459,4.271v11.092h-3.445v-19.441h3.445v3.217h0.07c1.465-2.449,3.592-3.674,6.381-3.674
		c2.133,0,3.756,0.683,4.869,2.048s1.67,3.354,1.67,5.968V119.896z"/>
	<path d="M485.844,93.6c0-0.609,0.208-1.122,0.624-1.538s0.929-0.624,1.538-0.624c0.621,0,1.146,0.205,1.573,0.615
		s0.642,0.926,0.642,1.547c0,0.609-0.214,1.116-0.642,1.521s-0.952,0.606-1.573,0.606s-1.137-0.202-1.547-0.606
		S485.844,94.209,485.844,93.6z M486.248,119.896v-19.441h3.445v19.441H486.248z"/>
	<path d="M505.18,119.703c-0.75,0.41-1.764,0.615-3.041,0.615c-3.48,0-5.221-1.928-5.221-5.783v-11.232h-3.34v-2.848h3.34v-4.676
		l3.428-1.09v5.766h4.834v2.848h-4.834v10.617c0,1.277,0.217,2.191,0.65,2.742s1.154,0.826,2.162,0.826
		c0.773,0,1.447-0.217,2.021-0.65V119.703z"/>
	<path d="M524.797,111.055h-13.605c0.059,2.074,0.627,3.677,1.705,4.808s2.584,1.696,4.518,1.696c2.18,0,4.178-0.697,5.994-2.092
		v3.076c-1.711,1.207-3.979,1.811-6.803,1.811c-2.813,0-5.007-0.891-6.583-2.672s-2.364-4.254-2.364-7.418
		c0-2.977,0.864-5.432,2.593-7.365s3.876-2.9,6.442-2.9c2.543,0,4.529,0.817,5.959,2.452s2.145,3.923,2.145,6.864V111.055z
		 M521.352,108.295c-0.012-1.758-0.428-3.117-1.248-4.078s-1.975-1.441-3.463-1.441c-1.371,0-2.558,0.51-3.56,1.529
		s-1.632,2.35-1.89,3.99H521.352z"/>
	<path d="M557.369,119.896h-3.445v-11.162c0-2.109-0.328-3.618-0.984-4.526s-1.734-1.362-3.234-1.362
		c-1.266,0-2.35,0.592-3.252,1.775s-1.354,2.584-1.354,4.201v11.074h-3.445v-11.514c0-3.691-1.424-5.537-4.271-5.537
		c-1.313,0-2.399,0.563-3.261,1.688s-1.292,2.561-1.292,4.307v11.057h-3.445v-19.441h3.445v3.076h0.07
		c1.383-2.355,3.404-3.533,6.064-3.533c1.301,0,2.449,0.357,3.445,1.072s1.688,1.682,2.074,2.9c1.441-2.648,3.598-3.973,6.469-3.973
		c4.277,0,6.416,2.637,6.416,7.91V119.896z"/>
</g>
<g>
	<rect x="71.81" y="255.336" fill="none" width="198.555" height="43.08"/>
	<path d="M107.986,258.975l-7.629,27.229h-4.096l-5.484-19.617c-0.246-0.891-0.393-1.828-0.439-2.813h-0.07
		c-0.07,0.973-0.234,1.898-0.492,2.777l-5.537,19.652h-4.061l-7.893-27.229h3.885l5.555,20.566c0.246,0.926,0.393,1.857,0.439,2.795
		h0.105c0.059-0.703,0.252-1.635,0.58-2.795l5.889-20.566h3.463l5.625,20.725c0.188,0.68,0.34,1.547,0.457,2.602h0.07
		c0.059-0.762,0.229-1.652,0.51-2.672l5.344-20.654H107.986z"/>
	<path d="M126.425,277.362H112.82c0.059,2.074,0.627,3.677,1.705,4.808s2.584,1.696,4.518,1.696c2.18,0,4.178-0.697,5.994-2.092
		v3.076c-1.711,1.207-3.979,1.811-6.803,1.811c-2.813,0-5.007-0.891-6.583-2.672s-2.364-4.254-2.364-7.418
		c0-2.977,0.864-5.432,2.593-7.365s3.876-2.9,6.442-2.9c2.543,0,4.529,0.817,5.959,2.452s2.145,3.923,2.145,6.864V277.362z
		 M122.98,274.602c-0.012-1.758-0.428-3.117-1.248-4.078s-1.975-1.441-3.463-1.441c-1.371,0-2.558,0.51-3.56,1.529
		s-1.632,2.35-1.89,3.99H122.98z"/>
	<path d="M130.996,286.204v-28.775h3.445v28.775H130.996z"/>
	<path d="M140.576,286.204v-28.775h3.445v28.775H140.576z"/>
	<path d="M177.701,286.204h-3.445v-3.234h-0.07c-1.418,2.461-3.621,3.691-6.609,3.691c-2.461,0-4.418-0.876-5.871-2.628
		s-2.18-4.116-2.18-7.093c0-3.211,0.82-5.786,2.461-7.726s3.785-2.909,6.434-2.909s4.57,1.031,5.766,3.094h0.07v-11.971h3.445
		V286.204z M174.273,274.637c0-1.559-0.513-2.862-1.538-3.911s-2.288-1.573-3.788-1.573c-1.828,0-3.27,0.683-4.324,2.048
		s-1.582,3.226-1.582,5.581c0,2.168,0.507,3.882,1.521,5.142s2.364,1.89,4.052,1.89c1.664,0,3.023-0.618,4.078-1.854
		s1.582-2.774,1.582-4.614V274.637z"/>
	<path d="M182.552,276.694c0-3.211,0.896-5.745,2.689-7.603s4.225-2.786,7.295-2.786c2.918,0,5.206,0.894,6.864,2.681
		s2.487,4.257,2.487,7.409c0,3.07-0.885,5.549-2.654,7.436s-4.143,2.83-7.119,2.83c-2.906,0-5.227-0.914-6.961-2.742
		S182.552,279.682,182.552,276.694z M186.068,276.588c0,2.238,0.565,4.002,1.696,5.291s2.651,1.934,4.562,1.934
		c1.969,0,3.469-0.63,4.5-1.89s1.547-3.067,1.547-5.423c0-2.367-0.516-4.184-1.547-5.449s-2.531-1.898-4.5-1.898
		c-1.934,0-3.46,0.662-4.579,1.986S186.068,274.28,186.068,276.588z"/>
	<path d="M223.175,286.204h-3.428v-11.057c0-3.996-1.459-5.994-4.377-5.994c-1.512,0-2.754,0.563-3.727,1.688
		s-1.459,2.549-1.459,4.271v11.092h-3.445v-19.441h3.445v3.217h0.07c1.465-2.449,3.592-3.674,6.381-3.674
		c2.133,0,3.756,0.683,4.869,2.048s1.67,3.354,1.67,5.968V286.204z"/>
	<path d="M244.761,277.362h-13.605c0.059,2.074,0.627,3.677,1.705,4.808s2.584,1.696,4.518,1.696c2.18,0,4.178-0.697,5.994-2.092
		v3.076c-1.711,1.207-3.979,1.811-6.803,1.811c-2.813,0-5.007-0.891-6.583-2.672s-2.364-4.254-2.364-7.418
		c0-2.977,0.864-5.432,2.593-7.365s3.876-2.9,6.442-2.9c2.543,0,4.529,0.817,5.959,2.452s2.145,3.923,2.145,6.864V277.362z
		 M241.316,274.602c-0.012-1.758-0.428-3.117-1.248-4.078s-1.975-1.441-3.463-1.441c-1.371,0-2.558,0.51-3.56,1.529
		s-1.632,2.35-1.89,3.99H241.316z"/>
	<path d="M249.63,284.358c0-0.633,0.223-1.163,0.668-1.591s0.979-0.642,1.6-0.642c0.609,0,1.137,0.223,1.582,0.668
		s0.668,0.967,0.668,1.564c0,0.586-0.217,1.099-0.65,1.538s-0.938,0.659-1.512,0.659c-0.703,0-1.271-0.22-1.705-0.659
		S249.63,284.944,249.63,284.358z M253.656,258.975l-0.404,19.477h-2.813l-0.387-19.477H253.656z"/>
</g>
<g>
	<rect x="544.481" y="256.745" fill="none" width="122.956" height="40.263"/>
	<path d="M562.024,263.513h-10.512v9.105h9.738v3.094h-9.738v11.9h-3.516v-27.229h14.027V263.513z"/>
	<path d="M565.698,269.524c1.934-1.207,4.166-1.811,6.697-1.811c4.688,0,7.031,2.461,7.031,7.383v12.516h-3.41v-3.006h-0.088
		c-1.348,2.309-3.334,3.463-5.959,3.463c-1.887,0-3.387-0.51-4.5-1.529s-1.67-2.396-1.67-4.131c0-3.633,2.15-5.748,6.451-6.346
		l5.766-0.809c0-3.176-1.313-4.764-3.938-4.764c-2.332,0-4.459,0.785-6.381,2.355V269.524z M571.464,278.472
		c-1.594,0.211-2.692,0.609-3.296,1.195s-0.905,1.406-0.905,2.461c0,0.926,0.328,1.682,0.984,2.268s1.523,0.879,2.602,0.879
		c1.5,0,2.736-0.527,3.709-1.582s1.459-2.379,1.459-3.973v-1.863L571.464,278.472z"/>
	<path d="M584.718,261.315c0-0.609,0.208-1.122,0.624-1.538s0.929-0.624,1.538-0.624c0.621,0,1.146,0.205,1.573,0.615
		s0.642,0.926,0.642,1.547c0,0.609-0.214,1.116-0.642,1.521s-0.952,0.606-1.573,0.606s-1.137-0.202-1.547-0.606
		S584.718,261.925,584.718,261.315z M585.122,287.612v-19.441h3.445v19.441H585.122z"/>
	<path d="M594.702,287.612v-28.775h3.445v28.775H594.702z"/>
	<path d="M620.138,278.771h-13.605c0.059,2.074,0.627,3.677,1.705,4.808s2.584,1.696,4.518,1.696c2.18,0,4.178-0.697,5.994-2.092
		v3.076c-1.711,1.207-3.979,1.811-6.803,1.811c-2.813,0-5.007-0.891-6.583-2.672s-2.364-4.254-2.364-7.418
		c0-2.977,0.864-5.432,2.593-7.365s3.876-2.9,6.442-2.9c2.543,0,4.529,0.817,5.959,2.452s2.145,3.923,2.145,6.864V278.771z
		 M616.692,276.011c-0.012-1.758-0.428-3.117-1.248-4.078s-1.975-1.441-3.463-1.441c-1.371,0-2.558,0.51-3.56,1.529
		s-1.632,2.35-1.89,3.99H616.692z"/>
	<path d="M641.601,287.612h-3.445v-3.234h-0.07c-1.418,2.461-3.621,3.691-6.609,3.691c-2.461,0-4.418-0.876-5.871-2.628
		s-2.18-4.116-2.18-7.093c0-3.211,0.82-5.786,2.461-7.726s3.785-2.909,6.434-2.909s4.57,1.031,5.766,3.094h0.07v-11.971h3.445
		V287.612z M638.173,276.046c0-1.559-0.513-2.862-1.538-3.911s-2.288-1.573-3.788-1.573c-1.828,0-3.27,0.683-4.324,2.048
		s-1.582,3.226-1.582,5.581c0,2.168,0.507,3.882,1.521,5.142s2.364,1.89,4.052,1.89c1.664,0,3.023-0.618,4.078-1.854
		s1.582-2.774,1.582-4.614V276.046z"/>
	<path d="M648.034,285.767c0-0.633,0.223-1.163,0.668-1.591s0.979-0.642,1.6-0.642c0.609,0,1.137,0.223,1.582,0.668
		s0.668,0.967,0.668,1.564c0,0.586-0.217,1.099-0.65,1.538s-0.938,0.659-1.512,0.659c-0.703,0-1.271-0.22-1.705-0.659
		S648.034,286.353,648.034,285.767z M652.06,260.384l-0.404,19.477h-2.813l-0.387-19.477H652.06z"/>
</g>
<g>
	<g>
		<path d="M441.922,145.766c8.295,18.296,23.441,32.963,39.265,44.878c16.808,12.657,36.86,23.162,57.85,26.344
			c3.153,0.478,4.509-4.339,1.33-4.821c-19.756-2.995-38.063-12.563-54.187-24.032c-16.189-11.517-31.638-26.577-39.941-44.892
			C444.909,140.309,440.601,142.853,441.922,145.766L441.922,145.766z"/>
	</g>
</g>
<g>
	<g>
		<path d="M528.554,226.225c9.621-4.985,20.001-1.286,30.125-0.389c1.387,0.123,2.464-1.231,2.5-2.5
			c0.307-10.819-7.867-18.925-12.021-28.269c-1.307-2.941-5.614-0.396-4.316,2.523c3.728,8.388,11.611,16.082,11.337,25.746
			c0.833-0.833,1.667-1.667,2.5-2.5c-11.316-1.003-21.917-4.489-32.648,1.071C523.167,223.391,525.695,227.706,528.554,226.225
			L528.554,226.225z"/>
	</g>
</g>
<g>
	<g>
		<path d="M315.309,146.982c-9.758,18.522-27.248,32.504-44.578,43.583c-19.386,12.393-41.674,22.279-64.643,25.251
			c-3.151,0.408-3.191,5.413,0,5c23.492-3.041,45.832-12.743,65.864-25.116c18.55-11.458,37.341-26.582,47.674-46.196
			C321.128,146.655,316.813,144.128,315.309,146.982L315.309,146.982z"/>
	</g>
</g>
<g>
	<g>
		<path d="M221.805,225.647c-12.437-5.608-24.857-2.034-37.821-1.072c0.833,0.833,1.667,1.667,2.5,2.5
			c-0.352-9.844,9.029-17.545,13.262-25.746c1.476-2.86-2.838-5.39-4.317-2.523c-4.757,9.216-14.342,17.118-13.944,28.269
			c0.046,1.283,1.104,2.604,2.5,2.5c11.768-0.873,23.974-4.717,35.297,0.389C222.195,231.279,224.74,226.971,221.805,225.647
			L221.805,225.647z"/>
	</g>
</g>
<g>
	<g>
		<path fill="#22AC38" d="M148.239,308.803c-5.084,34.116-10.215,68.281-10.308,102.854c-0.009,3.225,4.991,3.224,5,0
			c0.092-34.13,5.11-67.845,10.129-101.525C153.53,306.979,148.713,305.623,148.239,308.803L148.239,308.803z"/>
	</g>
</g>
<g>
	<g>
		<path fill="#22AC38" d="M125.863,399.05c3.396,7.097,7.133,27.481,18.217,26.786c5.371-0.337,9.879-4.095,13.898-7.334
			c5.147-4.147,9.652-9.06,14.877-13.106c2.546-1.972-1.02-5.483-3.535-3.535c-7.678,5.946-14.305,15.354-23.69,18.683
			c-8.048,2.854-13.088-19.083-15.449-24.017C128.789,393.619,124.479,396.156,125.863,399.05L125.863,399.05z"/>
	</g>
</g>
<g>
	<g>
		<path fill="#E60012" d="M587.654,316.701c2.993,7.108,2.783,14.567,2.396,22.126c-0.396,7.746-0.334,15.5-0.796,23.246
			c-1.038,17.407-3.935,34.645-6.71,51.839c-0.509,3.153,4.31,4.507,4.822,1.33c2.747-17.025,5.496-34.058,6.762-51.271
			c0.615-8.375,0.479-16.765,0.922-25.145c0.422-7.964,0.574-15.977-2.574-23.455C591.245,312.447,586.404,313.731,587.654,316.701
			L587.654,316.701z"/>
	</g>
</g>
<g>
	<g>
		<path fill="#E60012" d="M576.229,405.619c2.907,6.733,5.1,13.746,7.776,20.571c0.53,1.35,1.624,2.021,3.076,1.746
			c15.771-2.99,26.682-17.99,36.869-29.11c2.174-2.372-1.353-5.917-3.535-3.535c-9.58,10.456-19.853,25.016-34.664,27.823
			c1.025,0.582,2.051,1.164,3.076,1.746c-2.837-7.229-5.201-14.631-8.282-21.765C579.271,400.143,574.964,402.691,576.229,405.619
			L576.229,405.619z"/>
	</g>
</g>
<g>
	<rect x="53.555" y="461.168" fill="none" width="278.846" height="53.409"/>
	<path d="M63.206,467.777h-2.619v21.287h2.619v2.971h-8.754v-2.971h2.619v-21.287h-2.619v-2.971h8.754V467.777z"/>
	<path d="M77.848,492.035V463.26h3.445v28.775H77.848z"/>
	<path d="M87.024,465.738c0-0.609,0.208-1.122,0.624-1.538s0.929-0.624,1.538-0.624c0.621,0,1.146,0.205,1.573,0.615
		s0.642,0.926,0.642,1.547c0,0.609-0.214,1.116-0.642,1.521s-0.952,0.606-1.573,0.606s-1.137-0.202-1.547-0.606
		S87.024,466.348,87.024,465.738z M87.428,492.035v-19.441h3.445v19.441H87.428z"/>
	<path d="M113.549,492.035h-4.693l-8.314-9.369h-0.07v9.369h-3.445V463.26h3.445v18.246h0.07l7.893-8.912h4.43l-8.789,9.352
		L113.549,492.035z"/>
	<path d="M131.69,483.193h-13.605c0.059,2.074,0.627,3.677,1.705,4.808s2.584,1.696,4.518,1.696c2.18,0,4.178-0.697,5.994-2.092
		v3.076c-1.711,1.207-3.979,1.811-6.803,1.811c-2.813,0-5.007-0.891-6.583-2.672s-2.364-4.254-2.364-7.418
		c0-2.977,0.864-5.432,2.593-7.365s3.876-2.9,6.442-2.9c2.543,0,4.529,0.817,5.959,2.452s2.145,3.923,2.145,6.864V483.193z
		 M128.245,480.434c-0.012-1.758-0.428-3.117-1.248-4.078s-1.975-1.441-3.463-1.441c-1.371,0-2.558,0.51-3.56,1.529
		s-1.632,2.35-1.89,3.99H128.245z"/>
	<path d="M156.264,491.842c-0.75,0.41-1.764,0.615-3.041,0.615c-3.48,0-5.221-1.928-5.221-5.783v-11.232h-3.34v-2.848h3.34v-4.676
		l3.428-1.09v5.766h4.834v2.848h-4.834v10.617c0,1.277,0.217,2.191,0.65,2.742s1.154,0.826,2.162,0.826
		c0.773,0,1.447-0.217,2.021-0.65V491.842z"/>
	<path d="M176.76,492.035h-3.428v-11.18c0-3.914-1.453-5.871-4.359-5.871c-1.488,0-2.725,0.571-3.709,1.714
		s-1.477,2.581-1.477,4.315v11.021h-3.445V463.26h3.445v12.533h0.07c1.488-2.438,3.604-3.656,6.346-3.656
		c4.371,0,6.557,2.643,6.557,7.928V492.035z"/>
	<path d="M182.086,465.738c0-0.609,0.208-1.122,0.624-1.538s0.929-0.624,1.538-0.624c0.621,0,1.146,0.205,1.573,0.615
		s0.642,0.926,0.642,1.547c0,0.609-0.214,1.116-0.642,1.521s-0.952,0.606-1.573,0.606s-1.137-0.202-1.547-0.606
		S182.086,466.348,182.086,465.738z M182.491,492.035v-19.441h3.445v19.441H182.491z"/>
	<path d="M190.999,487.834c1.734,1.254,3.604,1.881,5.607,1.881c2.684,0,4.025-0.879,4.025-2.637c0-0.75-0.293-1.368-0.879-1.854
		s-1.775-1.063-3.568-1.731c-2.156-0.867-3.557-1.726-4.201-2.575s-0.967-1.878-0.967-3.085c0-1.723,0.729-3.103,2.188-4.14
		s3.255-1.556,5.388-1.556c1.652,0,3.188,0.287,4.605,0.861v3.322c-1.453-0.938-3.1-1.406-4.939-1.406
		c-1.102,0-1.998,0.24-2.689,0.721s-1.037,1.113-1.037,1.898c0,0.773,0.249,1.377,0.747,1.811s1.603,0.99,3.313,1.67
		c2.168,0.809,3.633,1.646,4.395,2.514s1.143,1.939,1.143,3.217c0,1.781-0.729,3.185-2.188,4.21s-3.349,1.538-5.669,1.538
		c-2.016,0-3.773-0.381-5.273-1.143V487.834z"/>
	<path d="M218.315,487.834c1.734,1.254,3.604,1.881,5.607,1.881c2.684,0,4.025-0.879,4.025-2.637c0-0.75-0.293-1.368-0.879-1.854
		s-1.775-1.063-3.568-1.731c-2.156-0.867-3.557-1.726-4.201-2.575s-0.967-1.878-0.967-3.085c0-1.723,0.729-3.103,2.188-4.14
		s3.255-1.556,5.388-1.556c1.652,0,3.188,0.287,4.605,0.861v3.322c-1.453-0.938-3.1-1.406-4.939-1.406
		c-1.102,0-1.998,0.24-2.689,0.721s-1.037,1.113-1.037,1.898c0,0.773,0.249,1.377,0.747,1.811s1.603,0.99,3.313,1.67
		c2.168,0.809,3.633,1.646,4.395,2.514s1.143,1.939,1.143,3.217c0,1.781-0.729,3.185-2.188,4.21s-3.349,1.538-5.669,1.538
		c-2.016,0-3.773-0.381-5.273-1.143V487.834z"/>
	<path d="M239.514,489.293v11.689h-3.445v-28.389h3.445v3.357h0.07c1.523-2.543,3.75-3.814,6.68-3.814
		c2.484,0,4.433,0.87,5.845,2.61s2.118,4.075,2.118,7.005c0,3.234-0.8,5.833-2.399,7.796s-3.753,2.944-6.46,2.944
		c-2.496,0-4.424-1.066-5.783-3.199H239.514z M239.497,484.02c0,1.582,0.51,2.915,1.529,3.999s2.297,1.626,3.832,1.626
		c1.828,0,3.258-0.703,4.289-2.109s1.547-3.352,1.547-5.836c0-2.098-0.48-3.741-1.441-4.931s-2.273-1.784-3.938-1.784
		c-1.699,0-3.094,0.604-4.184,1.811s-1.635,2.754-1.635,4.641V484.02z"/>
	<path d="M257.76,482.525c0-3.211,0.896-5.745,2.689-7.603s4.225-2.786,7.295-2.786c2.918,0,5.206,0.894,6.864,2.681
		s2.487,4.257,2.487,7.409c0,3.07-0.885,5.549-2.654,7.436s-4.143,2.83-7.119,2.83c-2.906,0-5.227-0.914-6.961-2.742
		S257.76,485.514,257.76,482.525z M261.276,482.42c0,2.238,0.565,4.002,1.696,5.291s2.651,1.934,4.562,1.934
		c1.969,0,3.469-0.63,4.5-1.89s1.547-3.067,1.547-5.423c0-2.367-0.516-4.184-1.547-5.449s-2.531-1.898-4.5-1.898
		c-1.934,0-3.46,0.662-4.579,1.986S261.276,480.111,261.276,482.42z"/>
	<path d="M292.372,476.004c-0.574-0.41-1.365-0.615-2.373-0.615c-1.336,0-2.438,0.624-3.305,1.872s-1.301,2.892-1.301,4.931v9.844
		h-3.445v-19.441h3.445v3.955h0.07c0.984-2.859,2.684-4.289,5.098-4.289c0.785,0,1.389,0.088,1.811,0.264V476.004z"/>
	<path d="M306.153,491.842c-0.75,0.41-1.764,0.615-3.041,0.615c-3.48,0-5.221-1.928-5.221-5.783v-11.232h-3.34v-2.848h3.34v-4.676
		l3.428-1.09v5.766h4.834v2.848h-4.834v10.617c0,1.277,0.217,2.191,0.65,2.742s1.154,0.826,2.162,0.826
		c0.773,0,1.447-0.217,2.021-0.65V491.842z"/>
	<path d="M310.512,490.189c0-0.633,0.223-1.163,0.668-1.591s0.979-0.642,1.6-0.642c0.609,0,1.137,0.223,1.582,0.668
		s0.668,0.967,0.668,1.564c0,0.586-0.217,1.099-0.65,1.538s-0.938,0.659-1.512,0.659c-0.703,0-1.271-0.22-1.705-0.659
		S310.512,490.775,310.512,490.189z M314.538,464.807l-0.404,19.477h-2.813l-0.387-19.477H314.538z"/>
</g>
<g>
	<rect x="491.891" y="461.168" fill="none" width="251.102" height="95.744"/>
	<path d="M516.165,467.777h-2.619v21.287h2.619v2.971h-8.754v-2.971h2.619v-21.287h-2.619v-2.971h8.754V467.777z"/>
	<path d="M540.159,491.842c-0.75,0.41-1.764,0.615-3.041,0.615c-3.48,0-5.221-1.928-5.221-5.783v-11.232h-3.34v-2.848h3.34v-4.676
		l3.428-1.09v5.766h4.834v2.848h-4.834v10.617c0,1.277,0.217,2.191,0.65,2.742s1.154,0.826,2.162,0.826
		c0.773,0,1.447-0.217,2.021-0.65V491.842z"/>
	<path d="M560.655,492.035h-3.428v-11.18c0-3.914-1.453-5.871-4.359-5.871c-1.488,0-2.725,0.571-3.709,1.714
		s-1.477,2.581-1.477,4.315v11.021h-3.445V463.26h3.445v12.533h0.07c1.488-2.438,3.604-3.656,6.346-3.656
		c4.371,0,6.557,2.643,6.557,7.928V492.035z"/>
	<path d="M565.981,465.738c0-0.609,0.208-1.122,0.624-1.538s0.929-0.624,1.538-0.624c0.621,0,1.146,0.205,1.573,0.615
		s0.642,0.926,0.642,1.547c0,0.609-0.214,1.116-0.642,1.521s-0.952,0.606-1.573,0.606s-1.137-0.202-1.547-0.606
		S565.981,466.348,565.981,465.738z M566.386,492.035v-19.441h3.445v19.441H566.386z"/>
	<path d="M592.419,492.035h-3.428v-11.057c0-3.996-1.459-5.994-4.377-5.994c-1.512,0-2.754,0.563-3.727,1.688
		s-1.459,2.549-1.459,4.271v11.092h-3.445v-19.441h3.445v3.217h0.07c1.465-2.449,3.592-3.674,6.381-3.674
		c2.133,0,3.756,0.683,4.869,2.048s1.67,3.354,1.67,5.968V492.035z"/>
	<path d="M614.69,492.035h-4.693l-8.314-9.369h-0.07v9.369h-3.445V463.26h3.445v18.246h0.07l7.893-8.912h4.43l-8.789,9.352
		L614.69,492.035z"/>
	<path d="M634.993,467.777h-2.619v21.287h2.619v2.971h-8.754v-2.971h2.619v-21.287h-2.619v-2.971h8.754V467.777z"/>
	<path d="M663.083,491.156c-1.488,0.891-3.281,1.336-5.379,1.336c-2.813,0-5.074-0.902-6.785-2.707s-2.566-4.143-2.566-7.014
		c0-3.188,0.923-5.757,2.769-7.708s4.315-2.927,7.409-2.927c1.781,0,3.305,0.316,4.57,0.949v3.41
		c-1.371-1.008-2.895-1.512-4.57-1.512c-1.969,0-3.571,0.683-4.808,2.048s-1.854,3.185-1.854,5.458c0,2.238,0.583,3.99,1.749,5.256
		s2.739,1.898,4.72,1.898c1.676,0,3.258-0.551,4.746-1.652V491.156z"/>
	<path d="M668.163,473.947c1.934-1.207,4.166-1.811,6.697-1.811c4.688,0,7.031,2.461,7.031,7.383v12.516h-3.41v-3.006h-0.088
		c-1.348,2.309-3.334,3.463-5.959,3.463c-1.887,0-3.387-0.51-4.5-1.529s-1.67-2.396-1.67-4.131c0-3.633,2.15-5.748,6.451-6.346
		l5.766-0.809c0-3.176-1.313-4.764-3.938-4.764c-2.332,0-4.459,0.785-6.381,2.355V473.947z M673.929,482.895
		c-1.594,0.211-2.692,0.609-3.296,1.195s-0.905,1.406-0.905,2.461c0,0.926,0.328,1.682,0.984,2.268s1.523,0.879,2.602,0.879
		c1.5,0,2.736-0.527,3.709-1.582s1.459-2.379,1.459-3.973v-1.863L673.929,482.895z"/>
	<path d="M704.04,492.035h-3.428v-11.057c0-3.996-1.459-5.994-4.377-5.994c-1.512,0-2.754,0.563-3.727,1.688
		s-1.459,2.549-1.459,4.271v11.092h-3.445v-19.441h3.445v3.217h0.07c1.465-2.449,3.592-3.674,6.381-3.674
		c2.133,0,3.756,0.683,4.869,2.048s1.67,3.354,1.67,5.968V492.035z"/>
	<path d="M713.972,464.332l-2.777,8.473h-2.391l2.057-8.473H713.972z"/>
	<path d="M727.366,491.842c-0.75,0.41-1.764,0.615-3.041,0.615c-3.48,0-5.221-1.928-5.221-5.783v-11.232h-3.34v-2.848h3.34v-4.676
		l3.428-1.09v5.766h4.834v2.848h-4.834v10.617c0,1.277,0.217,2.191,0.65,2.742s1.154,0.826,2.162,0.826
		c0.773,0,1.447-0.217,2.021-0.65V491.842z"/>
	<path d="M579.613,535.235h-3.445v-11.162c0-2.109-0.328-3.618-0.984-4.526s-1.734-1.362-3.234-1.362
		c-1.266,0-2.35,0.592-3.252,1.775s-1.354,2.584-1.354,4.201v11.074h-3.445v-11.514c0-3.691-1.424-5.537-4.271-5.537
		c-1.313,0-2.399,0.563-3.261,1.688s-1.292,2.561-1.292,4.307v11.057h-3.445v-19.441h3.445v3.076h0.07
		c1.383-2.355,3.404-3.533,6.064-3.533c1.301,0,2.449,0.357,3.445,1.072s1.688,1.682,2.074,2.9c1.441-2.648,3.598-3.973,6.469-3.973
		c4.277,0,6.416,2.637,6.416,7.91V535.235z"/>
	<path d="M585.818,517.147c1.934-1.207,4.166-1.811,6.697-1.811c4.688,0,7.031,2.461,7.031,7.383v12.516h-3.41v-3.006h-0.088
		c-1.348,2.309-3.334,3.463-5.959,3.463c-1.887,0-3.387-0.51-4.5-1.529s-1.67-2.396-1.67-4.131c0-3.633,2.15-5.748,6.451-6.346
		l5.766-0.809c0-3.176-1.313-4.764-3.938-4.764c-2.332,0-4.459,0.785-6.381,2.355V517.147z M591.584,526.095
		c-1.594,0.211-2.692,0.609-3.296,1.195s-0.905,1.406-0.905,2.461c0,0.926,0.328,1.682,0.984,2.268s1.523,0.879,2.602,0.879
		c1.5,0,2.736-0.527,3.709-1.582s1.459-2.379,1.459-3.973v-1.863L591.584,526.095z"/>
	<path d="M621.783,535.235h-4.693l-8.314-9.369h-0.07v9.369h-3.445V506.46h3.445v18.246h0.07l7.893-8.912h4.43l-8.789,9.352
		L621.783,535.235z"/>
	<path d="M639.924,526.394h-13.605c0.059,2.074,0.627,3.677,1.705,4.808s2.584,1.696,4.518,1.696c2.18,0,4.178-0.697,5.994-2.092
		v3.076c-1.711,1.207-3.979,1.811-6.803,1.811c-2.813,0-5.007-0.891-6.583-2.672s-2.364-4.254-2.364-7.418
		c0-2.977,0.864-5.432,2.593-7.365s3.876-2.9,6.442-2.9c2.543,0,4.529,0.817,5.959,2.452s2.145,3.923,2.145,6.864V526.394z
		 M636.479,523.634c-0.012-1.758-0.428-3.117-1.248-4.078s-1.975-1.441-3.463-1.441c-1.371,0-2.558,0.51-3.56,1.529
		s-1.632,2.35-1.89,3.99H636.479z"/>
	<path d="M654.742,508.938c0-0.609,0.208-1.122,0.624-1.538s0.929-0.624,1.538-0.624c0.621,0,1.146,0.205,1.573,0.615
		s0.642,0.926,0.642,1.547c0,0.609-0.214,1.116-0.642,1.521s-0.952,0.606-1.573,0.606s-1.137-0.202-1.547-0.606
		S654.742,509.548,654.742,508.938z M655.146,535.235v-19.441h3.445v19.441H655.146z"/>
	<path d="M674.078,535.042c-0.75,0.41-1.764,0.615-3.041,0.615c-3.48,0-5.221-1.928-5.221-5.783v-11.232h-3.34v-2.848h3.34v-4.676
		l3.428-1.09v5.766h4.834v2.848h-4.834v10.617c0,1.277,0.217,2.191,0.65,2.742s1.154,0.826,2.162,0.826
		c0.773,0,1.447-0.217,2.021-0.65V535.042z"/>
	<path d="M678.438,533.39c0-0.633,0.223-1.163,0.668-1.591s0.979-0.642,1.6-0.642c0.609,0,1.137,0.223,1.582,0.668
		s0.668,0.967,0.668,1.564c0,0.586-0.217,1.099-0.65,1.538s-0.938,0.659-1.512,0.659c-0.703,0-1.271-0.22-1.705-0.659
		S678.438,533.976,678.438,533.39z M682.463,508.007l-0.404,19.477h-2.813l-0.387-19.477H682.463z"/>
</g>
<g>
</g>
<g>
</g>
<g>
</g>
<g>
</g>
<g>
</g>
<g>
</g>
</svg>
