<?xml version="1.0" encoding="utf-8"?>
<!-- Generator: Adobe Illustrator 16.2.0, SVG Export Plug-In . SVG Version: 6.00 Build 0)  -->
<!DOCTYPE svg PUBLIC "-//W3C//DTD SVG 1.1//EN" "http://www.w3.org/Graphics/SVG/1.1/DTD/svg11.dtd">
<svg version="1.1" id="图层_1" xmlns="http://www.w3.org/2000/svg" xmlns:xlink="http://www.w3.org/1999/xlink" x="0px" y="0px"
	 width="800px" height="640px" viewBox="0 0 800 640" enable-background="new 0 0 800 640" xml:space="preserve">
<g>
	<rect x="77.65" y="58.987" fill="none" width="198.555" height="43.08"/>
	<path d="M113.826,62.626l-7.629,27.229h-4.096l-5.484-19.617c-0.246-0.891-0.393-1.828-0.439-2.813h-0.07
		c-0.07,0.973-0.234,1.898-0.492,2.777l-5.537,19.652h-4.061l-7.893-27.229h3.885l5.555,20.566c0.246,0.926,0.393,1.857,0.439,2.795
		h0.105c0.059-0.703,0.252-1.635,0.58-2.795l5.889-20.566h3.463l5.625,20.725c0.188,0.68,0.34,1.547,0.457,2.602h0.07
		c0.059-0.762,0.229-1.652,0.51-2.672l5.344-20.654H113.826z"/>
	<path d="M132.265,81.013H118.66c0.059,2.074,0.627,3.677,1.705,4.808s2.584,1.696,4.518,1.696c2.18,0,4.178-0.697,5.994-2.092
		v3.076c-1.711,1.207-3.979,1.811-6.803,1.811c-2.813,0-5.007-0.891-6.583-2.672s-2.364-4.254-2.364-7.418
		c0-2.977,0.864-5.432,2.593-7.365s3.876-2.9,6.442-2.9c2.543,0,4.529,0.817,5.959,2.452s2.145,3.923,2.145,6.864V81.013z
		 M128.82,78.253c-0.012-1.758-0.428-3.117-1.248-4.078s-1.975-1.441-3.463-1.441c-1.371,0-2.558,0.51-3.56,1.529
		s-1.632,2.35-1.89,3.99H128.82z"/>
	<path d="M136.835,89.854V61.079h3.445v28.775H136.835z"/>
	<path d="M146.416,89.854V61.079h3.445v28.775H146.416z"/>
	<path d="M183.541,89.854h-3.445V86.62h-0.07c-1.418,2.461-3.621,3.691-6.609,3.691c-2.461,0-4.418-0.876-5.871-2.628
		s-2.18-4.116-2.18-7.093c0-3.211,0.82-5.786,2.461-7.726s3.785-2.909,6.434-2.909s4.57,1.031,5.766,3.094h0.07V61.079h3.445V89.854
		z M180.113,78.288c0-1.559-0.513-2.862-1.538-3.911s-2.288-1.573-3.788-1.573c-1.828,0-3.27,0.683-4.324,2.048
		s-1.582,3.226-1.582,5.581c0,2.168,0.507,3.882,1.521,5.142s2.364,1.89,4.052,1.89c1.664,0,3.023-0.618,4.078-1.854
		s1.582-2.774,1.582-4.614V78.288z"/>
	<path d="M188.392,80.345c0-3.211,0.896-5.745,2.689-7.603s4.225-2.786,7.295-2.786c2.918,0,5.206,0.894,6.864,2.681
		s2.487,4.257,2.487,7.409c0,3.07-0.885,5.549-2.654,7.436s-4.143,2.83-7.119,2.83c-2.906,0-5.227-0.914-6.961-2.742
		S188.392,83.333,188.392,80.345z M191.908,80.239c0,2.238,0.565,4.002,1.696,5.291s2.651,1.934,4.562,1.934
		c1.969,0,3.469-0.63,4.5-1.89s1.547-3.067,1.547-5.423c0-2.367-0.516-4.184-1.547-5.449s-2.531-1.898-4.5-1.898
		c-1.934,0-3.46,0.662-4.579,1.986S191.908,77.931,191.908,80.239z"/>
	<path d="M229.015,89.854h-3.428V78.798c0-3.996-1.459-5.994-4.377-5.994c-1.512,0-2.754,0.563-3.727,1.688
		s-1.459,2.549-1.459,4.271v11.092h-3.445V70.413h3.445v3.217h0.07c1.465-2.449,3.592-3.674,6.381-3.674
		c2.133,0,3.756,0.683,4.869,2.048s1.67,3.354,1.67,5.968V89.854z"/>
	<path d="M250.601,81.013h-13.605c0.059,2.074,0.627,3.677,1.705,4.808s2.584,1.696,4.518,1.696c2.18,0,4.178-0.697,5.994-2.092
		v3.076c-1.711,1.207-3.979,1.811-6.803,1.811c-2.813,0-5.007-0.891-6.583-2.672s-2.364-4.254-2.364-7.418
		c0-2.977,0.864-5.432,2.593-7.365s3.876-2.9,6.442-2.9c2.543,0,4.529,0.817,5.959,2.452s2.145,3.923,2.145,6.864V81.013z
		 M247.156,78.253c-0.012-1.758-0.428-3.117-1.248-4.078s-1.975-1.441-3.463-1.441c-1.371,0-2.558,0.51-3.56,1.529
		s-1.632,2.35-1.89,3.99H247.156z"/>
	<path d="M255.47,88.009c0-0.633,0.223-1.163,0.668-1.591s0.979-0.642,1.6-0.642c0.609,0,1.137,0.223,1.582,0.668
		s0.668,0.967,0.668,1.564c0,0.586-0.217,1.099-0.65,1.538s-0.938,0.659-1.512,0.659c-0.703,0-1.271-0.22-1.705-0.659
		S255.47,88.595,255.47,88.009z M259.496,62.626l-0.404,19.477h-2.813l-0.387-19.477H259.496z"/>
</g>
<g>
	<rect x="550.321" y="60.396" fill="none" width="122.956" height="40.263"/>
	<path d="M567.864,67.164h-10.512v9.105h9.738v3.094h-9.738v11.9h-3.516V64.035h14.027V67.164z"/>
	<path d="M571.538,73.175c1.934-1.207,4.166-1.811,6.697-1.811c4.688,0,7.031,2.461,7.031,7.383v12.516h-3.41v-3.006h-0.088
		c-1.348,2.309-3.334,3.463-5.959,3.463c-1.887,0-3.387-0.51-4.5-1.529s-1.67-2.396-1.67-4.131c0-3.633,2.15-5.748,6.451-6.346
		l5.766-0.809c0-3.176-1.313-4.764-3.938-4.764c-2.332,0-4.459,0.785-6.381,2.355V73.175z M577.304,82.123
		c-1.594,0.211-2.692,0.609-3.296,1.195s-0.905,1.406-0.905,2.461c0,0.926,0.328,1.682,0.984,2.268s1.523,0.879,2.602,0.879
		c1.5,0,2.736-0.527,3.709-1.582s1.459-2.379,1.459-3.973v-1.863L577.304,82.123z"/>
	<path d="M590.558,64.966c0-0.609,0.208-1.122,0.624-1.538s0.929-0.624,1.538-0.624c0.621,0,1.146,0.205,1.573,0.615
		s0.642,0.926,0.642,1.547c0,0.609-0.214,1.116-0.642,1.521s-0.952,0.606-1.573,0.606s-1.137-0.202-1.547-0.606
		S590.558,65.576,590.558,64.966z M590.962,91.263V71.822h3.445v19.441H590.962z"/>
	<path d="M600.542,91.263V62.488h3.445v28.775H600.542z"/>
	<path d="M625.978,82.421h-13.605c0.059,2.074,0.627,3.677,1.705,4.808s2.584,1.696,4.518,1.696c2.18,0,4.178-0.697,5.994-2.092
		v3.076c-1.711,1.207-3.979,1.811-6.803,1.811c-2.813,0-5.007-0.891-6.583-2.672s-2.364-4.254-2.364-7.418
		c0-2.977,0.864-5.432,2.593-7.365s3.876-2.9,6.442-2.9c2.543,0,4.529,0.817,5.959,2.452s2.145,3.923,2.145,6.864V82.421z
		 M622.532,79.662c-0.012-1.758-0.428-3.117-1.248-4.078s-1.975-1.441-3.463-1.441c-1.371,0-2.558,0.51-3.56,1.529
		s-1.632,2.35-1.89,3.99H622.532z"/>
	<path d="M647.44,91.263h-3.445v-3.234h-0.07c-1.418,2.461-3.621,3.691-6.609,3.691c-2.461,0-4.418-0.876-5.871-2.628
		s-2.18-4.116-2.18-7.093c0-3.211,0.82-5.786,2.461-7.726s3.785-2.909,6.434-2.909s4.57,1.031,5.766,3.094h0.07V62.488h3.445V91.263
		z M644.013,79.697c0-1.559-0.513-2.862-1.538-3.911s-2.288-1.573-3.788-1.573c-1.828,0-3.27,0.683-4.324,2.048
		s-1.582,3.226-1.582,5.581c0,2.168,0.507,3.882,1.521,5.142s2.364,1.89,4.052,1.89c1.664,0,3.023-0.618,4.078-1.854
		s1.582-2.774,1.582-4.614V79.697z"/>
	<path d="M653.874,89.417c0-0.633,0.223-1.163,0.668-1.591s0.979-0.642,1.6-0.642c0.609,0,1.137,0.223,1.582,0.668
		s0.668,0.967,0.668,1.564c0,0.586-0.217,1.099-0.65,1.538s-0.938,0.659-1.512,0.659c-0.703,0-1.271-0.22-1.705-0.659
		S653.874,90.003,653.874,89.417z M657.899,64.035l-0.404,19.477h-2.813l-0.387-19.477H657.899z"/>
</g>
<g>
	<g>
		<path fill="#22AC38" d="M154.079,112.454c-5.084,34.116-10.215,68.281-10.308,102.854c-0.009,3.225,4.991,3.224,5,0
			c0.092-34.13,5.11-67.845,10.129-101.525C159.37,110.63,154.553,109.273,154.079,112.454L154.079,112.454z"/>
	</g>
</g>
<g>
	<g>
		<path fill="#22AC38" d="M131.703,202.701c3.396,7.097,7.133,27.481,18.217,26.786c5.371-0.337,9.879-4.095,13.898-7.334
			c5.147-4.147,9.652-9.06,14.877-13.106c2.546-1.972-1.02-5.483-3.535-3.535c-7.678,5.946-14.305,15.354-23.69,18.683
			c-8.048,2.854-13.088-19.083-15.449-24.017C134.629,197.27,130.319,199.807,131.703,202.701L131.703,202.701z"/>
	</g>
</g>
<g>
	<g>
		<path fill="#E60012" d="M593.494,120.352c2.993,7.108,2.783,14.567,2.396,22.126c-0.396,7.746-0.334,15.5-0.796,23.246
			c-1.038,17.407-3.935,34.645-6.71,51.839c-0.509,3.153,4.31,4.507,4.822,1.33c2.747-17.025,5.496-34.058,6.762-51.271
			c0.615-8.375,0.479-16.765,0.922-25.145c0.422-7.964,0.574-15.977-2.574-23.455C597.085,116.098,592.244,117.382,593.494,120.352
			L593.494,120.352z"/>
	</g>
</g>
<g>
	<g>
		<path fill="#E60012" d="M582.068,209.27c2.907,6.733,5.1,13.746,7.776,20.571c0.53,1.35,1.624,2.021,3.076,1.746
			c15.771-2.99,26.682-17.99,36.869-29.11c2.174-2.372-1.353-5.917-3.535-3.535c-9.58,10.456-19.853,25.016-34.664,27.823
			c1.025,0.582,2.051,1.164,3.076,1.746c-2.837-7.229-5.201-14.631-8.282-21.765C585.11,203.793,580.804,206.342,582.068,209.27
			L582.068,209.27z"/>
	</g>
</g>
<g>
	<rect x="59.395" y="248.819" fill="none" width="300.014" height="53.409"/>
	<path d="M69.045,255.428h-2.619v21.287h2.619v2.971h-8.754v-2.971h2.619v-21.287h-2.619v-2.971h8.754V255.428z"/>
	<path d="M83.688,279.686v-28.775h3.445v28.775H83.688z"/>
	<path d="M92.864,253.389c0-0.609,0.208-1.122,0.624-1.538s0.929-0.624,1.538-0.624c0.621,0,1.146,0.205,1.573,0.615
		s0.642,0.926,0.642,1.547c0,0.609-0.214,1.116-0.642,1.521s-0.952,0.606-1.573,0.606s-1.137-0.202-1.547-0.606
		S92.864,253.999,92.864,253.389z M93.268,279.686v-19.441h3.445v19.441H93.268z"/>
	<path d="M119.389,279.686h-4.693l-8.314-9.369h-0.07v9.369h-3.445v-28.775h3.445v18.246h0.07l7.893-8.912h4.43l-8.789,9.352
		L119.389,279.686z"/>
	<path d="M137.53,270.844h-13.605c0.059,2.074,0.627,3.677,1.705,4.808s2.584,1.696,4.518,1.696c2.18,0,4.178-0.697,5.994-2.092
		v3.076c-1.711,1.207-3.979,1.811-6.803,1.811c-2.813,0-5.007-0.891-6.583-2.672s-2.364-4.254-2.364-7.418
		c0-2.977,0.864-5.432,2.593-7.365s3.876-2.9,6.442-2.9c2.543,0,4.529,0.817,5.959,2.452s2.145,3.923,2.145,6.864V270.844z
		 M134.084,268.084c-0.012-1.758-0.428-3.117-1.248-4.078s-1.975-1.441-3.463-1.441c-1.371,0-2.558,0.51-3.56,1.529
		s-1.632,2.35-1.89,3.99H134.084z"/>
	<path d="M162.104,279.493c-0.75,0.41-1.764,0.615-3.041,0.615c-3.48,0-5.221-1.928-5.221-5.783v-11.232h-3.34v-2.848h3.34v-4.676
		l3.428-1.09v5.766h4.834v2.848h-4.834v10.617c0,1.277,0.217,2.191,0.65,2.742s1.154,0.826,2.162,0.826
		c0.773,0,1.447-0.217,2.021-0.65V279.493z"/>
	<path d="M182.6,279.686h-3.428v-11.18c0-3.914-1.453-5.871-4.359-5.871c-1.488,0-2.725,0.571-3.709,1.714s-1.477,2.581-1.477,4.315
		v11.021h-3.445v-28.775h3.445v12.533h0.07c1.488-2.438,3.604-3.656,6.346-3.656c4.371,0,6.557,2.643,6.557,7.928V279.686z"/>
	<path d="M187.926,253.389c0-0.609,0.208-1.122,0.624-1.538s0.929-0.624,1.538-0.624c0.621,0,1.146,0.205,1.573,0.615
		s0.642,0.926,0.642,1.547c0,0.609-0.214,1.116-0.642,1.521s-0.952,0.606-1.573,0.606s-1.137-0.202-1.547-0.606
		S187.926,253.999,187.926,253.389z M188.331,279.686v-19.441h3.445v19.441H188.331z"/>
	<path d="M196.838,275.485c1.734,1.254,3.604,1.881,5.607,1.881c2.684,0,4.025-0.879,4.025-2.637c0-0.75-0.293-1.368-0.879-1.854
		s-1.775-1.063-3.568-1.731c-2.156-0.867-3.557-1.726-4.201-2.575s-0.967-1.878-0.967-3.085c0-1.723,0.729-3.103,2.188-4.14
		s3.255-1.556,5.388-1.556c1.652,0,3.188,0.287,4.605,0.861v3.322c-1.453-0.938-3.1-1.406-4.939-1.406
		c-1.102,0-1.998,0.24-2.689,0.721s-1.037,1.113-1.037,1.898c0,0.773,0.249,1.377,0.747,1.811s1.603,0.99,3.313,1.67
		c2.168,0.809,3.633,1.646,4.395,2.514s1.143,1.939,1.143,3.217c0,1.781-0.729,3.185-2.188,4.21s-3.349,1.538-5.669,1.538
		c-2.016,0-3.773-0.381-5.273-1.143V275.485z"/>
	<path d="M224.155,275.485c1.734,1.254,3.604,1.881,5.607,1.881c2.684,0,4.025-0.879,4.025-2.637c0-0.75-0.293-1.368-0.879-1.854
		s-1.775-1.063-3.568-1.731c-2.156-0.867-3.557-1.726-4.201-2.575s-0.967-1.878-0.967-3.085c0-1.723,0.729-3.103,2.188-4.14
		s3.255-1.556,5.388-1.556c1.652,0,3.188,0.287,4.605,0.861v3.322c-1.453-0.938-3.1-1.406-4.939-1.406
		c-1.102,0-1.998,0.24-2.689,0.721s-1.037,1.113-1.037,1.898c0,0.773,0.249,1.377,0.747,1.811s1.603,0.99,3.313,1.67
		c2.168,0.809,3.633,1.646,4.395,2.514s1.143,1.939,1.143,3.217c0,1.781-0.729,3.185-2.188,4.21s-3.349,1.538-5.669,1.538
		c-2.016,0-3.773-0.381-5.273-1.143V275.485z"/>
	<path d="M245.354,276.944v11.689h-3.445v-28.389h3.445v3.357h0.07c1.523-2.543,3.75-3.814,6.68-3.814
		c2.484,0,4.433,0.87,5.845,2.61s2.118,4.075,2.118,7.005c0,3.234-0.8,5.833-2.399,7.796s-3.753,2.944-6.46,2.944
		c-2.496,0-4.424-1.066-5.783-3.199H245.354z M245.336,271.67c0,1.582,0.51,2.915,1.529,3.999s2.297,1.626,3.832,1.626
		c1.828,0,3.258-0.703,4.289-2.109s1.547-3.352,1.547-5.836c0-2.098-0.48-3.741-1.441-4.931s-2.273-1.784-3.938-1.784
		c-1.699,0-3.094,0.604-4.184,1.811s-1.635,2.754-1.635,4.641V271.67z"/>
	<path d="M263.6,270.176c0-3.211,0.896-5.745,2.689-7.603s4.225-2.786,7.295-2.786c2.918,0,5.206,0.894,6.864,2.681
		s2.487,4.257,2.487,7.409c0,3.07-0.885,5.549-2.654,7.436s-4.143,2.83-7.119,2.83c-2.906,0-5.227-0.914-6.961-2.742
		S263.6,273.165,263.6,270.176z M267.116,270.071c0,2.238,0.565,4.002,1.696,5.291s2.651,1.934,4.562,1.934
		c1.969,0,3.469-0.63,4.5-1.89s1.547-3.067,1.547-5.423c0-2.367-0.516-4.184-1.547-5.449s-2.531-1.898-4.5-1.898
		c-1.934,0-3.46,0.662-4.579,1.986S267.116,267.762,267.116,270.071z"/>
	<path d="M298.211,263.655c-0.574-0.41-1.365-0.615-2.373-0.615c-1.336,0-2.438,0.624-3.305,1.872s-1.301,2.892-1.301,4.931v9.844
		h-3.445v-19.441h3.445v3.955h0.07c0.984-2.859,2.684-4.289,5.098-4.289c0.785,0,1.389,0.088,1.811,0.264V263.655z"/>
	<path d="M311.993,279.493c-0.75,0.41-1.764,0.615-3.041,0.615c-3.48,0-5.221-1.928-5.221-5.783v-11.232h-3.34v-2.848h3.34v-4.676
		l3.428-1.09v5.766h4.834v2.848h-4.834v10.617c0,1.277,0.217,2.191,0.65,2.742s1.154,0.826,2.162,0.826
		c0.773,0,1.447-0.217,2.021-0.65V279.493z"/>
	<path d="M316.352,277.84c0-0.633,0.223-1.163,0.668-1.591s0.979-0.642,1.6-0.642c0.609,0,1.137,0.223,1.582,0.668
		s0.668,0.967,0.668,1.564c0,0.586-0.217,1.099-0.65,1.538s-0.938,0.659-1.512,0.659c-0.703,0-1.271-0.22-1.705-0.659
		S316.352,278.426,316.352,277.84z M320.377,252.458l-0.404,19.477h-2.813l-0.387-19.477H320.377z"/>
</g>
<g>
	<rect x="492.255" y="238.984" fill="none" width="251.102" height="95.744"/>
	<path d="M516.529,245.593h-2.619v21.287h2.619v2.971h-8.754v-2.971h2.619v-21.287h-2.619v-2.971h8.754V245.593z"/>
	<path d="M540.523,269.658c-0.75,0.41-1.764,0.615-3.041,0.615c-3.48,0-5.221-1.928-5.221-5.783v-11.232h-3.34v-2.848h3.34v-4.676
		l3.428-1.09v5.766h4.834v2.848h-4.834v10.617c0,1.277,0.217,2.191,0.65,2.742s1.154,0.826,2.162,0.826
		c0.773,0,1.447-0.217,2.021-0.65V269.658z"/>
	<path d="M561.02,269.851h-3.428v-11.18c0-3.914-1.453-5.871-4.359-5.871c-1.488,0-2.725,0.571-3.709,1.714
		s-1.477,2.581-1.477,4.315v11.021h-3.445v-28.775h3.445v12.533h0.07c1.488-2.438,3.604-3.656,6.346-3.656
		c4.371,0,6.557,2.643,6.557,7.928V269.851z"/>
	<path d="M566.346,243.554c0-0.609,0.208-1.122,0.624-1.538s0.929-0.624,1.538-0.624c0.621,0,1.146,0.205,1.573,0.615
		s0.642,0.926,0.642,1.547c0,0.609-0.214,1.116-0.642,1.521s-0.952,0.606-1.573,0.606s-1.137-0.202-1.547-0.606
		S566.346,244.164,566.346,243.554z M566.75,269.851V250.41h3.445v19.441H566.75z"/>
	<path d="M592.783,269.851h-3.428v-11.057c0-3.996-1.459-5.994-4.377-5.994c-1.512,0-2.754,0.563-3.727,1.688
		s-1.459,2.549-1.459,4.271v11.092h-3.445V250.41h3.445v3.217h0.07c1.465-2.449,3.592-3.674,6.381-3.674
		c2.133,0,3.756,0.683,4.869,2.048s1.67,3.354,1.67,5.968V269.851z"/>
	<path d="M615.055,269.851h-4.693l-8.314-9.369h-0.07v9.369h-3.445v-28.775h3.445v18.246h0.07l7.893-8.912h4.43l-8.789,9.352
		L615.055,269.851z"/>
	<path d="M635.357,245.593h-2.619v21.287h2.619v2.971h-8.754v-2.971h2.619v-21.287h-2.619v-2.971h8.754V245.593z"/>
	<path d="M663.447,268.972c-1.488,0.891-3.281,1.336-5.379,1.336c-2.813,0-5.074-0.902-6.785-2.707s-2.566-4.143-2.566-7.014
		c0-3.188,0.923-5.757,2.769-7.708s4.315-2.927,7.409-2.927c1.781,0,3.305,0.316,4.57,0.949v3.41
		c-1.371-1.008-2.895-1.512-4.57-1.512c-1.969,0-3.571,0.683-4.808,2.048s-1.854,3.185-1.854,5.458c0,2.238,0.583,3.99,1.749,5.256
		s2.739,1.898,4.72,1.898c1.676,0,3.258-0.551,4.746-1.652V268.972z"/>
	<path d="M668.527,251.763c1.934-1.207,4.166-1.811,6.697-1.811c4.688,0,7.031,2.461,7.031,7.383v12.516h-3.41v-3.006h-0.088
		c-1.348,2.309-3.334,3.463-5.959,3.463c-1.887,0-3.387-0.51-4.5-1.529s-1.67-2.396-1.67-4.131c0-3.633,2.15-5.748,6.451-6.346
		l5.766-0.809c0-3.176-1.313-4.764-3.938-4.764c-2.332,0-4.459,0.785-6.381,2.355V251.763z M674.293,260.71
		c-1.594,0.211-2.692,0.609-3.296,1.195s-0.905,1.406-0.905,2.461c0,0.926,0.328,1.682,0.984,2.268s1.523,0.879,2.602,0.879
		c1.5,0,2.736-0.527,3.709-1.582s1.459-2.379,1.459-3.973v-1.863L674.293,260.71z"/>
	<path d="M704.404,269.851h-3.428v-11.057c0-3.996-1.459-5.994-4.377-5.994c-1.512,0-2.754,0.563-3.727,1.688
		s-1.459,2.549-1.459,4.271v11.092h-3.445V250.41h3.445v3.217h0.07c1.465-2.449,3.592-3.674,6.381-3.674
		c2.133,0,3.756,0.683,4.869,2.048s1.67,3.354,1.67,5.968V269.851z"/>
	<path d="M714.336,242.148l-2.777,8.473h-2.391l2.057-8.473H714.336z"/>
	<path d="M727.73,269.658c-0.75,0.41-1.764,0.615-3.041,0.615c-3.48,0-5.221-1.928-5.221-5.783v-11.232h-3.34v-2.848h3.34v-4.676
		l3.428-1.09v5.766h4.834v2.848h-4.834v10.617c0,1.277,0.217,2.191,0.65,2.742s1.154,0.826,2.162,0.826
		c0.773,0,1.447-0.217,2.021-0.65V269.658z"/>
	<path d="M579.978,313.051h-3.445v-11.162c0-2.109-0.328-3.618-0.984-4.526S573.813,296,572.313,296
		c-1.266,0-2.35,0.592-3.252,1.775s-1.354,2.584-1.354,4.201v11.074h-3.445v-11.514c0-3.691-1.424-5.537-4.271-5.537
		c-1.313,0-2.399,0.563-3.261,1.688s-1.292,2.561-1.292,4.307v11.057h-3.445V293.61h3.445v3.076h0.07
		c1.383-2.355,3.404-3.533,6.064-3.533c1.301,0,2.449,0.357,3.445,1.072s1.688,1.682,2.074,2.9c1.441-2.648,3.598-3.973,6.469-3.973
		c4.277,0,6.416,2.637,6.416,7.91V313.051z"/>
	<path d="M586.183,294.963c1.934-1.207,4.166-1.811,6.697-1.811c4.688,0,7.031,2.461,7.031,7.383v12.516h-3.41v-3.006h-0.088
		c-1.348,2.309-3.334,3.463-5.959,3.463c-1.887,0-3.387-0.51-4.5-1.529s-1.67-2.396-1.67-4.131c0-3.633,2.15-5.748,6.451-6.346
		l5.766-0.809c0-3.176-1.313-4.764-3.938-4.764c-2.332,0-4.459,0.785-6.381,2.355V294.963z M591.948,303.911
		c-1.594,0.211-2.692,0.609-3.296,1.195s-0.905,1.406-0.905,2.461c0,0.926,0.328,1.682,0.984,2.268s1.523,0.879,2.602,0.879
		c1.5,0,2.736-0.527,3.709-1.582s1.459-2.379,1.459-3.973v-1.863L591.948,303.911z"/>
	<path d="M622.147,313.051h-4.693l-8.314-9.369h-0.07v9.369h-3.445v-28.775h3.445v18.246h0.07l7.893-8.912h4.43l-8.789,9.352
		L622.147,313.051z"/>
	<path d="M640.288,304.209h-13.605c0.059,2.074,0.627,3.677,1.705,4.808s2.584,1.696,4.518,1.696c2.18,0,4.178-0.697,5.994-2.092
		v3.076c-1.711,1.207-3.979,1.811-6.803,1.811c-2.813,0-5.007-0.891-6.583-2.672s-2.364-4.254-2.364-7.418
		c0-2.977,0.864-5.432,2.593-7.365s3.876-2.9,6.442-2.9c2.543,0,4.529,0.817,5.959,2.452s2.145,3.923,2.145,6.864V304.209z
		 M636.843,301.45c-0.012-1.758-0.428-3.117-1.248-4.078s-1.975-1.441-3.463-1.441c-1.371,0-2.558,0.51-3.56,1.529
		s-1.632,2.35-1.89,3.99H636.843z"/>
	<path d="M655.106,286.754c0-0.609,0.208-1.122,0.624-1.538s0.929-0.624,1.538-0.624c0.621,0,1.146,0.205,1.573,0.615
		s0.642,0.926,0.642,1.547c0,0.609-0.214,1.116-0.642,1.521s-0.952,0.606-1.573,0.606s-1.137-0.202-1.547-0.606
		S655.106,287.364,655.106,286.754z M655.511,313.051V293.61h3.445v19.441H655.511z"/>
	<path d="M674.442,312.858c-0.75,0.41-1.764,0.615-3.041,0.615c-3.48,0-5.221-1.928-5.221-5.783v-11.232h-3.34v-2.848h3.34v-4.676
		l3.428-1.09v5.766h4.834v2.848h-4.834v10.617c0,1.277,0.217,2.191,0.65,2.742s1.154,0.826,2.162,0.826
		c0.773,0,1.447-0.217,2.021-0.65V312.858z"/>
	<path d="M678.802,311.206c0-0.633,0.223-1.163,0.668-1.591s0.979-0.642,1.6-0.642c0.609,0,1.137,0.223,1.582,0.668
		s0.668,0.967,0.668,1.564c0,0.586-0.217,1.099-0.65,1.538s-0.938,0.659-1.512,0.659c-0.703,0-1.271-0.22-1.705-0.659
		S678.802,311.792,678.802,311.206z M682.827,285.823l-0.404,19.477h-2.813l-0.387-19.477H682.827z"/>
</g>
<g>
	<rect x="53.57" y="374.331" fill="none" width="123.357" height="53.409"/>
	<path d="M55.914,394.909v-18.152h5.332c1.594,0,2.867,0.381,3.82,1.143s1.43,1.771,1.43,3.029c0,1-0.283,1.883-0.85,2.648
		s-1.346,1.309-2.338,1.629v0.047c1.234,0.141,2.221,0.607,2.959,1.4s1.107,1.799,1.107,3.018c0,1.563-0.561,2.826-1.682,3.791
		s-2.557,1.447-4.307,1.447H55.914z M58.258,378.808v5.684h2.133c1.133,0,2.021-0.275,2.666-0.826s0.967-1.314,0.967-2.291
		c0-1.711-1.141-2.566-3.422-2.566H58.258z M58.258,386.53v6.328h2.813c1.227,0,2.174-0.283,2.842-0.85s1.002-1.354,1.002-2.361
		c0-2.078-1.41-3.117-4.23-3.117H58.258z"/>
	<path d="M69.813,388.569c0-2.141,0.598-3.83,1.793-5.068s2.816-1.857,4.863-1.857c1.945,0,3.471,0.596,4.576,1.787
		s1.658,2.838,1.658,4.939c0,2.047-0.59,3.699-1.77,4.957s-2.762,1.887-4.746,1.887c-1.938,0-3.484-0.609-4.641-1.828
		S69.813,390.562,69.813,388.569z M72.156,388.499c0,1.492,0.377,2.668,1.131,3.527s1.768,1.289,3.041,1.289
		c1.313,0,2.313-0.42,3-1.26s1.031-2.045,1.031-3.615c0-1.578-0.344-2.789-1.031-3.633s-1.688-1.266-3-1.266
		c-1.289,0-2.307,0.441-3.053,1.324S72.156,386.96,72.156,388.499z"/>
	<path d="M96.895,394.909h-2.285v-7.371c0-2.664-0.973-3.996-2.918-3.996c-1.008,0-1.836,0.375-2.484,1.125
		s-0.973,1.699-0.973,2.848v7.395h-2.297v-12.961h2.297v2.145h0.047c0.977-1.633,2.395-2.449,4.254-2.449
		c1.422,0,2.504,0.455,3.246,1.365s1.113,2.236,1.113,3.979V394.909z"/>
	<path d="M111.426,394.909h-2.309v-2.039h-0.047c-0.867,1.563-2.199,2.344-3.996,2.344c-3.07,0-4.605-1.836-4.605-5.508v-7.758
		h2.273v7.418c0,2.633,1.008,3.949,3.023,3.949c1,0,1.809-0.369,2.426-1.107s0.926-1.67,0.926-2.795v-7.465h2.309V394.909z"/>
	<path d="M114.789,392.108c1.156,0.836,2.402,1.254,3.738,1.254c1.789,0,2.684-0.586,2.684-1.758c0-0.5-0.195-0.912-0.586-1.236
		s-1.184-0.709-2.379-1.154c-1.438-0.578-2.371-1.15-2.801-1.717s-0.645-1.252-0.645-2.057c0-1.148,0.486-2.068,1.459-2.76
		s2.17-1.037,3.592-1.037c1.102,0,2.125,0.191,3.07,0.574v2.215c-0.969-0.625-2.066-0.938-3.293-0.938
		c-0.734,0-1.332,0.16-1.793,0.48s-0.691,0.742-0.691,1.266c0,0.516,0.166,0.918,0.498,1.207s1.068,0.66,2.209,1.113
		c1.445,0.539,2.422,1.098,2.93,1.676s0.762,1.293,0.762,2.145c0,1.188-0.486,2.123-1.459,2.807s-2.232,1.025-3.779,1.025
		c-1.344,0-2.516-0.254-3.516-0.762V392.108z"/>
</g>
<g>
	<rect x="233.841" y="372.665" fill="none" width="182.428" height="53.409"/>
	<path d="M251.009,393.243h-2.777l-9.129-14.121c-0.258-0.398-0.465-0.793-0.621-1.184h-0.07c0.063,0.406,0.094,1.254,0.094,2.543
		v12.762h-2.32v-18.152h2.941l8.883,13.875c0.422,0.656,0.672,1.074,0.75,1.254h0.047c-0.078-0.516-0.117-1.398-0.117-2.648v-12.48
		h2.32V393.243z"/>
	<path d="M254.537,386.903c0-2.141,0.598-3.83,1.793-5.068s2.816-1.857,4.863-1.857c1.945,0,3.471,0.596,4.576,1.787
		s1.658,2.838,1.658,4.939c0,2.047-0.59,3.699-1.77,4.957s-2.762,1.887-4.746,1.887c-1.938,0-3.484-0.609-4.641-1.828
		S254.537,388.896,254.537,386.903z M256.88,386.833c0,1.492,0.377,2.668,1.131,3.527s1.768,1.289,3.041,1.289
		c1.313,0,2.313-0.42,3-1.26s1.031-2.045,1.031-3.615c0-1.578-0.344-2.789-1.031-3.633s-1.688-1.266-3-1.266
		c-1.289,0-2.307,0.441-3.053,1.324S256.88,385.294,256.88,386.833z"/>
	<path d="M280.06,391.415v1.828h-2.297V374.06h2.297v8.461h0.047c1.016-1.695,2.5-2.543,4.453-2.543
		c1.625,0,2.916,0.572,3.873,1.717s1.436,2.709,1.436,4.693c0,2.188-0.537,3.928-1.611,5.221s-2.506,1.939-4.295,1.939
		c-1.688,0-2.973-0.711-3.855-2.133H280.06z M280.048,387.911c0,1.047,0.34,1.932,1.02,2.654s1.531,1.084,2.555,1.084
		c1.219,0,2.172-0.469,2.859-1.406s1.031-2.234,1.031-3.891c0-1.367-0.32-2.455-0.961-3.264s-1.516-1.213-2.625-1.213
		c-1.125,0-2.053,0.402-2.783,1.207s-1.096,1.828-1.096,3.07V387.911z"/>
	<path d="M292.224,386.903c0-2.141,0.598-3.83,1.793-5.068s2.816-1.857,4.863-1.857c1.945,0,3.471,0.596,4.576,1.787
		s1.658,2.838,1.658,4.939c0,2.047-0.59,3.699-1.77,4.957s-2.762,1.887-4.746,1.887c-1.938,0-3.484-0.609-4.641-1.828
		S292.224,388.896,292.224,386.903z M294.568,386.833c0,1.492,0.377,2.668,1.131,3.527s1.768,1.289,3.041,1.289
		c1.313,0,2.313-0.42,3-1.26s1.031-2.045,1.031-3.615c0-1.578-0.344-2.789-1.031-3.633s-1.688-1.266-3-1.266
		c-1.289,0-2.307,0.441-3.053,1.324S294.568,385.294,294.568,386.833z"/>
	<path d="M319.306,393.243h-2.285v-7.371c0-2.664-0.973-3.996-2.918-3.996c-1.008,0-1.836,0.375-2.484,1.125
		s-0.973,1.699-0.973,2.848v7.395h-2.297v-12.961h2.297v2.145h0.047c0.977-1.633,2.395-2.449,4.254-2.449
		c1.422,0,2.504,0.455,3.246,1.365s1.113,2.236,1.113,3.979V393.243z"/>
	<path d="M333.837,393.243h-2.309v-2.039h-0.047c-0.867,1.563-2.199,2.344-3.996,2.344c-3.07,0-4.605-1.836-4.605-5.508v-7.758
		h2.273v7.418c0,2.633,1.008,3.949,3.023,3.949c1,0,1.809-0.369,2.426-1.107s0.926-1.67,0.926-2.795v-7.465h2.309V393.243z"/>
	<path d="M337.201,390.442c1.156,0.836,2.402,1.254,3.738,1.254c1.789,0,2.684-0.586,2.684-1.758c0-0.5-0.195-0.912-0.586-1.236
		s-1.184-0.709-2.379-1.154c-1.438-0.578-2.371-1.15-2.801-1.717s-0.645-1.252-0.645-2.057c0-1.148,0.486-2.068,1.459-2.76
		s2.17-1.037,3.592-1.037c1.102,0,2.125,0.191,3.07,0.574v2.215c-0.969-0.625-2.066-0.938-3.293-0.938
		c-0.734,0-1.332,0.16-1.793,0.48s-0.691,0.742-0.691,1.266c0,0.516,0.166,0.918,0.498,1.207s1.068,0.66,2.209,1.113
		c1.445,0.539,2.422,1.098,2.93,1.676s0.762,1.293,0.762,2.145c0,1.188-0.486,2.123-1.459,2.807s-2.232,1.025-3.779,1.025
		c-1.344,0-2.516-0.254-3.516-0.762V390.442z"/>
</g>
<g>
	<g>
		<path fill="#22AC38" d="M145.009,312.702c-14.766,9.92-29.679,19.85-41.25,33.56c-2.066,2.447,1.453,6.003,3.535,3.535
			c11.309-13.398,25.808-23.082,40.239-32.778C150.193,315.231,147.693,310.898,145.009,312.702L145.009,312.702z"/>
	</g>
</g>
<g>
	<g>
		<path fill="#22AC38" d="M98.021,334.063c-1.093,6.044-5.442,14.737,0.932,19.322c2.447,1.761,6.199,1.917,9.077,2.197
			c3.565,0.347,7.167,0.229,10.725,0.647c3.198,0.377,3.162-4.627,0-5c-4.83-0.569-9.721-0.233-14.513-1.191
			c-3.586-0.717-3.998-2.979-3.434-6.354c0.471-2.811,1.527-5.488,2.035-8.292C103.413,332.24,98.594,330.894,98.021,334.063
			L98.021,334.063z"/>
	</g>
</g>
<g>
	<g>
		<path fill="#E60012" d="M253.586,313.985c4.387,1.849,7.871,5.142,11.39,8.251c3.526,3.115,7.188,6.063,10.673,9.229
			c7.229,6.564,13.971,13.654,20.741,20.685c2.24,2.326,5.771-1.213,3.535-3.535c-7.632-7.927-15.278-15.829-23.491-23.162
			c-6.531-5.831-13.358-12.85-21.519-16.29C251.946,307.912,250.663,312.752,253.586,313.985L253.586,313.985z"/>
	</g>
</g>
<g>
	<g>
		<path fill="#E60012" d="M291.019,358.993c3.844,1.537,7.569,3.349,11.373,4.981c1.123,0.483,2.838,0.461,3.42-0.896
			c3.404-7.929-0.58-17.083-2.899-24.793c-0.927-3.079-5.753-1.766-4.821,1.33c1.785,5.934,6.039,14.8,3.404,20.939
			c1.14-0.299,2.28-0.598,3.42-0.896c-4.201-1.805-8.321-3.788-12.567-5.487C289.352,352.973,288.063,357.811,291.019,358.993
			L291.019,358.993z"/>
	</g>
</g>
<g>
	<g>
		<path fill="#22AC38" d="M84.371,410.265c-5.075,24.014-10.175,48.089-10.308,72.742c-0.018,3.226,4.982,3.224,5,0
			c0.131-24.215,5.145-47.827,10.129-71.412C89.856,408.449,85.037,407.111,84.371,410.265L84.371,410.265z"/>
	</g>
</g>
<g>
	<g>
		<path fill="#22AC38" d="M61.995,474.486c4.74,7.07,8.39,19.768,19.054,19.213c10.016-0.521,19.041-9.59,27.432-14.197
			c2.827-1.551,0.304-5.869-2.523-4.316c-7.643,4.195-14.435,10.158-22.782,12.995c-9.184,3.122-13.031-10.5-16.864-16.218
			C64.527,469.3,60.194,471.8,61.995,474.486L61.995,474.486z"/>
	</g>
</g>
<g>
	<g>
		<path fill="#E60012" d="M307.584,410.389c2.882,4.991,2.478,10.344,2.064,15.877c-0.392,5.243-0.304,10.498-0.754,15.744
			c-1.041,12.15-3.958,24.098-6.672,35.956c-0.718,3.14,4.103,4.473,4.821,1.33c2.823-12.339,5.597-24.671,6.851-37.286
			c0.624-6.272,0.551-12.593,0.978-18.881c0.367-5.414-0.229-10.516-2.971-15.264C310.29,405.074,305.969,407.592,307.584,410.389
			L307.584,410.389z"/>
	</g>
</g>
<g>
	<g>
		<path fill="#E60012" d="M288.424,469.595c2.935,4.838,5.294,9.982,8.029,14.931c0.593,1.072,1.714,1.302,2.823,1.149
			c14.255-1.963,25.382-11.866,36.364-20.331c2.515-1.938,0.03-6.285-2.523-4.316c-10.634,8.196-21.359,17.925-35.169,19.825
			c0.941,0.384,1.882,0.767,2.823,1.149c-2.735-4.948-5.095-10.093-8.029-14.931C291.072,464.319,286.747,466.83,288.424,469.595
			L288.424,469.595z"/>
	</g>
</g>
<g>
	<rect x="403.181" y="375.998" fill="none" width="189.579" height="50.076"/>
	<path d="M416.092,396.576h-10.411v-18.152h9.974v2.086h-7.474v5.813h6.924v2.074h-6.924v6.105h7.911V396.576z"/>
	<path d="M431.129,396.576h-2.438v-7.371c0-2.664-1.037-3.996-3.112-3.996c-1.075,0-1.958,0.375-2.649,1.125
		c-0.692,0.75-1.038,1.699-1.038,2.848v7.395h-2.449v-12.961h2.449v2.145h0.051c1.041-1.633,2.554-2.449,4.537-2.449
		c1.516,0,2.67,0.455,3.462,1.365c0.791,0.91,1.188,2.236,1.188,3.979V396.576z"/>
	<path d="M444.765,395.99c-1.059,0.594-2.333,0.891-3.824,0.891c-2,0-3.608-0.602-4.825-1.805s-1.824-2.762-1.824-4.676
		c0-2.125,0.656-3.838,1.969-5.139c1.312-1.301,3.068-1.951,5.268-1.951c1.267,0,2.35,0.211,3.25,0.633v2.273
		c-0.975-0.672-2.059-1.008-3.25-1.008c-1.399,0-2.539,0.455-3.418,1.365c-0.88,0.91-1.319,2.123-1.319,3.639
		c0,1.492,0.415,2.66,1.244,3.504s1.947,1.266,3.355,1.266c1.192,0,2.316-0.367,3.375-1.102V395.99z"/>
	<path d="M447.127,390.236c0-2.141,0.637-3.83,1.912-5.068c1.274-1.238,3.004-1.857,5.187-1.857c2.075,0,3.702,0.596,4.881,1.787
		c1.18,1.191,1.77,2.838,1.77,4.939c0,2.047-0.63,3.699-1.888,4.957c-1.259,1.258-2.945,1.887-5.063,1.887
		c-2.066,0-3.716-0.609-4.949-1.828S447.127,392.229,447.127,390.236z M449.626,390.166c0,1.492,0.402,2.668,1.207,3.527
		c0.804,0.859,1.885,1.289,3.243,1.289c1.399,0,2.466-0.42,3.199-1.26s1.101-2.045,1.101-3.615c0-1.578-0.367-2.789-1.101-3.633
		s-1.8-1.266-3.199-1.266c-1.375,0-2.46,0.441-3.256,1.324S449.626,388.627,449.626,390.166z"/>
	<path d="M475.736,396.576h-2.462v-2.039h-0.05c-0.925,1.563-2.346,2.344-4.263,2.344c-3.274,0-4.912-1.836-4.912-5.508v-7.758
		h2.425v7.418c0,2.633,1.075,3.949,3.225,3.949c1.066,0,1.93-0.369,2.588-1.107s0.987-1.67,0.987-2.795v-7.465h2.462V396.576z"/>
	<path d="M487.511,385.889c-0.409-0.273-0.972-0.41-1.688-0.41c-0.95,0-1.733,0.416-2.35,1.248
		c-0.617,0.832-0.926,1.928-0.926,3.287v6.563h-2.449v-12.961h2.449v2.637h0.051c0.699-1.906,1.907-2.859,3.624-2.859
		c0.559,0,0.987,0.059,1.288,0.176V385.889z"/>
	<path d="M490.198,384.518c1.374-0.805,2.962-1.207,4.762-1.207c3.333,0,5,1.641,5,4.922v8.344h-2.425v-2.004h-0.063
		c-0.959,1.539-2.371,2.309-4.237,2.309c-1.342,0-2.408-0.34-3.2-1.02s-1.188-1.598-1.188-2.754c0-2.422,1.529-3.832,4.588-4.23
		l4.1-0.539c0-2.117-0.934-3.176-2.8-3.176c-1.658,0-3.171,0.523-4.537,1.57V384.518z M494.298,390.482
		c-1.134,0.141-1.915,0.406-2.344,0.797c-0.43,0.391-0.644,0.938-0.644,1.641c0,0.617,0.232,1.121,0.699,1.512
		s1.084,0.586,1.851,0.586c1.066,0,1.945-0.352,2.637-1.055s1.038-1.586,1.038-2.648v-1.242L494.298,390.482z"/>
	<path d="M516.021,395.486c0,4.797-2.483,7.195-7.449,7.195c-1.717,0-3.208-0.301-4.475-0.902v-2.215
		c1.541,0.805,3.021,1.207,4.437,1.207c3.358,0,5.037-1.656,5.037-4.969v-1.371h-0.05c-1.05,1.633-2.616,2.449-4.699,2.449
		c-1.733,0-3.121-0.582-4.162-1.746c-1.042-1.164-1.563-2.707-1.563-4.629c0-2.211,0.574-3.963,1.725-5.256
		c1.149-1.293,2.683-1.939,4.6-1.939c1.842,0,3.208,0.688,4.1,2.063h0.05v-1.758h2.45V395.486z M513.57,388.865
		c0.009-1-0.35-1.859-1.075-2.578c-0.725-0.719-1.616-1.078-2.674-1.078c-1.334,0-2.371,0.459-3.112,1.377
		c-0.742,0.918-1.113,2.178-1.113,3.779c0,1.375,0.358,2.488,1.075,3.34s1.667,1.277,2.85,1.277c1.191,0,2.167-0.406,2.925-1.219
		c0.759-0.813,1.134-1.844,1.125-3.094V388.865z"/>
	<path d="M531.657,390.682h-9.675c0.042,1.383,0.446,2.451,1.213,3.205s1.837,1.131,3.212,1.131c1.55,0,2.971-0.465,4.263-1.395
		v2.051c-1.217,0.805-2.829,1.207-4.838,1.207c-1.999,0-3.56-0.594-4.681-1.781s-1.681-2.836-1.681-4.945
		c0-1.984,0.614-3.621,1.844-4.91c1.229-1.289,2.756-1.934,4.58-1.934c1.809,0,3.221,0.545,4.237,1.635s1.525,2.615,1.525,4.576
		V390.682z M529.207,388.842c-0.009-1.172-0.305-2.078-0.888-2.719s-1.404-0.961-2.462-0.961c-0.975,0-1.818,0.34-2.531,1.02
		c-0.712,0.68-1.16,1.566-1.344,2.66H529.207z"/>
</g>
<g>
	<rect x="621.276" y="375.998" fill="none" width="205.334" height="50.076"/>
	<path d="M626.276,389.791v6.785h-2.5v-18.152h5.499c2.092,0,3.715,0.473,4.869,1.418c1.153,0.945,1.73,2.297,1.73,4.055
		c0,1.781-0.675,3.225-2.024,4.33c-1.351,1.105-3.037,1.627-5.063,1.564H626.276z M626.276,380.486v7.242h2.312
		c1.525,0,2.684-0.322,3.475-0.967c0.792-0.645,1.188-1.568,1.188-2.771c0-2.336-1.475-3.504-4.424-3.504H626.276z"/>
	<path d="M650.536,396.576h-2.462v-2.039h-0.05c-0.925,1.563-2.346,2.344-4.263,2.344c-3.274,0-4.912-1.836-4.912-5.508v-7.758
		h2.425v7.418c0,2.633,1.075,3.949,3.225,3.949c1.066,0,1.93-0.369,2.588-1.107s0.987-1.67,0.987-2.795v-7.465h2.462V396.576z"/>
	<path d="M666.585,396.576h-2.438v-7.371c0-2.664-1.037-3.996-3.112-3.996c-1.075,0-1.958,0.375-2.649,1.125
		c-0.692,0.75-1.038,1.699-1.038,2.848v7.395h-2.449v-12.961h2.449v2.145h0.051c1.041-1.633,2.554-2.449,4.537-2.449
		c1.516,0,2.67,0.455,3.462,1.365c0.791,0.91,1.188,2.236,1.188,3.979V396.576z"/>
	<path d="M670.372,379.045c0-0.406,0.147-0.748,0.443-1.025s0.66-0.416,1.094-0.416c0.441,0,0.814,0.137,1.118,0.41
		c0.305,0.273,0.457,0.617,0.457,1.031c0,0.406-0.152,0.744-0.457,1.014c-0.304,0.27-0.677,0.404-1.118,0.404
		s-0.809-0.135-1.1-0.404C670.518,379.789,670.372,379.451,670.372,379.045z M670.659,396.576v-12.961h2.45v12.961H670.659z"/>
	<path d="M676.708,393.775c1.233,0.836,2.563,1.254,3.987,1.254c1.908,0,2.862-0.586,2.862-1.758c0-0.5-0.208-0.912-0.625-1.236
		s-1.263-0.709-2.537-1.154c-1.533-0.578-2.529-1.15-2.987-1.717s-0.688-1.252-0.688-2.057c0-1.148,0.519-2.068,1.557-2.76
		c1.037-0.691,2.313-1.037,3.83-1.037c1.176,0,2.267,0.191,3.275,0.574v2.215c-1.033-0.625-2.204-0.938-3.513-0.938
		c-0.783,0-1.421,0.16-1.912,0.48c-0.492,0.32-0.737,0.742-0.737,1.266c0,0.516,0.177,0.918,0.531,1.207
		c0.354,0.289,1.14,0.66,2.355,1.113c1.542,0.539,2.583,1.098,3.125,1.676s0.813,1.293,0.813,2.145c0,1.188-0.519,2.123-1.556,2.807
		c-1.038,0.684-2.382,1.025-4.031,1.025c-1.434,0-2.684-0.254-3.75-0.762V393.775z"/>
	<path d="M701.006,396.576h-2.438v-7.453c0-2.609-1.033-3.914-3.1-3.914c-1.059,0-1.938,0.381-2.637,1.143
		c-0.7,0.762-1.051,1.721-1.051,2.877v7.348h-2.449v-19.184h2.449v8.355h0.051c1.058-1.625,2.562-2.438,4.512-2.438
		c3.108,0,4.662,1.762,4.662,5.285V396.576z"/>
	<path d="M724.991,396.576h-2.45v-7.441c0-1.406-0.233-2.412-0.7-3.018s-1.233-0.908-2.3-0.908c-0.899,0-1.67,0.395-2.312,1.184
		c-0.643,0.789-0.963,1.723-0.963,2.801v7.383h-2.45V388.9c0-2.461-1.012-3.691-3.037-3.691c-0.933,0-1.706,0.375-2.318,1.125
		s-0.919,1.707-0.919,2.871v7.371h-2.449v-12.961h2.449v2.051h0.051c0.982-1.57,2.42-2.355,4.312-2.355
		c0.925,0,1.741,0.238,2.45,0.715c0.708,0.477,1.2,1.121,1.475,1.934c1.025-1.766,2.558-2.648,4.6-2.648
		c3.041,0,4.563,1.758,4.563,5.273V396.576z"/>
	<path d="M740.34,390.682h-9.675c0.042,1.383,0.446,2.451,1.213,3.205s1.837,1.131,3.212,1.131c1.55,0,2.971-0.465,4.263-1.395
		v2.051c-1.217,0.805-2.829,1.207-4.838,1.207c-1.999,0-3.56-0.594-4.681-1.781s-1.681-2.836-1.681-4.945
		c0-1.984,0.614-3.621,1.844-4.91c1.229-1.289,2.756-1.934,4.58-1.934c1.809,0,3.221,0.545,4.237,1.635s1.525,2.615,1.525,4.576
		V390.682z M737.89,388.842c-0.009-1.172-0.305-2.078-0.888-2.719s-1.404-0.961-2.462-0.961c-0.975,0-1.818,0.34-2.531,1.02
		c-0.712,0.68-1.16,1.566-1.344,2.66H737.89z"/>
	<path d="M755.288,396.576h-2.438v-7.371c0-2.664-1.037-3.996-3.112-3.996c-1.075,0-1.958,0.375-2.649,1.125
		c-0.692,0.75-1.038,1.699-1.038,2.848v7.395h-2.449v-12.961h2.449v2.145h0.051c1.041-1.633,2.554-2.449,4.537-2.449
		c1.516,0,2.67,0.455,3.462,1.365c0.791,0.91,1.188,2.236,1.188,3.979V396.576z"/>
	<path d="M766.012,396.447c-0.533,0.273-1.254,0.41-2.162,0.41c-2.475,0-3.712-1.285-3.712-3.855v-7.488h-2.375v-1.898h2.375v-3.117
		l2.437-0.727v3.844h3.438v1.898h-3.438v7.078c0,0.852,0.154,1.461,0.463,1.828c0.308,0.367,0.82,0.551,1.537,0.551
		c0.55,0,1.029-0.145,1.438-0.434V396.447z"/>
</g>
<g>
	<g>
		<path fill="#22AC38" d="M534.573,322.135c-14.679,9.246-29.542,18.49-41.251,31.488c-2.151,2.388,1.373,5.936,3.535,3.535
			c11.436-12.694,25.904-21.677,40.239-30.707C539.816,324.738,537.31,320.41,534.573,322.135L534.573,322.135z"/>
	</g>
</g>
<g>
	<g>
		<path fill="#22AC38" d="M487.585,342.255c-1.108,5.742-5.391,14.026,0.933,18.291c2.494,1.683,6.191,1.819,9.077,2.082
			c3.566,0.325,7.164,0.215,10.724,0.607c3.202,0.354,3.168-4.65,0-5c-4.829-0.533-9.717-0.212-14.512-1.111
			c-3.402-0.639-4.026-2.448-3.435-5.765c0.472-2.641,1.526-5.142,2.035-7.774C493.015,340.435,488.196,339.092,487.585,342.255
			L487.585,342.255z"/>
	</g>
</g>
<g>
	<g>
		<path fill="#E60012" d="M643.15,323.622c8.099,3.2,15.5,10.762,22.063,16.35c7.207,6.137,13.962,12.793,20.741,19.393
			c2.311,2.25,5.849-1.283,3.535-3.535c-7.646-7.443-15.305-14.862-23.491-21.715c-6.567-5.497-13.467-12.131-21.519-15.314
			C641.479,317.613,640.188,322.451,643.15,323.622L643.15,323.622z"/>
	</g>
</g>
<g>
	<g>
		<path fill="#E60012" d="M680.583,365.82c4.039,1.516,7.969,3.297,11.969,4.908c0.954,0.384,2.397-0.226,2.823-1.149
			c3.433-7.429-0.592-16.172-2.898-23.365c-0.981-3.058-5.81-1.749-4.822,1.33c1.74,5.425,6.011,13.869,3.404,19.512
			c0.94-0.383,1.882-0.766,2.823-1.149c-4.002-1.61-7.93-3.392-11.969-4.908C678.888,359.863,677.594,364.698,680.583,365.82
			L680.583,365.82z"/>
	</g>
</g>
<g>
	<g>
		<path fill="#22AC38" d="M473.935,413.699c-5.071,22.5-10.167,45.064-10.308,68.244c-0.02,3.226,4.98,3.224,5,0
			c0.139-22.742,5.154-44.842,10.13-66.914C479.464,411.889,474.644,410.555,473.935,413.699L473.935,413.699z"/>
	</g>
</g>
<g>
	<g>
		<path fill="#22AC38" d="M451.561,474.032c4.925,6.907,8.624,18.617,19.086,18.089c9.906-0.501,18.945-8.972,27.399-13.33
			c2.867-1.478,0.337-5.791-2.523-4.316c-7.6,3.917-14.422,9.44-22.629,12.123c-9.208,3.011-12.925-9.351-17.017-15.089
			C454.022,468.907,449.684,471.4,451.561,474.032L451.561,474.032z"/>
	</g>
</g>
<g>
	<g>
		<path fill="#E60012" d="M697.148,413.936c2.588,4.203,2.525,8.589,2.182,13.347c-0.366,5.067-0.359,10.142-0.774,15.206
			c-0.962,11.745-3.983,23.274-6.77,34.687c-0.764,3.133,4.058,4.461,4.822,1.33c2.905-11.904,5.747-23.798,6.947-36.017
			c0.544-5.542,0.479-11.13,0.881-16.686c0.371-5.132-0.243-9.961-2.972-14.391C699.778,408.673,695.452,411.182,697.148,413.936
			L697.148,413.936z"/>
	</g>
</g>
<g>
	<g>
		<path fill="#E60012" d="M677.988,469.447c2.926,4.522,5.295,9.361,8.029,13.998c0.403,0.685,1.314,1.348,2.158,1.238
			c14.397-1.87,25.629-10.927,37.029-19.166c2.587-1.87,0.095-6.211-2.523-4.318c-10.478,7.573-21.225,16.759-34.506,18.484
			c0.72,0.413,1.439,0.825,2.158,1.238c-2.733-4.637-5.103-9.476-8.029-13.998C680.561,464.228,676.23,466.731,677.988,469.447
			L677.988,469.447z"/>
	</g>
</g>
<g>
	<rect x="19.455" y="514.47" fill="none" width="157.207" height="53.409"/>
	<path d="M25.889,518.876h-1.746v14.191h1.746v1.98h-5.836v-1.98h1.746v-14.191h-1.746v-1.98h5.836V518.876z"/>
	<path d="M35.65,535.048v-19.184h2.297v19.184H35.65z"/>
	<path d="M41.768,517.517c0-0.406,0.139-0.748,0.416-1.025s0.619-0.416,1.025-0.416c0.414,0,0.764,0.137,1.049,0.41
		s0.428,0.617,0.428,1.031c0,0.406-0.143,0.744-0.428,1.014s-0.635,0.404-1.049,0.404s-0.758-0.135-1.031-0.404
		S41.768,517.923,41.768,517.517z M42.037,535.048v-12.961h2.297v12.961H42.037z"/>
	<path d="M59.451,535.048h-3.129l-5.543-6.246h-0.047v6.246h-2.297v-19.184h2.297v12.164h0.047l5.262-5.941h2.953l-5.859,6.234
		L59.451,535.048z"/>
	<path d="M71.545,529.153h-9.07c0.039,1.383,0.418,2.451,1.137,3.205s1.723,1.131,3.012,1.131c1.453,0,2.785-0.465,3.996-1.395
		v2.051c-1.141,0.805-2.652,1.207-4.535,1.207c-1.875,0-3.338-0.594-4.389-1.781s-1.576-2.836-1.576-4.945
		c0-1.984,0.576-3.621,1.729-4.91s2.584-1.934,4.295-1.934c1.695,0,3.02,0.545,3.973,1.635s1.43,2.615,1.43,4.576V529.153z
		 M69.248,527.313c-0.008-1.172-0.285-2.078-0.832-2.719s-1.316-0.961-2.309-0.961c-0.914,0-1.705,0.34-2.373,1.02
		s-1.088,1.566-1.26,2.66H69.248z"/>
	<path d="M80.979,532.247c1.156,0.836,2.402,1.254,3.738,1.254c1.789,0,2.684-0.586,2.684-1.758c0-0.5-0.195-0.912-0.586-1.236
		s-1.184-0.709-2.379-1.154c-1.438-0.578-2.371-1.15-2.801-1.717s-0.645-1.252-0.645-2.057c0-1.148,0.486-2.068,1.459-2.76
		s2.17-1.037,3.592-1.037c1.102,0,2.125,0.191,3.07,0.574v2.215c-0.969-0.625-2.066-0.938-3.293-0.938
		c-0.734,0-1.332,0.16-1.793,0.48s-0.691,0.742-0.691,1.266c0,0.516,0.166,0.918,0.498,1.207s1.068,0.66,2.209,1.113
		c1.445,0.539,2.422,1.098,2.93,1.676s0.762,1.293,0.762,2.145c0,1.188-0.486,2.123-1.459,2.807s-2.232,1.025-3.779,1.025
		c-1.344,0-2.516-0.254-3.516-0.762V532.247z"/>
	<path d="M95.111,533.22v7.793h-2.297v-18.926h2.297v2.238h0.047c1.016-1.695,2.5-2.543,4.453-2.543c1.656,0,2.955,0.58,3.896,1.74
		s1.412,2.717,1.412,4.67c0,2.156-0.533,3.889-1.6,5.197s-2.502,1.963-4.307,1.963c-1.664,0-2.949-0.711-3.855-2.133H95.111z
		 M95.1,529.704c0,1.055,0.34,1.943,1.02,2.666s1.531,1.084,2.555,1.084c1.219,0,2.172-0.469,2.859-1.406s1.031-2.234,1.031-3.891
		c0-1.398-0.32-2.494-0.961-3.287s-1.516-1.189-2.625-1.189c-1.133,0-2.063,0.402-2.789,1.207s-1.09,1.836-1.09,3.094V529.704z"/>
	<path d="M107.275,528.708c0-2.141,0.598-3.83,1.793-5.068s2.816-1.857,4.863-1.857c1.945,0,3.471,0.596,4.576,1.787
		s1.658,2.838,1.658,4.939c0,2.047-0.59,3.699-1.77,4.957s-2.762,1.887-4.746,1.887c-1.938,0-3.484-0.609-4.641-1.828
		S107.275,530.7,107.275,528.708z M109.619,528.638c0,1.492,0.377,2.668,1.131,3.527s1.768,1.289,3.041,1.289
		c1.313,0,2.313-0.42,3-1.26s1.031-2.045,1.031-3.615c0-1.578-0.344-2.789-1.031-3.633s-1.688-1.266-3-1.266
		c-1.289,0-2.307,0.441-3.053,1.324S109.619,527.099,109.619,528.638z"/>
	<path d="M130.35,524.36c-0.383-0.273-0.91-0.41-1.582-0.41c-0.891,0-1.625,0.416-2.203,1.248s-0.867,1.928-0.867,3.287v6.563H123.4
		v-12.961h2.297v2.637h0.047c0.656-1.906,1.789-2.859,3.398-2.859c0.523,0,0.926,0.059,1.207,0.176V524.36z"/>
	<path d="M139.537,534.919c-0.5,0.273-1.176,0.41-2.027,0.41c-2.32,0-3.48-1.285-3.48-3.855v-7.488h-2.227v-1.898h2.227v-3.117
		l2.285-0.727v3.844h3.223v1.898h-3.223v7.078c0,0.852,0.145,1.461,0.434,1.828s0.77,0.551,1.441,0.551
		c0.516,0,0.965-0.145,1.348-0.434V534.919z"/>
	<path d="M141.529,532.247c1.156,0.836,2.402,1.254,3.738,1.254c1.789,0,2.684-0.586,2.684-1.758c0-0.5-0.195-0.912-0.586-1.236
		s-1.184-0.709-2.379-1.154c-1.438-0.578-2.371-1.15-2.801-1.717s-0.645-1.252-0.645-2.057c0-1.148,0.486-2.068,1.459-2.76
		s2.17-1.037,3.592-1.037c1.102,0,2.125,0.191,3.07,0.574v2.215c-0.969-0.625-2.066-0.938-3.293-0.938
		c-0.734,0-1.332,0.16-1.793,0.48s-0.691,0.742-0.691,1.266c0,0.516,0.166,0.918,0.498,1.207s1.068,0.66,2.209,1.113
		c1.445,0.539,2.422,1.098,2.93,1.676s0.762,1.293,0.762,2.145c0,1.188-0.486,2.123-1.459,2.807s-2.232,1.025-3.779,1.025
		c-1.344,0-2.516-0.254-3.516-0.762V532.247z"/>
	<path d="M153.553,533.817c0-0.422,0.148-0.775,0.445-1.061s0.652-0.428,1.066-0.428c0.406,0,0.758,0.148,1.055,0.445
		s0.445,0.645,0.445,1.043c0,0.391-0.145,0.732-0.434,1.025s-0.625,0.439-1.008,0.439c-0.469,0-0.848-0.146-1.137-0.439
		S153.553,534.208,153.553,533.817z M156.236,516.896l-0.27,12.984h-1.875l-0.258-12.984H156.236z"/>
</g>
<g>
	<rect x="213.08" y="507.309" fill="none" width="157.207" height="101.712"/>
	<path d="M237.197,509.734l-5.086,18.152h-2.73l-3.656-13.078c-0.164-0.594-0.262-1.219-0.293-1.875h-0.047
		c-0.047,0.648-0.156,1.266-0.328,1.852l-3.691,13.102h-2.707l-5.262-18.152h2.59l3.703,13.711c0.164,0.617,0.262,1.238,0.293,1.863
		h0.07c0.039-0.469,0.168-1.09,0.387-1.863l3.926-13.711h2.309l3.75,13.816c0.125,0.453,0.227,1.031,0.305,1.734h0.047
		c0.039-0.508,0.152-1.102,0.34-1.781l3.563-13.77H237.197z"/>
	<path d="M249.49,521.992h-9.07c0.039,1.383,0.418,2.451,1.137,3.205s1.723,1.131,3.012,1.131c1.453,0,2.785-0.465,3.996-1.395
		v2.051c-1.141,0.805-2.652,1.207-4.535,1.207c-1.875,0-3.338-0.594-4.389-1.781s-1.576-2.836-1.576-4.945
		c0-1.984,0.576-3.621,1.729-4.91s2.584-1.934,4.295-1.934c1.695,0,3.02,0.545,3.973,1.635s1.43,2.615,1.43,4.576V521.992z
		 M247.193,520.152c-0.008-1.172-0.285-2.078-0.832-2.719s-1.316-0.961-2.309-0.961c-0.914,0-1.705,0.34-2.373,1.02
		s-1.088,1.566-1.26,2.66H247.193z"/>
	<path d="M252.537,527.887v-19.184h2.297v19.184H252.537z"/>
	<path d="M258.923,527.887v-19.184h2.297v19.184H258.923z"/>
	<path d="M267.431,524.969l-2.004,6.246h-1.664l1.453-6.246H267.431z"/>
	<path d="M277.919,510.355c0-0.406,0.139-0.748,0.416-1.025s0.619-0.416,1.025-0.416c0.414,0,0.764,0.137,1.049,0.41
		s0.428,0.617,0.428,1.031c0,0.406-0.143,0.744-0.428,1.014s-0.635,0.404-1.049,0.404s-0.758-0.135-1.031-0.404
		S277.919,510.762,277.919,510.355z M278.189,527.887v-12.961h2.297v12.961H278.189z"/>
	<path d="M290.81,527.758c-0.5,0.273-1.176,0.41-2.027,0.41c-2.32,0-3.48-1.285-3.48-3.855v-7.488h-2.227v-1.898h2.227v-3.117
		l2.285-0.727v3.844h3.223v1.898h-3.223v7.078c0,0.852,0.145,1.461,0.434,1.828s0.77,0.551,1.441,0.551
		c0.516,0,0.965-0.145,1.348-0.434V527.758z"/>
	<path d="M296.318,509.418l-1.852,5.648h-1.594l1.371-5.648H296.318z"/>
	<path d="M296.822,525.086c1.156,0.836,2.402,1.254,3.738,1.254c1.789,0,2.684-0.586,2.684-1.758c0-0.5-0.195-0.912-0.586-1.236
		s-1.184-0.709-2.379-1.154c-1.438-0.578-2.371-1.15-2.801-1.717s-0.645-1.252-0.645-2.057c0-1.148,0.486-2.068,1.459-2.76
		s2.17-1.037,3.592-1.037c1.102,0,2.125,0.191,3.07,0.574v2.215c-0.969-0.625-2.066-0.938-3.293-0.938
		c-0.734,0-1.332,0.16-1.793,0.48s-0.691,0.742-0.691,1.266c0,0.516,0.166,0.918,0.498,1.207s1.068,0.66,2.209,1.113
		c1.445,0.539,2.422,1.098,2.93,1.676s0.762,1.293,0.762,2.145c0,1.188-0.486,2.123-1.459,2.807s-2.232,1.025-3.779,1.025
		c-1.344,0-2.516-0.254-3.516-0.762V525.086z"/>
	<path d="M318.056,527.383c0,2.102-0.436,3.729-1.307,4.881s-2.107,1.729-3.709,1.729c-0.594,0-1.176-0.137-1.746-0.41v-2.074
		c0.609,0.375,1.188,0.563,1.734,0.563c1.82,0,2.73-1.449,2.73-4.348v-12.797h2.297V527.383z M315.49,510.355
		c0-0.406,0.137-0.748,0.41-1.025s0.617-0.416,1.031-0.416c0.422,0,0.773,0.137,1.055,0.41s0.422,0.617,0.422,1.031
		c0,0.398-0.143,0.734-0.428,1.008s-0.635,0.41-1.049,0.41s-0.758-0.139-1.031-0.416S315.49,510.746,315.49,510.355z"/>
	<path d="M332.869,527.887h-2.309v-2.039h-0.047c-0.867,1.563-2.199,2.344-3.996,2.344c-3.07,0-4.605-1.836-4.605-5.508v-7.758
		h2.273v7.418c0,2.633,1.008,3.949,3.023,3.949c1,0,1.809-0.369,2.426-1.107s0.926-1.67,0.926-2.795v-7.465h2.309V527.887z"/>
	<path d="M336.232,525.086c1.156,0.836,2.402,1.254,3.738,1.254c1.789,0,2.684-0.586,2.684-1.758c0-0.5-0.195-0.912-0.586-1.236
		s-1.184-0.709-2.379-1.154c-1.438-0.578-2.371-1.15-2.801-1.717s-0.645-1.252-0.645-2.057c0-1.148,0.486-2.068,1.459-2.76
		s2.17-1.037,3.592-1.037c1.102,0,2.125,0.191,3.07,0.574v2.215c-0.969-0.625-2.066-0.938-3.293-0.938
		c-0.734,0-1.332,0.16-1.793,0.48s-0.691,0.742-0.691,1.266c0,0.516,0.166,0.918,0.498,1.207s1.068,0.66,2.209,1.113
		c1.445,0.539,2.422,1.098,2.93,1.676s0.762,1.293,0.762,2.145c0,1.188-0.486,2.123-1.459,2.807s-2.232,1.025-3.779,1.025
		c-1.344,0-2.516-0.254-3.516-0.762V525.086z"/>
	<path d="M354.291,527.758c-0.5,0.273-1.176,0.41-2.027,0.41c-2.32,0-3.48-1.285-3.48-3.855v-7.488h-2.227v-1.898h2.227v-3.117
		l2.285-0.727v3.844h3.223v1.898h-3.223v7.078c0,0.852,0.145,1.461,0.434,1.828s0.77,0.551,1.441,0.551
		c0.516,0,0.965-0.145,1.348-0.434V527.758z"/>
	<path d="M215.435,544.628c1.289-0.805,2.777-1.207,4.465-1.207c3.125,0,4.688,1.641,4.688,4.922v8.344h-2.273v-2.004h-0.059
		c-0.898,1.539-2.223,2.309-3.973,2.309c-1.258,0-2.258-0.34-3-1.02s-1.113-1.598-1.113-2.754c0-2.422,1.434-3.832,4.301-4.23
		l3.844-0.539c0-2.117-0.875-3.176-2.625-3.176c-1.555,0-2.973,0.523-4.254,1.57V544.628z M219.279,550.593
		c-1.063,0.141-1.795,0.406-2.197,0.797s-0.604,0.938-0.604,1.641c0,0.617,0.219,1.121,0.656,1.512s1.016,0.586,1.734,0.586
		c1,0,1.824-0.352,2.473-1.055s0.973-1.586,0.973-2.648v-1.242L219.279,550.593z"/>
	<path d="M241.72,556.558c-0.5,0.273-1.176,0.41-2.027,0.41c-2.32,0-3.48-1.285-3.48-3.855v-7.488h-2.227v-1.898h2.227v-3.117
		l2.285-0.727v3.844h3.223v1.898h-3.223v7.078c0,0.852,0.145,1.461,0.434,1.828s0.77,0.551,1.441,0.551
		c0.516,0,0.965-0.145,1.348-0.434V556.558z"/>
	<path d="M244.744,544.628c1.289-0.805,2.777-1.207,4.465-1.207c3.125,0,4.688,1.641,4.688,4.922v8.344h-2.273v-2.004h-0.059
		c-0.898,1.539-2.223,2.309-3.973,2.309c-1.258,0-2.258-0.34-3-1.02s-1.113-1.598-1.113-2.754c0-2.422,1.434-3.832,4.301-4.23
		l3.844-0.539c0-2.117-0.875-3.176-2.625-3.176c-1.555,0-2.973,0.523-4.254,1.57V544.628z M248.587,550.593
		c-1.063,0.141-1.795,0.406-2.197,0.797s-0.604,0.938-0.604,1.641c0,0.617,0.219,1.121,0.656,1.512s1.016,0.586,1.734,0.586
		c1,0,1.824-0.352,2.473-1.055s0.973-1.586,0.973-2.648v-1.242L248.587,550.593z"/>
	<path d="M256.978,553.886c1.156,0.836,2.402,1.254,3.738,1.254c1.789,0,2.684-0.586,2.684-1.758c0-0.5-0.195-0.912-0.586-1.236
		s-1.184-0.709-2.379-1.154c-1.438-0.578-2.371-1.15-2.801-1.717s-0.645-1.252-0.645-2.057c0-1.148,0.486-2.068,1.459-2.76
		s2.17-1.037,3.592-1.037c1.102,0,2.125,0.191,3.07,0.574v2.215c-0.969-0.625-2.066-0.938-3.293-0.938
		c-0.734,0-1.332,0.16-1.793,0.48s-0.691,0.742-0.691,1.266c0,0.516,0.166,0.918,0.498,1.207s1.068,0.66,2.209,1.113
		c1.445,0.539,2.422,1.098,2.93,1.676s0.762,1.293,0.762,2.145c0,1.188-0.486,2.123-1.459,2.807s-2.232,1.025-3.779,1.025
		c-1.344,0-2.516-0.254-3.516-0.762V553.886z"/>
	<path d="M279.83,556.687h-3.129l-5.543-6.246h-0.047v6.246h-2.297v-19.184h2.297v12.164h0.047l5.262-5.941h2.953l-5.859,6.234
		L279.83,556.687z"/>
	<path d="M295.205,556.558c-0.5,0.273-1.176,0.41-2.027,0.41c-2.32,0-3.48-1.285-3.48-3.855v-7.488h-2.227v-1.898h2.227v-3.117
		l2.285-0.727v3.844h3.223v1.898h-3.223v7.078c0,0.852,0.145,1.461,0.434,1.828s0.77,0.551,1.441,0.551
		c0.516,0,0.965-0.145,1.348-0.434V556.558z"/>
	<path d="M296.857,550.347c0-2.141,0.598-3.83,1.793-5.068s2.816-1.857,4.863-1.857c1.945,0,3.471,0.596,4.576,1.787
		s1.658,2.838,1.658,4.939c0,2.047-0.59,3.699-1.77,4.957s-2.762,1.887-4.746,1.887c-1.938,0-3.484-0.609-4.641-1.828
		S296.857,552.339,296.857,550.347z M299.201,550.276c0,1.492,0.377,2.668,1.131,3.527s1.768,1.289,3.041,1.289
		c1.313,0,2.313-0.42,3-1.26s1.031-2.045,1.031-3.615c0-1.578-0.344-2.789-1.031-3.633s-1.688-1.266-3-1.266
		c-1.289,0-2.307,0.441-3.053,1.324S299.201,548.737,299.201,550.276z"/>
	<path d="M224.083,584.9c-0.992,0.594-2.188,0.891-3.586,0.891c-1.875,0-3.383-0.602-4.523-1.805s-1.711-2.762-1.711-4.676
		c0-2.125,0.615-3.838,1.846-5.139s2.877-1.951,4.939-1.951c1.188,0,2.203,0.211,3.047,0.633v2.273
		c-0.914-0.672-1.93-1.008-3.047-1.008c-1.313,0-2.381,0.455-3.205,1.365s-1.236,2.123-1.236,3.639c0,1.492,0.389,2.66,1.166,3.504
		s1.826,1.266,3.146,1.266c1.117,0,2.172-0.367,3.164-1.102V584.9z"/>
	<path d="M226.298,579.146c0-2.141,0.598-3.83,1.793-5.068s2.816-1.857,4.863-1.857c1.945,0,3.471,0.596,4.576,1.787
		s1.658,2.838,1.658,4.939c0,2.047-0.59,3.699-1.77,4.957s-2.762,1.887-4.746,1.887c-1.938,0-3.484-0.609-4.641-1.828
		S226.298,581.139,226.298,579.146z M228.642,579.076c0,1.492,0.377,2.668,1.131,3.527s1.768,1.289,3.041,1.289
		c1.313,0,2.313-0.42,3-1.26s1.031-2.045,1.031-3.615c0-1.578-0.344-2.789-1.031-3.633s-1.688-1.266-3-1.266
		c-1.289,0-2.307,0.441-3.053,1.324S228.642,577.537,228.642,579.076z"/>
	<path d="M261.08,585.486h-2.297v-7.441c0-1.406-0.219-2.412-0.656-3.018s-1.156-0.908-2.156-0.908
		c-0.844,0-1.566,0.395-2.168,1.184s-0.902,1.723-0.902,2.801v7.383h-2.297v-7.676c0-2.461-0.949-3.691-2.848-3.691
		c-0.875,0-1.6,0.375-2.174,1.125s-0.861,1.707-0.861,2.871v7.371h-2.297v-12.961h2.297v2.051h0.047
		c0.922-1.57,2.27-2.355,4.043-2.355c0.867,0,1.633,0.238,2.297,0.715s1.125,1.121,1.383,1.934c0.961-1.766,2.398-2.648,4.313-2.648
		c2.852,0,4.277,1.758,4.277,5.273V585.486z"/>
	<path d="M267.208,583.658v7.793h-2.297v-18.926h2.297v2.238h0.047c1.016-1.695,2.5-2.543,4.453-2.543
		c1.656,0,2.955,0.58,3.896,1.74s1.412,2.717,1.412,4.67c0,2.156-0.533,3.889-1.6,5.197s-2.502,1.963-4.307,1.963
		c-1.664,0-2.949-0.711-3.855-2.133H267.208z M267.197,580.143c0,1.055,0.34,1.943,1.02,2.666s1.531,1.084,2.555,1.084
		c1.219,0,2.172-0.469,2.859-1.406s1.031-2.234,1.031-3.891c0-1.398-0.32-2.494-0.961-3.287s-1.516-1.189-2.625-1.189
		c-1.133,0-2.063,0.402-2.789,1.207s-1.09,1.836-1.09,3.094V580.143z"/>
	<path d="M280.228,585.486v-19.184h2.297v19.184H280.228z"/>
	<path d="M297.185,579.592h-9.07c0.039,1.383,0.418,2.451,1.137,3.205s1.723,1.131,3.012,1.131c1.453,0,2.785-0.465,3.996-1.395
		v2.051c-1.141,0.805-2.652,1.207-4.535,1.207c-1.875,0-3.338-0.594-4.389-1.781s-1.576-2.836-1.576-4.945
		c0-1.984,0.576-3.621,1.729-4.91s2.584-1.934,4.295-1.934c1.695,0,3.02,0.545,3.973,1.635s1.43,2.615,1.43,4.576V579.592z
		 M294.888,577.752c-0.008-1.172-0.285-2.078-0.832-2.719s-1.316-0.961-2.309-0.961c-0.914,0-1.705,0.34-2.373,1.02
		s-1.088,1.566-1.26,2.66H294.888z"/>
	<path d="M306.466,585.357c-0.5,0.273-1.176,0.41-2.027,0.41c-2.32,0-3.48-1.285-3.48-3.855v-7.488h-2.227v-1.898h2.227v-3.117
		l2.285-0.727v3.844h3.223v1.898h-3.223v7.078c0,0.852,0.145,1.461,0.434,1.828s0.77,0.551,1.441,0.551
		c0.516,0,0.965-0.145,1.348-0.434V585.357z"/>
	<path d="M319.544,579.592h-9.07c0.039,1.383,0.418,2.451,1.137,3.205s1.723,1.131,3.012,1.131c1.453,0,2.785-0.465,3.996-1.395
		v2.051c-1.141,0.805-2.652,1.207-4.535,1.207c-1.875,0-3.338-0.594-4.389-1.781s-1.576-2.836-1.576-4.945
		c0-1.984,0.576-3.621,1.729-4.91s2.584-1.934,4.295-1.934c1.695,0,3.02,0.545,3.973,1.635s1.43,2.615,1.43,4.576V579.592z
		 M317.248,577.752c-0.008-1.172-0.285-2.078-0.832-2.719s-1.316-0.961-2.309-0.961c-0.914,0-1.705,0.34-2.373,1.02
		s-1.088,1.566-1.26,2.66H317.248z"/>
	<path d="M321.947,584.279c0-0.422,0.145-0.777,0.434-1.066s0.648-0.434,1.078-0.434c0.438,0,0.801,0.146,1.09,0.439
		s0.434,0.646,0.434,1.061c0,0.406-0.145,0.756-0.434,1.049s-0.656,0.439-1.102,0.439c-0.43,0-0.787-0.146-1.072-0.439
		S321.947,584.686,321.947,584.279z"/>
</g>
<g>
	<rect x="416.486" y="507.308" fill="none" width="157.208" height="101.713"/>
	<path d="M422.92,511.715h-1.746v14.191h1.746v1.98h-5.836v-1.98h1.746v-14.191h-1.746v-1.98h5.836V511.715z"/>
	<path d="M438.916,527.758c-0.5,0.273-1.176,0.41-2.027,0.41c-2.32,0-3.48-1.285-3.48-3.855v-7.488h-2.227v-1.898h2.227v-3.117
		l2.285-0.727v3.844h3.223v1.898h-3.223v7.078c0,0.852,0.145,1.461,0.434,1.828s0.77,0.551,1.441,0.551
		c0.516,0,0.965-0.145,1.348-0.434V527.758z"/>
	<path d="M452.58,527.887h-2.285v-7.453c0-2.609-0.969-3.914-2.906-3.914c-0.992,0-1.816,0.381-2.473,1.143
		s-0.984,1.721-0.984,2.877v7.348h-2.297v-19.184h2.297v8.355h0.047c0.992-1.625,2.402-2.438,4.23-2.438
		c2.914,0,4.371,1.762,4.371,5.285V527.887z"/>
	<path d="M456.131,510.355c0-0.406,0.139-0.748,0.416-1.025s0.619-0.416,1.025-0.416c0.414,0,0.764,0.137,1.049,0.41
		s0.428,0.617,0.428,1.031c0,0.406-0.143,0.744-0.428,1.014s-0.635,0.404-1.049,0.404s-0.758-0.135-1.031-0.404
		S456.131,510.762,456.131,510.355z M456.4,527.887v-12.961h2.297v12.961H456.4z"/>
	<path d="M473.756,527.887h-2.285v-7.371c0-2.664-0.973-3.996-2.918-3.996c-1.008,0-1.836,0.375-2.484,1.125
		s-0.973,1.699-0.973,2.848v7.395h-2.297v-12.961h2.297v2.145h0.047c0.977-1.633,2.395-2.449,4.254-2.449
		c1.422,0,2.504,0.455,3.246,1.365s1.113,2.236,1.113,3.979V527.887z"/>
	<path d="M488.604,527.887h-3.129l-5.543-6.246h-0.047v6.246h-2.297v-19.184h2.297v12.164h0.047l5.262-5.941h2.953l-5.859,6.234
		L488.604,527.887z"/>
	<path d="M502.139,511.715h-1.746v14.191h1.746v1.98h-5.836v-1.98h1.746v-14.191h-1.746v-1.98h5.836V511.715z"/>
	<path d="M520.865,527.301c-0.992,0.594-2.188,0.891-3.586,0.891c-1.875,0-3.383-0.602-4.523-1.805s-1.711-2.762-1.711-4.676
		c0-2.125,0.615-3.838,1.846-5.139s2.877-1.951,4.939-1.951c1.188,0,2.203,0.211,3.047,0.633v2.273
		c-0.914-0.672-1.93-1.008-3.047-1.008c-1.313,0-2.381,0.455-3.205,1.365s-1.236,2.123-1.236,3.639c0,1.492,0.389,2.66,1.166,3.504
		s1.826,1.266,3.146,1.266c1.117,0,2.172-0.367,3.164-1.102V527.301z"/>
	<path d="M524.252,515.828c1.289-0.805,2.777-1.207,4.465-1.207c3.125,0,4.688,1.641,4.688,4.922v8.344h-2.273v-2.004h-0.059
		c-0.898,1.539-2.223,2.309-3.973,2.309c-1.258,0-2.258-0.34-3-1.02s-1.113-1.598-1.113-2.754c0-2.422,1.434-3.832,4.301-4.23
		l3.844-0.539c0-2.117-0.875-3.176-2.625-3.176c-1.555,0-2.973,0.523-4.254,1.57V515.828z M528.096,521.793
		c-1.063,0.141-1.795,0.406-2.197,0.797s-0.604,0.938-0.604,1.641c0,0.617,0.219,1.121,0.656,1.512s1.016,0.586,1.734,0.586
		c1,0,1.824-0.352,2.473-1.055s0.973-1.586,0.973-2.648v-1.242L528.096,521.793z"/>
	<path d="M548.17,527.887h-2.285v-7.371c0-2.664-0.973-3.996-2.918-3.996c-1.008,0-1.836,0.375-2.484,1.125
		s-0.973,1.699-0.973,2.848v7.395h-2.297v-12.961h2.297v2.145h0.047c0.977-1.633,2.395-2.449,4.254-2.449
		c1.422,0,2.504,0.455,3.246,1.365s1.113,2.236,1.113,3.979V527.887z"/>
	<path d="M429.787,556.686h-2.297v-2.156h-0.047c-0.945,1.641-2.414,2.461-4.406,2.461c-1.641,0-2.945-0.584-3.914-1.752
		s-1.453-2.744-1.453-4.729c0-2.141,0.547-3.857,1.641-5.15s2.523-1.939,4.289-1.939s3.047,0.688,3.844,2.063h0.047v-7.98h2.297
		V556.686z M427.502,548.975c0-1.039-0.342-1.908-1.025-2.607s-1.525-1.049-2.525-1.049c-1.219,0-2.18,0.455-2.883,1.365
		s-1.055,2.15-1.055,3.721c0,1.445,0.338,2.588,1.014,3.428s1.576,1.26,2.701,1.26c1.109,0,2.016-0.412,2.719-1.236
		s1.055-1.85,1.055-3.076V548.975z"/>
	<path d="M433.021,550.346c0-2.141,0.598-3.83,1.793-5.068s2.816-1.857,4.863-1.857c1.945,0,3.471,0.596,4.576,1.787
		s1.658,2.838,1.658,4.939c0,2.047-0.59,3.699-1.77,4.957s-2.762,1.887-4.746,1.887c-1.938,0-3.484-0.609-4.641-1.828
		S433.021,552.338,433.021,550.346z M435.365,550.275c0,1.492,0.377,2.668,1.131,3.527s1.768,1.289,3.041,1.289
		c1.313,0,2.313-0.42,3-1.26s1.031-2.045,1.031-3.615c0-1.578-0.344-2.789-1.031-3.633s-1.688-1.266-3-1.266
		c-1.289,0-2.307,0.441-3.053,1.324S435.365,548.736,435.365,550.275z"/>
	<path d="M458.545,554.857v1.828h-2.297v-19.184h2.297v8.461h0.047c1.016-1.695,2.5-2.543,4.453-2.543
		c1.625,0,2.916,0.572,3.873,1.717s1.436,2.709,1.436,4.693c0,2.188-0.537,3.928-1.611,5.221s-2.506,1.939-4.295,1.939
		c-1.688,0-2.973-0.711-3.855-2.133H458.545z M458.533,551.354c0,1.047,0.34,1.932,1.02,2.654s1.531,1.084,2.555,1.084
		c1.219,0,2.172-0.469,2.859-1.406s1.031-2.234,1.031-3.891c0-1.367-0.32-2.455-0.961-3.264s-1.516-1.213-2.625-1.213
		c-1.125,0-2.053,0.402-2.783,1.207s-1.096,1.828-1.096,3.07V551.354z"/>
	<path d="M482.135,550.791h-9.07c0.039,1.383,0.418,2.451,1.137,3.205s1.723,1.131,3.012,1.131c1.453,0,2.785-0.465,3.996-1.395
		v2.051c-1.141,0.805-2.652,1.207-4.535,1.207c-1.875,0-3.338-0.594-4.389-1.781s-1.576-2.836-1.576-4.945
		c0-1.984,0.576-3.621,1.729-4.91s2.584-1.934,4.295-1.934c1.695,0,3.02,0.545,3.973,1.635s1.43,2.615,1.43,4.576V550.791z
		 M479.838,548.951c-0.008-1.172-0.285-2.078-0.832-2.719s-1.316-0.961-2.309-0.961c-0.914,0-1.705,0.34-2.373,1.02
		s-1.088,1.566-1.26,2.66H479.838z"/>
	<path d="M491.416,556.557c-0.5,0.273-1.176,0.41-2.027,0.41c-2.32,0-3.48-1.285-3.48-3.855v-7.488h-2.227v-1.898h2.227v-3.117
		l2.285-0.727v3.844h3.223v1.898h-3.223v7.078c0,0.852,0.145,1.461,0.434,1.828s0.77,0.551,1.441,0.551
		c0.516,0,0.965-0.145,1.348-0.434V556.557z"/>
	<path d="M500.357,556.557c-0.5,0.273-1.176,0.41-2.027,0.41c-2.32,0-3.48-1.285-3.48-3.855v-7.488h-2.227v-1.898h2.227v-3.117
		l2.285-0.727v3.844h3.223v1.898h-3.223v7.078c0,0.852,0.145,1.461,0.434,1.828s0.77,0.551,1.441,0.551
		c0.516,0,0.965-0.145,1.348-0.434V556.557z"/>
	<path d="M513.436,550.791h-9.07c0.039,1.383,0.418,2.451,1.137,3.205s1.723,1.131,3.012,1.131c1.453,0,2.785-0.465,3.996-1.395
		v2.051c-1.141,0.805-2.652,1.207-4.535,1.207c-1.875,0-3.338-0.594-4.389-1.781s-1.576-2.836-1.576-4.945
		c0-1.984,0.576-3.621,1.729-4.91s2.584-1.934,4.295-1.934c1.695,0,3.02,0.545,3.973,1.635s1.43,2.615,1.43,4.576V550.791z
		 M511.139,548.951c-0.008-1.172-0.285-2.078-0.832-2.719s-1.316-0.961-2.309-0.961c-0.914,0-1.705,0.34-2.373,1.02
		s-1.088,1.566-1.26,2.66H511.139z"/>
	<path d="M523.443,545.998c-0.383-0.273-0.91-0.41-1.582-0.41c-0.891,0-1.625,0.416-2.203,1.248s-0.867,1.928-0.867,3.287v6.563
		h-2.297v-12.961h2.297v2.637h0.047c0.656-1.906,1.789-2.859,3.398-2.859c0.523,0,0.926,0.059,1.207,0.176V545.998z"/>
	<path d="M429.494,585.486h-2.285v-7.371c0-2.664-0.973-3.996-2.918-3.996c-1.008,0-1.836,0.375-2.484,1.125
		s-0.973,1.699-0.973,2.848v7.395h-2.297v-12.961h2.297v2.145h0.047c0.977-1.633,2.395-2.449,4.254-2.449
		c1.422,0,2.504,0.455,3.246,1.365s1.113,2.236,1.113,3.979V585.486z"/>
	<path d="M443.885,579.592h-9.07c0.039,1.383,0.418,2.451,1.137,3.205s1.723,1.131,3.012,1.131c1.453,0,2.785-0.465,3.996-1.395
		v2.051c-1.141,0.805-2.652,1.207-4.535,1.207c-1.875,0-3.338-0.594-4.389-1.781s-1.576-2.836-1.576-4.945
		c0-1.984,0.576-3.621,1.729-4.91s2.584-1.934,4.295-1.934c1.695,0,3.02,0.545,3.973,1.635s1.43,2.615,1.43,4.576V579.592z
		 M441.588,577.752c-0.008-1.172-0.285-2.078-0.832-2.719s-1.316-0.961-2.309-0.961c-0.914,0-1.705,0.34-2.373,1.02
		s-1.088,1.566-1.26,2.66H441.588z"/>
	<path d="M456.752,572.525l-4.336,6.527l4.277,6.434h-2.672l-2.473-4.125c-0.133-0.219-0.32-0.555-0.563-1.008h-0.047
		c-0.008,0.047-0.203,0.383-0.586,1.008l-2.52,4.125h-2.637l4.406-6.363l-4.207-6.598h2.672l2.426,4.336
		c0.148,0.266,0.328,0.609,0.539,1.031h0.047l3.152-5.367H456.752z"/>
	<path d="M465.33,585.357c-0.5,0.273-1.176,0.41-2.027,0.41c-2.32,0-3.48-1.285-3.48-3.855v-7.488h-2.227v-1.898h2.227v-3.117
		l2.285-0.727v3.844h3.223v1.898h-3.223v7.078c0,0.852,0.145,1.461,0.434,1.828s0.77,0.551,1.441,0.551
		c0.516,0,0.965-0.145,1.348-0.434V585.357z"/>
	<path d="M481.373,585.357c-0.5,0.273-1.176,0.41-2.027,0.41c-2.32,0-3.48-1.285-3.48-3.855v-7.488h-2.227v-1.898h2.227v-3.117
		l2.285-0.727v3.844h3.223v1.898h-3.223v7.078c0,0.852,0.145,1.461,0.434,1.828s0.77,0.551,1.441,0.551
		c0.516,0,0.965-0.145,1.348-0.434V585.357z"/>
	<path d="M483.811,567.955c0-0.406,0.139-0.748,0.416-1.025s0.619-0.416,1.025-0.416c0.414,0,0.764,0.137,1.049,0.41
		s0.428,0.617,0.428,1.031c0,0.406-0.143,0.744-0.428,1.014s-0.635,0.404-1.049,0.404s-0.758-0.135-1.031-0.404
		S483.811,568.361,483.811,567.955z M484.08,585.486v-12.961h2.297v12.961H484.08z"/>
	<path d="M509.135,585.486h-2.297v-7.441c0-1.406-0.219-2.412-0.656-3.018s-1.156-0.908-2.156-0.908
		c-0.844,0-1.566,0.395-2.168,1.184s-0.902,1.723-0.902,2.801v7.383h-2.297v-7.676c0-2.461-0.949-3.691-2.848-3.691
		c-0.875,0-1.6,0.375-2.174,1.125s-0.861,1.707-0.861,2.871v7.371h-2.297v-12.961h2.297v2.051h0.047
		c0.922-1.57,2.27-2.355,4.043-2.355c0.867,0,1.633,0.238,2.297,0.715s1.125,1.121,1.383,1.934c0.961-1.766,2.398-2.648,4.313-2.648
		c2.852,0,4.277,1.758,4.277,5.273V585.486z"/>
	<path d="M523.525,579.592h-9.07c0.039,1.383,0.418,2.451,1.137,3.205s1.723,1.131,3.012,1.131c1.453,0,2.785-0.465,3.996-1.395
		v2.051c-1.141,0.805-2.652,1.207-4.535,1.207c-1.875,0-3.338-0.594-4.389-1.781s-1.576-2.836-1.576-4.945
		c0-1.984,0.576-3.621,1.729-4.91s2.584-1.934,4.295-1.934c1.695,0,3.02,0.545,3.973,1.635s1.43,2.615,1.43,4.576V579.592z
		 M521.229,577.752c-0.008-1.172-0.285-2.078-0.832-2.719s-1.316-0.961-2.309-0.961c-0.914,0-1.705,0.34-2.373,1.02
		s-1.088,1.566-1.26,2.66H521.229z"/>
	<path d="M525.928,584.279c0-0.422,0.145-0.777,0.434-1.066s0.648-0.434,1.078-0.434c0.438,0,0.801,0.146,1.09,0.439
		s0.434,0.646,0.434,1.061c0,0.406-0.145,0.756-0.434,1.049s-0.656,0.439-1.102,0.439c-0.43,0-0.787-0.146-1.072-0.439
		S525.928,584.686,525.928,584.279z"/>
</g>
<g>
	<rect x="632.246" y="507.308" fill="none" width="157.208" height="101.713"/>
	<path d="M638.68,511.715h-1.746v14.191h1.746v1.98h-5.836v-1.98h1.746v-14.191h-1.746v-1.98h5.836V511.715z"/>
	<path d="M659.398,527.887h-2.285v-7.453c0-2.609-0.969-3.914-2.906-3.914c-0.992,0-1.816,0.381-2.473,1.143
		s-0.984,1.721-0.984,2.877v7.348h-2.297v-19.184h2.297v8.355h0.047c0.992-1.625,2.402-2.438,4.23-2.438
		c2.914,0,4.371,1.762,4.371,5.285V527.887z"/>
	<path d="M663.535,515.828c1.289-0.805,2.777-1.207,4.465-1.207c3.125,0,4.688,1.641,4.688,4.922v8.344h-2.273v-2.004h-0.059
		c-0.898,1.539-2.223,2.309-3.973,2.309c-1.258,0-2.258-0.34-3-1.02s-1.113-1.598-1.113-2.754c0-2.422,1.434-3.832,4.301-4.23
		l3.844-0.539c0-2.117-0.875-3.176-2.625-3.176c-1.555,0-2.973,0.523-4.254,1.57V515.828z M667.379,521.793
		c-1.063,0.141-1.795,0.406-2.197,0.797s-0.604,0.938-0.604,1.641c0,0.617,0.219,1.121,0.656,1.512s1.016,0.586,1.734,0.586
		c1,0,1.824-0.352,2.473-1.055s0.973-1.586,0.973-2.648v-1.242L667.379,521.793z"/>
	<path d="M682.719,527.758c-0.5,0.273-1.176,0.41-2.027,0.41c-2.32,0-3.48-1.285-3.48-3.855v-7.488h-2.227v-1.898h2.227v-3.117
		l2.285-0.727v3.844h3.223v1.898h-3.223v7.078c0,0.852,0.145,1.461,0.434,1.828s0.77,0.551,1.441,0.551
		c0.516,0,0.965-0.145,1.348-0.434V527.758z"/>
	<path d="M695.797,521.992h-9.07c0.039,1.383,0.418,2.451,1.137,3.205s1.723,1.131,3.012,1.131c1.453,0,2.785-0.465,3.996-1.395
		v2.051c-1.141,0.805-2.652,1.207-4.535,1.207c-1.875,0-3.338-0.594-4.389-1.781s-1.576-2.836-1.576-4.945
		c0-1.984,0.576-3.621,1.729-4.91s2.584-1.934,4.295-1.934c1.695,0,3.02,0.545,3.973,1.635s1.43,2.615,1.43,4.576V521.992z
		 M693.5,520.152c-0.008-1.172-0.285-2.078-0.832-2.719s-1.316-0.961-2.309-0.961c-0.914,0-1.705,0.34-2.373,1.02
		s-1.088,1.566-1.26,2.66H693.5z"/>
	<path d="M705.23,525.086c1.156,0.836,2.402,1.254,3.738,1.254c1.789,0,2.684-0.586,2.684-1.758c0-0.5-0.195-0.912-0.586-1.236
		s-1.184-0.709-2.379-1.154c-1.438-0.578-2.371-1.15-2.801-1.717s-0.645-1.252-0.645-2.057c0-1.148,0.486-2.068,1.459-2.76
		s2.17-1.037,3.592-1.037c1.102,0,2.125,0.191,3.07,0.574v2.215c-0.969-0.625-2.066-0.938-3.293-0.938
		c-0.734,0-1.332,0.16-1.793,0.48s-0.691,0.742-0.691,1.266c0,0.516,0.166,0.918,0.498,1.207s1.068,0.66,2.209,1.113
		c1.445,0.539,2.422,1.098,2.93,1.676s0.762,1.293,0.762,2.145c0,1.188-0.486,2.123-1.459,2.807s-2.232,1.025-3.779,1.025
		c-1.344,0-2.516-0.254-3.516-0.762V525.086z"/>
	<path d="M719.363,526.059v7.793h-2.297v-18.926h2.297v2.238h0.047c1.016-1.695,2.5-2.543,4.453-2.543
		c1.656,0,2.955,0.58,3.896,1.74s1.412,2.717,1.412,4.67c0,2.156-0.533,3.889-1.6,5.197s-2.502,1.963-4.307,1.963
		c-1.664,0-2.949-0.711-3.855-2.133H719.363z M719.352,522.543c0,1.055,0.34,1.943,1.02,2.666s1.531,1.084,2.555,1.084
		c1.219,0,2.172-0.469,2.859-1.406s1.031-2.234,1.031-3.891c0-1.398-0.32-2.494-0.961-3.287s-1.516-1.189-2.625-1.189
		c-1.133,0-2.063,0.402-2.789,1.207s-1.09,1.836-1.09,3.094V522.543z"/>
	<path d="M731.527,521.547c0-2.141,0.598-3.83,1.793-5.068s2.816-1.857,4.863-1.857c1.945,0,3.471,0.596,4.576,1.787
		s1.658,2.838,1.658,4.939c0,2.047-0.59,3.699-1.77,4.957s-2.762,1.887-4.746,1.887c-1.938,0-3.484-0.609-4.641-1.828
		S731.527,523.539,731.527,521.547z M733.871,521.477c0,1.492,0.377,2.668,1.131,3.527s1.768,1.289,3.041,1.289
		c1.313,0,2.313-0.42,3-1.26s1.031-2.045,1.031-3.615c0-1.578-0.344-2.789-1.031-3.633s-1.688-1.266-3-1.266
		c-1.289,0-2.307,0.441-3.053,1.324S733.871,519.938,733.871,521.477z"/>
	<path d="M754.602,517.199c-0.383-0.273-0.91-0.41-1.582-0.41c-0.891,0-1.625,0.416-2.203,1.248s-0.867,1.928-0.867,3.287v6.563
		h-2.297v-12.961h2.297v2.637h0.047c0.656-1.906,1.789-2.859,3.398-2.859c0.523,0,0.926,0.059,1.207,0.176V517.199z"/>
	<path d="M763.789,527.758c-0.5,0.273-1.176,0.41-2.027,0.41c-2.32,0-3.48-1.285-3.48-3.855v-7.488h-2.227v-1.898h2.227v-3.117
		l2.285-0.727v3.844h3.223v1.898h-3.223v7.078c0,0.852,0.145,1.461,0.434,1.828s0.77,0.551,1.441,0.551
		c0.516,0,0.965-0.145,1.348-0.434V527.758z"/>
	<path d="M765.781,525.086c1.156,0.836,2.402,1.254,3.738,1.254c1.789,0,2.684-0.586,2.684-1.758c0-0.5-0.195-0.912-0.586-1.236
		s-1.184-0.709-2.379-1.154c-1.438-0.578-2.371-1.15-2.801-1.717s-0.645-1.252-0.645-2.057c0-1.148,0.486-2.068,1.459-2.76
		s2.17-1.037,3.592-1.037c1.102,0,2.125,0.191,3.07,0.574v2.215c-0.969-0.625-2.066-0.938-3.293-0.938
		c-0.734,0-1.332,0.16-1.793,0.48s-0.691,0.742-0.691,1.266c0,0.516,0.166,0.918,0.498,1.207s1.068,0.66,2.209,1.113
		c1.445,0.539,2.422,1.098,2.93,1.676s0.762,1.293,0.762,2.145c0,1.188-0.486,2.123-1.459,2.807s-2.232,1.025-3.779,1.025
		c-1.344,0-2.516-0.254-3.516-0.762V525.086z"/>
	<path d="M777.805,526.656c0-0.422,0.148-0.775,0.445-1.061s0.652-0.428,1.066-0.428c0.406,0,0.758,0.148,1.055,0.445
		s0.445,0.645,0.445,1.043c0,0.391-0.145,0.732-0.434,1.025s-0.625,0.439-1.008,0.439c-0.469,0-0.848-0.146-1.137-0.439
		S777.805,527.047,777.805,526.656z M780.488,509.734l-0.27,12.984h-1.875l-0.258-12.984H780.488z"/>
</g>
<g>
</g>
<g>
</g>
<g>
</g>
<g>
</g>
<g>
</g>
<g>
</g>
</svg>
