<?xml version="1.0" encoding="utf-8"?>
<!-- Generator: Adobe Illustrator 16.2.0, SVG Export Plug-In . SVG Version: 6.00 Build 0)  -->
<!DOCTYPE svg PUBLIC "-//W3C//DTD SVG 1.1//EN" "http://www.w3.org/Graphics/SVG/1.1/DTD/svg11.dtd">
<svg version="1.1" id="graph" xmlns="http://www.w3.org/2000/svg" xmlns:xlink="http://www.w3.org/1999/xlink" x="0px" y="0px"
	 width="800px" height="640px" viewBox="0 0 800 640" enable-background="new 0 0 800 640" xml:space="preserve">
<g>
	<g>
		<path d="M161.179,461.975c0-40.937,0-81.873,0-122.81c0-56.783,0-113.565,0-170.348c0-5.341,0-10.683,0-16.024
			c0-2.389-3.515-3.545-4.659-1.262c-2.312,4.616-4.623,9.231-6.934,13.848c-1.439,2.874,2.874,5.407,4.317,2.523
			c2.312-4.616,4.623-9.231,6.934-13.848c-1.553-0.42-3.106-0.841-4.659-1.262c0,40.937,0,81.873,0,122.81
			c0,56.782,0,113.565,0,170.349c0,5.341,0,10.683,0,16.023C156.179,465.199,161.179,465.199,161.179,461.975L161.179,461.975z"/>
	</g>
</g>
<path fill="none" stroke="#E8343F" stroke-width="5" stroke-miterlimit="10" d="M506.164,391.199
	c0-56.109-134.963-101.511-301.751-101.511"/>
<path fill="none" stroke="#193391" stroke-width="5" stroke-miterlimit="10" d="M197.313,390.414
	c0-55.703,138.75-100.778,310.219-100.778"/>
<line fill="none" stroke="#E8343F" stroke-width="5" stroke-miterlimit="10" x1="390.065" y1="166.773" x2="443.351" y2="166.773"/>
<line fill="none" stroke="#3F469B" stroke-width="5" stroke-miterlimit="10" x1="390.065" y1="197.43" x2="443.351" y2="197.43"/>
<g>
	<path d="M458.117,169.525c0.684-0.096,0.936-0.168,0.936-0.456c0-0.312-0.36-1.248-0.804-2.351h-2.771
		c-0.12,0.228-0.72,1.847-0.72,2.219c0,0.408,0.324,0.479,0.995,0.587v0.168h-2.722v-0.168c0.839-0.168,0.995-0.276,1.438-1.355
		l2.603-6.105l0.145-0.06l0.803,2.219c0.552,1.499,1.092,2.998,1.548,4.149c0.359,0.888,0.455,1.02,1.295,1.151v0.168h-2.746
		V169.525z M456.953,163.121c-0.479,1.067-0.947,2.207-1.331,3.214h2.519l-1.163-3.214H456.953z"/>
	<path d="M466.732,164.872c-0.659,0.108-0.743,0.216-1.163,0.983c-0.372,0.696-1.127,2.291-1.823,3.97h-0.191
		c-0.456-1.343-0.996-2.698-1.487-3.958c-0.324-0.768-0.372-0.888-1.115-0.996v-0.168h2.183v0.168
		c-0.432,0.084-0.611,0.132-0.611,0.36c0,0.12,0.048,0.276,0.144,0.516c0.252,0.66,0.756,2.099,1.163,3.094
		c0.492-1.031,1.439-3.142,1.439-3.538c0-0.276-0.204-0.36-0.659-0.432v-0.168h2.122V164.872z"/>
	<path d="M471.005,168.781c-0.708,0.816-1.523,1.043-1.799,1.043c-1.416,0-2.291-1.127-2.291-2.398c0-1.763,1.439-2.854,2.41-2.854
		c1.032,0,1.775,0.839,1.775,1.691c0,0.24-0.012,0.276-0.204,0.312c-0.191,0.036-1.727,0.168-3.382,0.216
		c-0.012,1.823,1.079,2.471,1.907,2.471c0.407,0,0.839-0.084,1.451-0.66L471.005,168.781z M467.587,166.407
		c0.275,0,1.967-0.024,2.482-0.036c0.3,0,0.3-0.12,0.3-0.192c0-0.671-0.504-1.271-1.367-1.271
		C468.402,164.908,467.767,165.435,467.587,166.407z"/>
	<path d="M471.812,169.525c0.731-0.048,0.852-0.216,0.852-0.971v-2.351c0-0.875-0.084-0.947-0.827-1.031v-0.144
		c0.491-0.096,0.971-0.24,1.402-0.503v1.463h0.024c0.288-0.647,0.936-1.415,1.523-1.415c0.359,0,0.588,0.312,0.588,0.503
		c0,0.228-0.24,0.444-0.42,0.444c-0.048,0-0.084-0.012-0.108-0.06c-0.18-0.167-0.275-0.251-0.504-0.251
		c-0.323,0-0.791,0.54-1.104,1.415v1.955c0,0.744,0.108,0.899,1.067,0.947v0.168h-2.494V169.525z"/>
	<path d="M479.441,169.825c-0.024,0-0.264-0.096-0.384-0.216c-0.145-0.156-0.192-0.3-0.264-0.563
		c-0.468,0.359-1.008,0.779-1.451,0.779c-0.828,0-1.392-0.624-1.392-1.367c0-0.54,0.372-0.923,1.199-1.175
		c0.611-0.18,1.367-0.468,1.644-0.636c0-0.587-0.013-1.631-1.092-1.631c-0.191,0.012-0.84,0.06-1.043,1.019
		c-0.024,0.084-0.097,0.204-0.265,0.204s-0.359-0.168-0.359-0.408c0-0.18,0.144-0.324,0.336-0.432c0.3-0.204,1.104-0.696,1.69-0.828
		c0.588,0,1.332,0.384,1.332,1.439v2.579c0,0.492,0.18,0.684,0.432,0.684c0.204,0,0.396-0.072,0.527-0.156l0.108,0.204
		L479.441,169.825z M478.794,166.946c-0.252,0.144-1.008,0.432-1.271,0.54c-0.54,0.204-0.863,0.432-0.863,0.876
		c0,0.624,0.503,0.947,0.936,0.947c0.407,0,0.947-0.3,1.199-0.612V166.946z"/>
	<path d="M484.541,165.255c0.24,0.252,0.408,0.66,0.408,1.02c0,1.259-1.128,1.859-1.979,1.859c-0.12,0-0.252-0.012-0.432-0.036
		c-0.3,0.108-0.695,0.36-0.695,0.612c0,0.228,0.275,0.444,0.743,0.444c0.504,0,0.972-0.048,1.428-0.048
		c0.827,0,1.679,0.24,1.679,1.343c0,1.092-1.308,2.291-2.878,2.291c-1.319,0-2.039-0.768-2.039-1.535c0-0.3,0.12-0.516,0.239-0.696
		c0.24-0.276,0.792-0.66,1.056-0.875c-0.491-0.108-1.043-0.528-0.995-1.031c0.371-0.108,0.936-0.432,1.115-0.624
		c-0.54-0.18-1.092-0.756-1.092-1.451c0-1.631,1.812-2.411,3.011-1.655c0.611-0.048,1.079-0.108,1.607-0.204l0.071,0.096
		c-0.144,0.156-0.371,0.419-0.539,0.492H484.541z M481.459,170.952c0,0.755,0.695,1.367,1.703,1.367
		c1.354,0,1.979-0.744,1.979-1.583c0-0.384-0.191-0.72-0.504-0.888c-0.336-0.192-0.743-0.204-1.403-0.204
		C481.519,169.645,481.459,170.749,481.459,170.952z M481.843,166.179c0,1.116,0.552,1.715,1.295,1.715
		c0.54,0,1.079-0.384,1.079-1.403c0-1.08-0.432-1.691-1.247-1.691C482.311,164.812,481.843,165.279,481.843,166.179z"/>
	<path d="M490.373,168.781c-0.708,0.816-1.523,1.043-1.799,1.043c-1.415,0-2.291-1.127-2.291-2.398c0-1.763,1.439-2.854,2.411-2.854
		c1.031,0,1.774,0.839,1.774,1.691c0,0.24-0.012,0.276-0.204,0.312c-0.191,0.036-1.727,0.168-3.382,0.216
		c-0.012,1.823,1.079,2.471,1.907,2.471c0.407,0,0.839-0.084,1.451-0.66L490.373,168.781z M486.955,166.407
		c0.275,0,1.967-0.024,2.482-0.036c0.3,0,0.3-0.12,0.3-0.192c0-0.671-0.504-1.271-1.367-1.271
		C487.771,164.908,487.135,165.435,486.955,166.407z"/>
	<path d="M493.543,172.451c0.696-0.048,0.899-0.204,0.899-0.983v-5.397c0-0.804-0.048-0.839-0.839-0.971v-0.156
		c0.384-0.06,1.019-0.276,1.415-0.492v0.864l1.439-0.624c0.191-0.072,0.335-0.12,0.479-0.12c1.355,0,2.146,1.031,2.146,2.063
		c0,1.811-1.463,2.95-3.274,3.19c-0.348-0.024-0.659-0.156-0.791-0.264v1.751c0,0.936,0.168,1.091,1.199,1.139v0.144h-2.675V172.451
		z M495.019,168.733c0.264,0.312,0.743,0.54,1.355,0.54c1.031,0,2.026-0.708,2.026-2.195c0-1.139-0.636-2.015-1.919-2.015
		c-0.456,0-1.092,0.264-1.463,0.552V168.733z"/>
	<path d="M499.783,169.525c0.731-0.048,0.863-0.228,0.863-0.971v-5.637c0-0.755-0.071-0.804-0.899-0.959v-0.132
		c0.54-0.096,1.151-0.276,1.476-0.408v4.078c0.479-0.503,1.163-0.923,1.871-0.923c0.923,0,1.606,0.6,1.606,1.979v2.003
		c0,0.755,0.132,0.923,0.864,0.971v0.168h-2.351v-0.168c0.803-0.048,0.911-0.228,0.911-1.043v-1.643
		c0-1.127-0.336-1.727-1.476-1.727c-0.563,0.036-1.091,0.276-1.427,0.696v2.674c0,0.815,0.12,0.996,0.947,1.043v0.168h-2.375
		L499.783,169.525z"/>
	<path d="M505.759,164.704h2.195v0.168c-0.42,0.084-0.624,0.156-0.624,0.396c0,0.072,0.024,0.18,0.084,0.3l1.296,3.19
		c0.18-0.372,1.343-2.831,1.343-3.43c0-0.312-0.204-0.384-0.695-0.456v-0.168h2.242v0.168c-0.671,0.084-0.719,0.228-1.091,0.863
		c-0.36,0.612-0.792,1.595-1.787,3.646c-0.876,1.799-1.199,2.483-1.367,3.119c-0.061,0.18-0.192,0.24-0.348,0.24
		c-0.288,0-0.54-0.24-0.54-0.492c0-0.168,0.132-0.252,0.3-0.372c0.876-0.6,1.476-2.183,1.476-2.314c0-0.144-0.708-2.123-1.392-3.778
		c-0.264-0.612-0.348-0.792-1.092-0.912V164.704z"/>
	<path d="M511.843,168.062c0.228,0.768,0.768,1.499,1.499,1.499c0.504,0,0.96-0.288,0.96-0.948c0-0.635-0.408-0.947-0.996-1.187
		c-0.756-0.288-1.427-0.684-1.427-1.439c0-0.744,0.671-1.427,1.715-1.415c0.432,0,0.72,0.096,0.936,0.192
		c0.084,0.276,0.191,0.875,0.228,1.211l-0.168,0.072c-0.203-0.6-0.647-1.211-1.259-1.211c-0.588,0-0.888,0.408-0.888,0.888
		c0,0.587,0.588,0.875,1.067,1.067c0.84,0.324,1.427,0.755,1.427,1.535c0,0.959-0.875,1.499-1.799,1.499
		c-0.623,0-1.127-0.216-1.295-0.396c-0.084-0.192-0.144-0.924-0.18-1.308L511.843,168.062z"/>
	<path d="M515.586,169.525c0.768-0.06,0.888-0.216,0.888-0.912v-2.495c0-0.768-0.084-0.827-0.768-0.947v-0.156
		c0.504-0.108,0.888-0.24,1.343-0.48v4.078c0,0.696,0.12,0.852,0.9,0.912v0.168h-2.363V169.525z M517.229,162.401
		c0,0.252-0.204,0.479-0.456,0.479c-0.24,0-0.456-0.228-0.456-0.479c0-0.288,0.216-0.504,0.456-0.504
		C517.049,161.897,517.229,162.149,517.229,162.401z"/>
	<path d="M523.061,168.613c-0.504,0.672-1.332,1.211-2.052,1.211c-1.463,0-2.386-1.151-2.386-2.314c0-2.231,2.122-2.938,2.974-2.938
		c0.324,0,1.283,0.204,1.283,0.587c0,0.192-0.239,0.42-0.407,0.42c-0.048,0-0.096-0.036-0.168-0.096
		c-0.42-0.324-0.815-0.432-1.428-0.432c-0.719,0-1.606,0.564-1.606,1.955c0.012,1.715,1.235,2.255,2.015,2.255
		c0.575,0,0.995-0.144,1.631-0.815L523.061,168.613z"/>
	<path d="M527.213,169.825c-0.024,0-0.264-0.096-0.384-0.216c-0.145-0.156-0.192-0.3-0.264-0.563
		c-0.468,0.359-1.008,0.779-1.451,0.779c-0.828,0-1.392-0.624-1.392-1.367c0-0.54,0.372-0.923,1.199-1.175
		c0.611-0.18,1.367-0.468,1.644-0.636c0-0.587-0.013-1.631-1.092-1.631c-0.191,0.012-0.84,0.06-1.043,1.019
		c-0.024,0.084-0.097,0.204-0.265,0.204s-0.359-0.168-0.359-0.408c0-0.18,0.144-0.324,0.336-0.432c0.3-0.204,1.104-0.696,1.69-0.828
		c0.588,0,1.332,0.384,1.332,1.439v2.579c0,0.492,0.18,0.684,0.432,0.684c0.204,0,0.396-0.072,0.527-0.156l0.108,0.204
		L527.213,169.825z M526.565,166.946c-0.252,0.144-1.008,0.432-1.271,0.54c-0.54,0.204-0.863,0.432-0.863,0.876
		c0,0.624,0.503,0.947,0.936,0.947c0.407,0,0.947-0.3,1.199-0.612V166.946z"/>
	<path d="M528.45,169.525c0.768-0.048,0.888-0.216,0.888-0.959v-5.613c0-0.828-0.096-0.912-0.863-0.983v-0.144
		c0.588-0.072,1.235-0.288,1.439-0.408v7.148c0,0.744,0.107,0.912,0.899,0.959v0.168h-2.363V169.525z"/>
	<path d="M533.838,169.525c0.732-0.048,0.84-0.192,0.84-0.947v-3.49h-0.863l-0.048-0.132l0.323-0.252h0.588
		c0-0.504,0.012-1.056,0.096-1.283c0.108-0.252,0.313-0.875,0.899-1.367c0.444-0.372,0.876-0.576,1.284-0.636
		c0.419,0,0.983,0.384,0.983,0.624s-0.276,0.36-0.36,0.36c-0.048,0-0.096-0.024-0.144-0.084c-0.204-0.204-0.588-0.348-1.044-0.348
		c-0.275,0-0.516,0.096-0.707,0.3c-0.192,0.228-0.408,0.959-0.42,1.883l-0.012,0.552h1.463c0.024,0.06,0.036,0.108,0.036,0.168
		c0,0.084-0.036,0.18-0.132,0.216h-1.367v3.49c0,0.744,0.096,0.899,1.103,0.971v0.144h-2.519V169.525z"/>
	<path d="M536.994,169.525c0.768-0.06,0.888-0.216,0.888-0.912v-2.495c0-0.768-0.084-0.827-0.768-0.947v-0.156
		c0.504-0.108,0.888-0.24,1.343-0.48v4.078c0,0.696,0.12,0.852,0.9,0.912v0.168h-2.363V169.525z M538.638,162.401
		c0,0.252-0.204,0.479-0.456,0.479c-0.24,0-0.456-0.228-0.456-0.479c0-0.288,0.216-0.504,0.456-0.504
		C538.457,161.897,538.638,162.149,538.638,162.401z"/>
	<path d="M542.177,169.693c-0.216,0.12-0.348,0.132-0.492,0.132c-0.671,0-0.995-0.479-0.995-1.295v-3.442h-0.863l-0.036-0.132
		l0.324-0.252h0.575v-0.66l0.408-0.815l0.167-0.012v1.487h1.439c0.024,0.048,0.036,0.096,0.036,0.144c0,0.084-0.036,0.168-0.12,0.24
		h-1.355v3.118c0,0.972,0.324,1.175,0.72,1.175c0.408,0,0.696-0.167,0.828-0.24l0.096,0.18L542.177,169.693z"/>
	<path d="M543.21,169.525c0.695-0.048,0.888-0.228,0.888-0.947v-2.411c0-0.804-0.084-0.852-0.756-0.984v-0.156
		c0.479-0.12,0.96-0.228,1.331-0.503v0.995c0.24-0.144,0.54-0.36,0.912-0.611c0.336-0.204,0.636-0.336,0.972-0.336
		c0.995,0,1.559,0.611,1.559,1.559v2.387c0,0.839,0.108,0.959,0.779,1.007v0.168h-2.314v-0.168c0.815-0.048,0.96-0.216,0.96-1.007
		v-1.967c0-0.684-0.192-1.451-1.296-1.451c-0.587,0-1.199,0.359-1.571,0.731v2.698c0,0.768,0.12,0.948,0.948,0.996v0.168h-2.411
		V169.525z"/>
	<path d="M553.743,168.781c-0.708,0.816-1.523,1.043-1.799,1.043c-1.416,0-2.291-1.127-2.291-2.398c0-1.763,1.439-2.854,2.41-2.854
		c1.032,0,1.775,0.839,1.775,1.691c0,0.24-0.012,0.276-0.204,0.312c-0.191,0.036-1.727,0.168-3.382,0.216
		c-0.012,1.823,1.079,2.471,1.907,2.471c0.407,0,0.839-0.084,1.451-0.66L553.743,168.781z M550.325,166.407
		c0.275,0,1.967-0.024,2.482-0.036c0.3,0,0.3-0.12,0.3-0.192c0-0.671-0.504-1.271-1.367-1.271
		C551.141,164.908,550.505,165.435,550.325,166.407z"/>
	<path d="M554.802,168.062c0.228,0.768,0.768,1.499,1.499,1.499c0.504,0,0.96-0.288,0.96-0.948c0-0.635-0.408-0.947-0.996-1.187
		c-0.756-0.288-1.427-0.684-1.427-1.439c0-0.744,0.671-1.427,1.715-1.415c0.432,0,0.72,0.096,0.936,0.192
		c0.084,0.276,0.191,0.875,0.228,1.211l-0.168,0.072c-0.203-0.6-0.647-1.211-1.259-1.211c-0.588,0-0.888,0.408-0.888,0.888
		c0,0.587,0.588,0.875,1.067,1.067c0.84,0.324,1.427,0.755,1.427,1.535c0,0.959-0.875,1.499-1.799,1.499
		c-0.623,0-1.127-0.216-1.295-0.396c-0.084-0.192-0.144-0.924-0.18-1.308L554.802,168.062z"/>
	<path d="M558.834,168.062c0.228,0.768,0.768,1.499,1.499,1.499c0.504,0,0.96-0.288,0.96-0.948c0-0.635-0.408-0.947-0.996-1.187
		c-0.755-0.288-1.427-0.684-1.427-1.439c0-0.744,0.672-1.427,1.715-1.415c0.432,0,0.72,0.096,0.936,0.192
		c0.084,0.276,0.191,0.875,0.228,1.211l-0.168,0.072c-0.203-0.6-0.647-1.211-1.259-1.211c-0.588,0-0.888,0.408-0.888,0.888
		c0,0.587,0.588,0.875,1.067,1.067c0.84,0.324,1.427,0.755,1.427,1.535c0,0.959-0.875,1.499-1.799,1.499
		c-0.623,0-1.127-0.216-1.295-0.396c-0.084-0.192-0.144-0.924-0.18-1.308L558.834,168.062z"/>
	<path d="M570.495,167.102c0,1.811-1.487,2.723-2.639,2.723c-1.583,0-2.663-1.199-2.663-2.506c0-1.943,1.632-2.747,2.639-2.747
		C569.344,164.572,570.495,165.711,570.495,167.102z M565.949,166.922c0,1.535,0.804,2.626,2.075,2.626
		c1.007,0,1.738-0.647,1.738-2.267c0-1.164-0.707-2.423-2.038-2.423C566.621,164.859,565.949,165.723,565.949,166.922z"/>
	<path d="M571.36,169.525c0.732-0.048,0.84-0.192,0.84-0.947v-3.49h-0.863l-0.048-0.132l0.323-0.252h0.588
		c0-0.504,0.012-1.056,0.096-1.283c0.108-0.252,0.313-0.875,0.899-1.367c0.444-0.372,0.876-0.576,1.284-0.636
		c0.419,0,0.983,0.384,0.983,0.624s-0.276,0.36-0.36,0.36c-0.048,0-0.096-0.024-0.144-0.084c-0.204-0.204-0.588-0.348-1.044-0.348
		c-0.275,0-0.516,0.096-0.707,0.3c-0.192,0.228-0.408,0.959-0.42,1.883l-0.012,0.552h1.463c0.023,0.06,0.036,0.108,0.036,0.168
		c0,0.084-0.036,0.18-0.132,0.216h-1.367v3.49c0,0.744,0.096,0.899,1.104,0.971v0.144h-2.52V169.525z"/>
	<path d="M577.289,168.062c0.228,0.768,0.768,1.499,1.499,1.499c0.504,0,0.96-0.288,0.96-0.948c0-0.635-0.408-0.947-0.996-1.187
		c-0.755-0.288-1.427-0.684-1.427-1.439c0-0.744,0.672-1.427,1.715-1.415c0.432,0,0.72,0.096,0.936,0.192
		c0.084,0.276,0.191,0.875,0.228,1.211l-0.168,0.072c-0.203-0.6-0.647-1.211-1.259-1.211c-0.588,0-0.888,0.408-0.888,0.888
		c0,0.587,0.588,0.875,1.067,1.067c0.84,0.324,1.427,0.755,1.427,1.535c0,0.959-0.875,1.499-1.799,1.499
		c-0.623,0-1.127-0.216-1.295-0.396c-0.084-0.192-0.144-0.924-0.18-1.308L577.289,168.062z"/>
	<path d="M583.324,169.693c-0.216,0.12-0.348,0.132-0.492,0.132c-0.671,0-0.995-0.479-0.995-1.295v-3.442h-0.863l-0.036-0.132
		l0.323-0.252h0.576v-0.66l0.408-0.815l0.168-0.012v1.487h1.438c0.024,0.048,0.036,0.096,0.036,0.144c0,0.084-0.036,0.168-0.12,0.24
		h-1.354v3.118c0,0.972,0.323,1.175,0.719,1.175c0.408,0,0.696-0.167,0.828-0.24l0.096,0.18L583.324,169.693z"/>
	<path d="M585.748,167.762c0,1.2,0.575,1.511,1.247,1.511c0.479,0,1.056-0.24,1.56-0.744v-2.638c0-0.708-0.168-0.756-0.6-0.84
		l-0.456-0.072v-0.132c0.516-0.012,1.331-0.132,1.631-0.216v3.91c0,0.6,0.132,0.66,0.6,0.696l0.36,0.024v0.168
		c-0.492,0.06-1.008,0.24-1.476,0.408l-0.06-0.06v-0.923c-0.313,0.228-0.612,0.492-1.032,0.708c-0.348,0.204-0.6,0.264-0.911,0.264
		c-0.72,0-1.439-0.372-1.439-1.703v-2.219c0-0.708-0.18-0.768-0.432-0.839l-0.384-0.084v-0.12c0.276-0.024,1.163-0.168,1.428-0.228
		c-0.036,0.24-0.036,0.66-0.036,1.559V167.762z"/>
	<path d="M593.919,161.825c0.624-0.084,1.355-0.288,1.595-0.408v7.052c0,0.587,0.145,0.708,0.54,0.755l0.432,0.036v0.144
		c-0.264,0.048-0.995,0.192-1.547,0.42v-0.852l-0.695,0.384c-0.696,0.372-1.092,0.468-1.235,0.468c-1.032,0-2.279-0.863-2.279-2.411
		c-0.023-1.571,1.331-2.842,3.154-2.842c0.264,0,0.731,0.036,1.056,0.132v-1.775c0-0.816-0.096-0.852-1.02-0.948V161.825z
		 M594.938,165.543c-0.348-0.432-0.947-0.624-1.583-0.624c-0.768,0-1.932,0.432-1.932,2.171c0,1.367,0.899,2.195,1.968,2.195
		c0.719-0.012,1.223-0.396,1.547-0.648V165.543z"/>
	<path d="M601.118,168.781c-0.708,0.816-1.523,1.043-1.799,1.043c-1.416,0-2.291-1.127-2.291-2.398c0-1.763,1.439-2.854,2.41-2.854
		c1.032,0,1.775,0.839,1.775,1.691c0,0.24-0.012,0.276-0.204,0.312c-0.191,0.036-1.727,0.168-3.382,0.216
		c-0.012,1.823,1.079,2.471,1.907,2.471c0.407,0,0.839-0.084,1.451-0.66L601.118,168.781z M597.7,166.407
		c0.275,0,1.967-0.024,2.482-0.036c0.3,0,0.3-0.12,0.3-0.192c0-0.671-0.504-1.271-1.367-1.271
		C598.516,164.908,597.88,165.435,597.7,166.407z"/>
	<path d="M601.889,169.525c0.695-0.048,0.888-0.228,0.888-0.947v-2.411c0-0.804-0.084-0.852-0.756-0.984v-0.156
		c0.48-0.12,0.96-0.228,1.331-0.503v0.995c0.24-0.144,0.54-0.36,0.912-0.611c0.336-0.204,0.636-0.336,0.972-0.336
		c0.995,0,1.559,0.611,1.559,1.559v2.387c0,0.839,0.108,0.959,0.779,1.007v0.168h-2.314v-0.168c0.815-0.048,0.96-0.216,0.96-1.007
		v-1.967c0-0.684-0.192-1.451-1.296-1.451c-0.587,0-1.199,0.359-1.571,0.731v2.698c0,0.768,0.12,0.948,0.948,0.996v0.168h-2.411
		V169.525z"/>
	<path d="M610.504,169.693c-0.216,0.12-0.348,0.132-0.492,0.132c-0.671,0-0.995-0.479-0.995-1.295v-3.442h-0.863l-0.036-0.132
		l0.323-0.252h0.576v-0.66l0.408-0.815l0.168-0.012v1.487h1.438c0.024,0.048,0.036,0.096,0.036,0.144c0,0.084-0.036,0.168-0.12,0.24
		h-1.354v3.118c0,0.972,0.323,1.175,0.719,1.175c0.408,0,0.696-0.167,0.828-0.24l0.096,0.18L610.504,169.693z"/>
	<path d="M611.824,168.062c0.228,0.768,0.768,1.499,1.499,1.499c0.504,0,0.96-0.288,0.96-0.948c0-0.635-0.408-0.947-0.996-1.187
		c-0.755-0.288-1.427-0.684-1.427-1.439c0-0.744,0.672-1.427,1.715-1.415c0.432,0,0.72,0.096,0.936,0.192
		c0.084,0.276,0.191,0.875,0.228,1.211l-0.168,0.072c-0.203-0.6-0.647-1.211-1.259-1.211c-0.588,0-0.888,0.408-0.888,0.888
		c0,0.587,0.588,0.875,1.067,1.067c0.84,0.324,1.427,0.755,1.427,1.535c0,0.959-0.875,1.499-1.799,1.499
		c-0.623,0-1.127-0.216-1.295-0.396c-0.084-0.192-0.144-0.924-0.18-1.308L611.824,168.062z"/>
</g>
<g>
	<path d="M453.308,201.284c1.031-0.048,1.127-0.252,1.127-1.199v-4.773c0-0.959,0-1.139-1.055-1.188v-0.18h2.842
		c0.756,0,2.615,0.096,2.615,2.087c0,1.751-1.667,2.471-2.795,2.351l-0.959-0.264v1.991c0,0.936,0.084,1.104,1.307,1.175v0.168
		h-3.082V201.284z M455.083,197.854c0.132,0.06,0.455,0.18,1.02,0.18c1.067,0,1.942-0.552,1.942-1.943
		c0-1.308-0.756-1.907-2.23-1.907c-0.324,0-0.504,0-0.612,0.024c-0.084,0.012-0.119,0.048-0.119,0.3V197.854z"/>
	<path d="M459.584,201.284c0.731-0.048,0.863-0.228,0.863-0.971v-5.637c0-0.755-0.071-0.804-0.899-0.959v-0.132
		c0.54-0.096,1.151-0.276,1.476-0.408v4.078c0.479-0.503,1.163-0.923,1.871-0.923c0.923,0,1.606,0.6,1.606,1.979v2.003
		c0,0.755,0.132,0.923,0.864,0.971v0.168h-2.351v-0.168c0.803-0.048,0.911-0.228,0.911-1.043v-1.643
		c0-1.127-0.336-1.727-1.476-1.727c-0.563,0.036-1.091,0.276-1.427,0.696v2.674c0,0.815,0.12,0.996,0.947,1.043v0.168h-2.375
		L459.584,201.284z"/>
	<path d="M465.56,196.463h2.195v0.168c-0.42,0.084-0.624,0.156-0.624,0.396c0,0.072,0.024,0.18,0.084,0.3l1.296,3.19
		c0.18-0.372,1.343-2.831,1.343-3.43c0-0.312-0.204-0.384-0.695-0.456v-0.168h2.242v0.168c-0.671,0.084-0.719,0.228-1.091,0.863
		c-0.36,0.612-0.792,1.595-1.787,3.646c-0.876,1.799-1.199,2.483-1.367,3.119c-0.061,0.18-0.192,0.24-0.348,0.24
		c-0.288,0-0.54-0.24-0.54-0.492c0-0.168,0.132-0.252,0.3-0.372c0.876-0.6,1.476-2.183,1.476-2.314c0-0.144-0.708-2.123-1.392-3.778
		c-0.264-0.612-0.348-0.792-1.092-0.912V196.463z"/>
	<path d="M471.644,199.821c0.228,0.768,0.768,1.499,1.499,1.499c0.504,0,0.96-0.288,0.96-0.948c0-0.635-0.408-0.947-0.996-1.187
		c-0.756-0.288-1.427-0.684-1.427-1.439c0-0.744,0.671-1.427,1.715-1.415c0.432,0,0.72,0.096,0.936,0.192
		c0.084,0.276,0.191,0.875,0.228,1.211l-0.168,0.072c-0.203-0.6-0.647-1.211-1.259-1.211c-0.588,0-0.888,0.408-0.888,0.888
		c0,0.587,0.588,0.875,1.067,1.067c0.84,0.324,1.427,0.755,1.427,1.535c0,0.959-0.875,1.499-1.799,1.499
		c-0.623,0-1.127-0.216-1.295-0.396c-0.084-0.192-0.144-0.924-0.18-1.308L471.644,199.821z"/>
	<path d="M475.388,201.284c0.768-0.06,0.888-0.216,0.888-0.912v-2.495c0-0.768-0.084-0.827-0.768-0.947v-0.156
		c0.504-0.108,0.888-0.24,1.343-0.48v4.078c0,0.696,0.12,0.852,0.9,0.912v0.168h-2.363V201.284z M477.031,194.16
		c0,0.252-0.204,0.479-0.456,0.479c-0.24,0-0.456-0.228-0.456-0.479c0-0.288,0.216-0.504,0.456-0.504
		C476.851,193.656,477.031,193.908,477.031,194.16z"/>
	<path d="M482.861,200.373c-0.504,0.672-1.332,1.211-2.052,1.211c-1.463,0-2.386-1.151-2.386-2.314c0-2.231,2.122-2.938,2.974-2.938
		c0.324,0,1.283,0.204,1.283,0.587c0,0.192-0.239,0.42-0.407,0.42c-0.048,0-0.096-0.036-0.168-0.096
		c-0.42-0.324-0.815-0.432-1.428-0.432c-0.719,0-1.606,0.564-1.606,1.955c0.012,1.715,1.235,2.255,2.015,2.255
		c0.575,0,0.995-0.144,1.631-0.815L482.861,200.373z"/>
	<path d="M487.014,201.584c-0.024,0-0.264-0.096-0.384-0.216c-0.145-0.156-0.192-0.3-0.264-0.563
		c-0.468,0.359-1.008,0.779-1.451,0.779c-0.828,0-1.392-0.624-1.392-1.367c0-0.54,0.372-0.923,1.199-1.175
		c0.611-0.18,1.367-0.468,1.644-0.636c0-0.587-0.013-1.631-1.092-1.631c-0.191,0.012-0.84,0.06-1.043,1.019
		c-0.024,0.084-0.097,0.204-0.265,0.204s-0.359-0.168-0.359-0.408c0-0.18,0.144-0.324,0.336-0.432c0.3-0.204,1.104-0.696,1.69-0.828
		c0.588,0,1.332,0.384,1.332,1.439v2.579c0,0.492,0.18,0.684,0.432,0.684c0.204,0,0.396-0.072,0.527-0.156l0.108,0.204
		L487.014,201.584z M486.366,198.706c-0.252,0.144-1.008,0.432-1.271,0.54c-0.54,0.204-0.863,0.432-0.863,0.876
		c0,0.624,0.503,0.947,0.936,0.947c0.407,0,0.947-0.3,1.199-0.612V198.706z"/>
	<path d="M488.251,201.284c0.768-0.048,0.888-0.216,0.888-0.959v-5.613c0-0.828-0.096-0.912-0.863-0.983v-0.144
		c0.588-0.072,1.235-0.288,1.439-0.408v7.148c0,0.744,0.107,0.912,0.899,0.959v0.168h-2.363V201.284z"/>
	<path d="M493.639,201.284c0.732-0.048,0.84-0.192,0.84-0.947v-3.49h-0.863l-0.048-0.132l0.323-0.252h0.588
		c0-0.504,0.012-1.056,0.096-1.283c0.108-0.252,0.313-0.875,0.899-1.367c0.444-0.372,0.876-0.576,1.284-0.636
		c0.419,0,0.983,0.384,0.983,0.624s-0.276,0.36-0.36,0.36c-0.048,0-0.096-0.024-0.144-0.084c-0.204-0.204-0.588-0.348-1.044-0.348
		c-0.275,0-0.516,0.096-0.707,0.3c-0.192,0.228-0.408,0.959-0.42,1.883l-0.012,0.552h1.463c0.024,0.06,0.036,0.108,0.036,0.168
		c0,0.084-0.036,0.18-0.132,0.216h-1.367v3.49c0,0.744,0.096,0.899,1.103,0.971v0.144h-2.519V201.284z"/>
	<path d="M496.795,201.284c0.768-0.06,0.888-0.216,0.888-0.912v-2.495c0-0.768-0.084-0.827-0.768-0.947v-0.156
		c0.504-0.108,0.888-0.24,1.343-0.48v4.078c0,0.696,0.12,0.852,0.9,0.912v0.168h-2.363V201.284z M498.438,194.16
		c0,0.252-0.204,0.479-0.456,0.479c-0.24,0-0.456-0.228-0.456-0.479c0-0.288,0.216-0.504,0.456-0.504
		C498.258,193.656,498.438,193.908,498.438,194.16z"/>
	<path d="M501.978,201.452c-0.216,0.12-0.348,0.132-0.492,0.132c-0.671,0-0.995-0.479-0.995-1.295v-3.442h-0.863l-0.036-0.132
		l0.324-0.252h0.575v-0.66l0.408-0.815l0.167-0.012v1.487h1.439c0.024,0.048,0.036,0.096,0.036,0.144c0,0.084-0.036,0.168-0.12,0.24
		h-1.355v3.118c0,0.972,0.324,1.175,0.72,1.175c0.408,0,0.696-0.167,0.828-0.24l0.096,0.18L501.978,201.452z"/>
	<path d="M503.011,201.284c0.695-0.048,0.888-0.228,0.888-0.947v-2.411c0-0.804-0.084-0.852-0.756-0.984v-0.156
		c0.479-0.12,0.96-0.228,1.331-0.503v0.995c0.24-0.144,0.54-0.36,0.912-0.611c0.336-0.204,0.636-0.336,0.972-0.336
		c0.995,0,1.559,0.611,1.559,1.559v2.387c0,0.839,0.108,0.959,0.779,1.007v0.168h-2.314v-0.168c0.815-0.048,0.96-0.216,0.96-1.007
		v-1.967c0-0.684-0.192-1.451-1.296-1.451c-0.587,0-1.199,0.359-1.571,0.731v2.698c0,0.768,0.12,0.948,0.948,0.996v0.168h-2.411
		V201.284z"/>
	<path d="M513.544,200.541c-0.708,0.816-1.523,1.043-1.799,1.043c-1.416,0-2.291-1.127-2.291-2.398c0-1.763,1.439-2.854,2.41-2.854
		c1.032,0,1.775,0.839,1.775,1.691c0,0.24-0.012,0.276-0.204,0.312c-0.191,0.036-1.727,0.168-3.382,0.216
		c-0.012,1.823,1.079,2.471,1.907,2.471c0.407,0,0.839-0.084,1.451-0.66L513.544,200.541z M510.126,198.166
		c0.275,0,1.967-0.024,2.482-0.036c0.3,0,0.3-0.12,0.3-0.192c0-0.671-0.504-1.271-1.367-1.271
		C510.941,196.667,510.306,197.194,510.126,198.166z"/>
	<path d="M514.603,199.821c0.228,0.768,0.768,1.499,1.499,1.499c0.504,0,0.96-0.288,0.96-0.948c0-0.635-0.408-0.947-0.996-1.187
		c-0.756-0.288-1.427-0.684-1.427-1.439c0-0.744,0.671-1.427,1.715-1.415c0.432,0,0.72,0.096,0.936,0.192
		c0.084,0.276,0.191,0.875,0.228,1.211l-0.168,0.072c-0.203-0.6-0.647-1.211-1.259-1.211c-0.588,0-0.888,0.408-0.888,0.888
		c0,0.587,0.588,0.875,1.067,1.067c0.84,0.324,1.427,0.755,1.427,1.535c0,0.959-0.875,1.499-1.799,1.499
		c-0.623,0-1.127-0.216-1.295-0.396c-0.084-0.192-0.144-0.924-0.18-1.308L514.603,199.821z"/>
	<path d="M518.635,199.821c0.228,0.768,0.768,1.499,1.499,1.499c0.504,0,0.96-0.288,0.96-0.948c0-0.635-0.408-0.947-0.996-1.187
		c-0.755-0.288-1.427-0.684-1.427-1.439c0-0.744,0.672-1.427,1.715-1.415c0.432,0,0.72,0.096,0.936,0.192
		c0.084,0.276,0.191,0.875,0.228,1.211l-0.168,0.072c-0.203-0.6-0.647-1.211-1.259-1.211c-0.588,0-0.888,0.408-0.888,0.888
		c0,0.587,0.588,0.875,1.067,1.067c0.84,0.324,1.427,0.755,1.427,1.535c0,0.959-0.875,1.499-1.799,1.499
		c-0.623,0-1.127-0.216-1.295-0.396c-0.084-0.192-0.144-0.924-0.18-1.308L518.635,199.821z"/>
	<path d="M525.15,199.821c0.228,0.768,0.768,1.499,1.499,1.499c0.504,0,0.96-0.288,0.96-0.948c0-0.635-0.408-0.947-0.996-1.187
		c-0.755-0.288-1.427-0.684-1.427-1.439c0-0.744,0.672-1.427,1.715-1.415c0.432,0,0.72,0.096,0.936,0.192
		c0.084,0.276,0.191,0.875,0.228,1.211l-0.168,0.072c-0.203-0.6-0.647-1.211-1.259-1.211c-0.588,0-0.888,0.408-0.888,0.888
		c0,0.587,0.588,0.875,1.067,1.067c0.84,0.324,1.427,0.755,1.427,1.535c0,0.959-0.875,1.499-1.799,1.499
		c-0.623,0-1.127-0.216-1.295-0.396c-0.084-0.192-0.144-0.924-0.18-1.308L525.15,199.821z"/>
	<path d="M531.186,201.452c-0.216,0.12-0.348,0.132-0.492,0.132c-0.671,0-0.995-0.479-0.995-1.295v-3.442h-0.863l-0.036-0.132
		l0.323-0.252h0.576v-0.66l0.408-0.815l0.168-0.012v1.487h1.438c0.024,0.048,0.036,0.096,0.036,0.144c0,0.084-0.036,0.168-0.12,0.24
		h-1.354v3.118c0,0.972,0.323,1.175,0.719,1.175c0.408,0,0.696-0.167,0.828-0.24l0.096,0.18L531.186,201.452z"/>
	<path d="M535.828,201.584c-0.024,0-0.264-0.096-0.384-0.216c-0.145-0.156-0.192-0.3-0.264-0.563
		c-0.468,0.359-1.008,0.779-1.451,0.779c-0.828,0-1.392-0.624-1.392-1.367c0-0.54,0.372-0.923,1.199-1.175
		c0.611-0.18,1.367-0.468,1.644-0.636c0-0.587-0.013-1.631-1.092-1.631c-0.191,0.012-0.84,0.06-1.043,1.019
		c-0.024,0.084-0.097,0.204-0.265,0.204s-0.359-0.168-0.359-0.408c0-0.18,0.144-0.324,0.336-0.432c0.3-0.204,1.104-0.696,1.69-0.828
		c0.588,0,1.332,0.384,1.332,1.439v2.579c0,0.492,0.18,0.684,0.432,0.684c0.204,0,0.396-0.072,0.527-0.156l0.108,0.204
		L535.828,201.584z M535.181,198.706c-0.252,0.144-1.008,0.432-1.271,0.54c-0.54,0.204-0.863,0.432-0.863,0.876
		c0,0.624,0.503,0.947,0.936,0.947c0.407,0,0.947-0.3,1.199-0.612V198.706z"/>
	<path d="M537.222,201.284c0.695-0.048,0.888-0.228,0.888-0.947v-2.411c0-0.804-0.084-0.852-0.756-0.984v-0.156
		c0.479-0.12,0.96-0.228,1.331-0.503v0.995c0.24-0.144,0.54-0.36,0.912-0.611c0.336-0.204,0.636-0.336,0.972-0.336
		c0.995,0,1.559,0.611,1.559,1.559v2.387c0,0.839,0.108,0.959,0.779,1.007v0.168h-2.314v-0.168c0.815-0.048,0.96-0.216,0.96-1.007
		v-1.967c0-0.684-0.192-1.451-1.296-1.451c-0.587,0-1.199,0.359-1.571,0.731v2.698c0,0.768,0.12,0.948,0.948,0.996v0.168h-2.411
		V201.284z"/>
	<path d="M546.904,193.584c0.624-0.084,1.355-0.288,1.595-0.408v7.052c0,0.587,0.145,0.708,0.54,0.755l0.432,0.036v0.144
		c-0.264,0.048-0.995,0.192-1.547,0.42v-0.852l-0.696,0.384c-0.695,0.372-1.091,0.468-1.234,0.468c-1.032,0-2.279-0.863-2.279-2.411
		c-0.023-1.571,1.331-2.842,3.154-2.842c0.264,0,0.731,0.036,1.056,0.132v-1.775c0-0.816-0.096-0.852-1.02-0.948V193.584z
		 M547.924,197.302c-0.348-0.432-0.947-0.624-1.583-0.624c-0.768,0-1.932,0.432-1.932,2.171c0,1.367,0.9,2.195,1.968,2.195
		c0.719-0.012,1.223-0.396,1.547-0.648V197.302z"/>
	<path d="M553.504,201.584c-0.024,0-0.264-0.096-0.384-0.216c-0.145-0.156-0.192-0.3-0.264-0.563
		c-0.468,0.359-1.008,0.779-1.451,0.779c-0.828,0-1.392-0.624-1.392-1.367c0-0.54,0.372-0.923,1.199-1.175
		c0.611-0.18,1.367-0.468,1.644-0.636c0-0.587-0.013-1.631-1.092-1.631c-0.191,0.012-0.84,0.06-1.043,1.019
		c-0.024,0.084-0.097,0.204-0.265,0.204s-0.359-0.168-0.359-0.408c0-0.18,0.144-0.324,0.336-0.432c0.3-0.204,1.104-0.696,1.69-0.828
		c0.588,0,1.332,0.384,1.332,1.439v2.579c0,0.492,0.18,0.684,0.432,0.684c0.204,0,0.396-0.072,0.527-0.156l0.108,0.204
		L553.504,201.584z M552.856,198.706c-0.252,0.144-1.008,0.432-1.271,0.54c-0.54,0.204-0.863,0.432-0.863,0.876
		c0,0.624,0.503,0.947,0.936,0.947c0.407,0,0.947-0.3,1.199-0.612V198.706z"/>
	<path d="M554.934,201.284c0.731-0.048,0.852-0.216,0.852-0.971v-2.351c0-0.875-0.084-0.947-0.827-1.031v-0.144
		c0.491-0.096,0.971-0.24,1.402-0.503v1.463h0.024c0.288-0.647,0.936-1.415,1.523-1.415c0.359,0,0.588,0.312,0.588,0.503
		c0,0.228-0.24,0.444-0.42,0.444c-0.048,0-0.084-0.012-0.108-0.06c-0.18-0.167-0.275-0.251-0.504-0.251
		c-0.323,0-0.791,0.54-1.104,1.415v1.955c0,0.744,0.108,0.899,1.068,0.947v0.168h-2.495V201.284z"/>
	<path d="M562.313,193.584c0.624-0.084,1.355-0.288,1.595-0.408v7.052c0,0.587,0.145,0.708,0.54,0.755l0.432,0.036v0.144
		c-0.264,0.048-0.995,0.192-1.547,0.42v-0.852l-0.696,0.384c-0.695,0.372-1.091,0.468-1.234,0.468c-1.032,0-2.279-0.863-2.279-2.411
		c-0.023-1.571,1.331-2.842,3.154-2.842c0.264,0,0.731,0.036,1.056,0.132v-1.775c0-0.816-0.096-0.852-1.02-0.948V193.584z
		 M563.332,197.302c-0.348-0.432-0.947-0.624-1.583-0.624c-0.768,0-1.932,0.432-1.932,2.171c0,1.367,0.9,2.195,1.968,2.195
		c0.719-0.012,1.223-0.396,1.547-0.648V197.302z"/>
</g>
<path fill="none" stroke="#000000" stroke-width="5" stroke-miterlimit="10" d="M156.854,148.884"/>
<g>
	<g>
		<path d="M168.375,165.511c-2.306-4.664-4.612-9.327-6.918-13.99c-1.429-2.891-5.741-0.356-4.317,2.523
			c2.306,4.663,4.612,9.327,6.918,13.99C165.487,170.925,169.799,168.391,168.375,165.511L168.375,165.511z"/>
	</g>
</g>
<g>
	<g>
		<path d="M158.679,464.173c34.501,0,69.001,0,103.502,0c64.157,0,128.315,0,192.472,0c34.796,0,69.593,0,104.389,0
			c0.001,0,0.002,0,0.003,0c2.985,0,3.188-3.935,0.665-4.911c-5.978-2.311-11.955-4.622-17.932-6.934
			c-3.013-1.164-4.304,3.672-1.33,4.821c5.978,2.312,11.955,4.622,17.932,6.935c0.222-1.637,0.443-3.274,0.665-4.911
			c-34.501,0-69.002,0-103.503,0c-64.157,0-128.314,0-192.472,0c-34.796,0-69.592,0-104.388,0c-0.001,0-0.002,0-0.003,0
			C155.455,459.173,155.455,464.173,158.679,464.173L158.679,464.173z"/>
	</g>
</g>
<path fill="none" stroke="#000000" stroke-width="5" stroke-miterlimit="10" d="M564.105,459.848"/>
<g>
	<g>
		<path d="M541.606,471.621c6.038-2.307,12.076-4.611,18.115-6.918c2.98-1.139,1.688-5.974-1.33-4.821
			c-6.038,2.306-12.076,4.612-18.115,6.918C537.296,467.938,538.589,472.773,541.606,471.621L541.606,471.621z"/>
	</g>
</g>
<g>
	<rect x="524.374" y="476.621" fill="none" width="132.847" height="27.008"/>
	<path d="M526.425,487.014c1.199-0.06,1.283-0.264,1.283-1.176v-5.876h-0.743c-1.571,0-1.728,0.264-2.087,1.522h-0.192
		c0.072-0.707,0.108-1.427,0.132-2.099h0.192c0.084,0.145,0.168,0.216,0.264,0.252s0.216,0.036,0.384,0.036h4.833
		c0.313,0,0.396-0.06,0.564-0.288l0.203,0.012c-0.023,0.564,0.049,1.319,0.108,2.039l-0.204,0.048
		c-0.288-1.354-0.743-1.522-1.763-1.522h-1.067v5.876c0,0.912,0.084,1.116,1.331,1.176v0.168h-3.238V487.014z"/>
	<path d="M532.006,487.014c0.768-0.06,0.888-0.216,0.888-0.911v-2.495c0-0.768-0.084-0.827-0.768-0.947v-0.156
		c0.504-0.107,0.888-0.239,1.343-0.479v4.078c0,0.695,0.12,0.852,0.9,0.911v0.168h-2.363V487.014z M533.649,479.89
		c0,0.252-0.204,0.479-0.456,0.479c-0.24,0-0.456-0.228-0.456-0.479c0-0.288,0.216-0.504,0.456-0.504
		C533.469,479.386,533.649,479.638,533.649,479.89z"/>
	<path d="M534.766,487.014c0.863-0.06,1.02-0.228,1.02-0.983v-2.362c0-0.804-0.048-0.852-0.792-0.996v-0.155
		c0.504-0.108,0.996-0.229,1.38-0.504v0.972c1.235-0.864,1.559-0.924,1.906-0.924c0.444,0,1.02,0.336,1.26,0.972
		c1.403-0.936,1.751-0.972,1.991-0.972c0.875,0,1.451,0.611,1.451,1.451v2.459c0,0.875,0.12,0.995,0.839,1.043v0.168h-2.435v-0.168
		c0.84-0.048,1.02-0.204,1.02-1.067v-1.871c0-0.756-0.191-1.487-1.247-1.487c-0.504,0.024-1.044,0.336-1.523,0.696
		c0.013,0.168,0.036,0.3,0.036,0.371v2.315c0,0.815,0.132,0.995,0.84,1.043v0.168h-2.459v-0.168
		c0.899-0.048,1.044-0.228,1.044-1.043v-1.943c0-0.779-0.229-1.439-1.271-1.439c-0.563,0-1.08,0.42-1.464,0.708v2.675
		c0,0.815,0.12,0.995,0.78,1.043v0.168h-2.375V487.014z"/>
	<path d="M548.623,486.271c-0.708,0.815-1.523,1.043-1.799,1.043c-1.415,0-2.291-1.127-2.291-2.398c0-1.763,1.439-2.854,2.411-2.854
		c1.031,0,1.774,0.84,1.774,1.691c0,0.239-0.012,0.275-0.204,0.312c-0.191,0.036-1.727,0.168-3.382,0.216
		c-0.012,1.823,1.079,2.471,1.907,2.471c0.407,0,0.839-0.084,1.451-0.66L548.623,486.271z M545.205,483.896
		c0.275,0,1.967-0.024,2.482-0.036c0.3,0,0.3-0.12,0.3-0.191c0-0.672-0.504-1.271-1.367-1.271
		C546.021,482.396,545.385,482.924,545.205,483.896z"/>
</g>
<g>
	<rect x="172.548" y="152.793" fill="none" width="100" height="35.766"/>
	<path d="M173.04,163.185c1.007-0.048,1.104-0.252,1.104-1.127v-4.917c0-0.875-0.096-1.08-1.104-1.127v-0.168h5.097
		c0,0.647,0.06,1.271,0.108,1.847l-0.216,0.024c-0.228-1.271-0.54-1.583-1.919-1.583h-1.007c-0.312,0-0.336,0.024-0.336,0.336v2.915
		h1.379c1.127,0,1.223-0.108,1.427-0.912h0.204v2.327h-0.204c-0.204-0.936-0.3-1.079-1.427-1.079h-1.379v2.338
		c0,0.875,0.108,1.067,1.319,1.127v0.168h-3.046V163.185z"/>
	<path d="M179.027,163.185c0.768-0.06,0.888-0.216,0.888-0.912v-2.495c0-0.768-0.084-0.827-0.768-0.947v-0.156
		c0.504-0.108,0.888-0.24,1.343-0.48v4.078c0,0.696,0.12,0.852,0.899,0.912v0.168h-2.363V163.185z M180.67,156.061
		c0,0.252-0.204,0.479-0.456,0.479c-0.24,0-0.456-0.228-0.456-0.479c0-0.288,0.216-0.504,0.456-0.504
		C180.491,155.557,180.67,155.809,180.67,156.061z"/>
	<path d="M184.21,163.353c-0.216,0.12-0.348,0.132-0.492,0.132c-0.672,0-0.996-0.479-0.996-1.295v-3.442h-0.864l-0.036-0.132
		l0.324-0.252h0.576v-0.66l0.408-0.815l0.168-0.012v1.487h1.439c0.024,0.048,0.036,0.096,0.036,0.144c0,0.084-0.036,0.168-0.12,0.24
		h-1.355v3.118c0,0.972,0.324,1.175,0.72,1.175c0.408,0,0.695-0.167,0.828-0.24l0.096,0.18L184.21,163.353z"/>
	<path d="M185.243,163.185c0.696-0.048,0.888-0.228,0.888-0.947v-2.411c0-0.804-0.084-0.852-0.756-0.984v-0.156
		c0.48-0.12,0.96-0.228,1.332-0.503v0.995c0.24-0.144,0.54-0.36,0.912-0.611c0.335-0.204,0.636-0.336,0.971-0.336
		c0.996,0,1.559,0.611,1.559,1.559v2.387c0,0.839,0.108,0.959,0.78,1.007v0.168h-2.315v-0.168c0.816-0.048,0.959-0.216,0.959-1.007
		v-1.967c0-0.684-0.192-1.451-1.295-1.451c-0.588,0-1.2,0.359-1.571,0.731v2.698c0,0.768,0.12,0.948,0.947,0.996v0.168h-2.411
		V163.185z"/>
	<path d="M195.777,162.441c-0.708,0.816-1.523,1.043-1.799,1.043c-1.415,0-2.291-1.127-2.291-2.398c0-1.763,1.439-2.854,2.411-2.854
		c1.031,0,1.775,0.839,1.775,1.691c0,0.24-0.012,0.276-0.204,0.312c-0.192,0.036-1.727,0.168-3.382,0.216
		c-0.012,1.823,1.08,2.471,1.907,2.471c0.408,0,0.84-0.084,1.452-0.66L195.777,162.441z M192.358,160.067
		c0.276,0,1.967-0.024,2.483-0.036c0.3,0,0.3-0.12,0.3-0.192c0-0.671-0.504-1.271-1.367-1.271
		C193.174,158.568,192.539,159.095,192.358,160.067z"/>
	<path d="M196.835,161.722c0.228,0.768,0.768,1.499,1.499,1.499c0.504,0,0.959-0.288,0.959-0.948c0-0.635-0.408-0.947-0.996-1.187
		c-0.755-0.288-1.427-0.684-1.427-1.439c0-0.744,0.671-1.427,1.715-1.415c0.432,0,0.72,0.096,0.936,0.192
		c0.084,0.276,0.192,0.875,0.228,1.211l-0.167,0.072c-0.204-0.6-0.648-1.211-1.259-1.211c-0.588,0-0.888,0.408-0.888,0.888
		c0,0.587,0.588,0.875,1.067,1.067c0.839,0.324,1.427,0.755,1.427,1.535c0,0.959-0.875,1.499-1.799,1.499
		c-0.624,0-1.127-0.216-1.295-0.396c-0.084-0.192-0.144-0.924-0.18-1.308L196.835,161.722z"/>
	<path d="M200.867,161.722c0.228,0.768,0.768,1.499,1.499,1.499c0.504,0,0.959-0.288,0.959-0.948c0-0.635-0.408-0.947-0.996-1.187
		c-0.755-0.288-1.427-0.684-1.427-1.439c0-0.744,0.671-1.427,1.715-1.415c0.432,0,0.72,0.096,0.936,0.192
		c0.084,0.276,0.192,0.875,0.228,1.211l-0.167,0.072c-0.204-0.6-0.648-1.211-1.259-1.211c-0.588,0-0.888,0.408-0.888,0.888
		c0,0.587,0.588,0.875,1.067,1.067c0.839,0.324,1.427,0.755,1.427,1.535c0,0.959-0.875,1.499-1.799,1.499
		c-0.624,0-1.127-0.216-1.295-0.396c-0.084-0.192-0.144-0.924-0.18-1.308L200.867,161.722z"/>
</g>
<g>
</g>
<g>
</g>
<g>
</g>
<g>
</g>
<g>
</g>
<g>
</g>
</svg>
